<?xml version="1.0" encoding="UTF-8" standalone="no"?>
<!-- Creator: CorelDRAW X6 -->

<svg
   xmlns:dc="http://purl.org/dc/elements/1.1/"
   xmlns:cc="http://creativecommons.org/ns#"
   xmlns:rdf="http://www.w3.org/1999/02/22-rdf-syntax-ns#"
   xmlns:svg="http://www.w3.org/2000/svg"
   xmlns="http://www.w3.org/2000/svg"
   xmlns:sodipodi="http://sodipodi.sourceforge.net/DTD/sodipodi-0.dtd"
   xmlns:inkscape="http://www.inkscape.org/namespaces/inkscape"
   xml:space="preserve"
   width="500px"
   height="464px"
   version="1.1"
   shape-rendering="geometricPrecision"
   text-rendering="geometricPrecision"
   image-rendering="optimizeQuality"
   clip-rule="evenodd"
   viewBox="0 0 3320 3083"
   id="svg2985"
   inkscape:version="0.48.4 r9939"
   sodipodi:docname="41ab45d91d43a4be11748e7c15fc6615.svg"
   fill-rule="evenodd"><metadata
   id="metadata3042"><rdf:RDF><cc:Work
       rdf:about=""><dc:format>image/svg+xml</dc:format><dc:type
         rdf:resource="http://purl.org/dc/dcmitype/StillImage" /><dc:title></dc:title></cc:Work></rdf:RDF></metadata><defs
   id="defs3040">
  
  
 </defs><sodipodi:namedview
   pagecolor="#ffffff"
   bordercolor="#666666"
   borderopacity="1"
   objecttolerance="10"
   gridtolerance="10"
   guidetolerance="10"
   inkscape:pageopacity="0"
   inkscape:pageshadow="2"
   inkscape:window-width="1920"
   inkscape:window-height="1028"
   id="namedview3038"
   showgrid="false"
   inkscape:zoom="20.335416"
   inkscape:cx="27.05162"
   inkscape:cy="456.76925"
   inkscape:window-x="-8"
   inkscape:window-y="-8"
   inkscape:window-maximized="1"
   inkscape:current-layer="svg2985"
   showguides="true"
   inkscape:guide-bbox="true"><inkscape:grid
     type="xygrid"
     id="grid3167" /><sodipodi:guide
     orientation="1,0"
     position="0.049175292,466.28012"
     id="guide3223" /><sodipodi:guide
     orientation="0,1"
     position="2.2128881,464.1164"
     id="guide3225" /></sodipodi:namedview>
 <g
   id="_799498768"
   transform="matrix(0.04925062,0,0,0.04925062,-97.128925,-95.289167)">
   <path
   style="fill:#fefefe;fill-rule:nonzero;stroke:#332c2b;stroke-width:43.37829971"
   inkscape:connector-curvature="0"
   id="path2990"
   d="m 680,2134 c 15,-17 114,-161 98,-176 -17,-16 -144,104 -160,120 -110,122 -163,221 -206,304 -69,130 -112,210 -361,254 -23,4 -38,25 -34,48 4,23 26,38 48,34 289,-51 339,-145 420,-298 41,-77 92,-172 195,-286 z" />
   <path
   style="fill:#fefefe;stroke:#332c2b;stroke-width:43.37829971;stroke-linecap:round;stroke-linejoin:round"
   inkscape:connector-curvature="0"
   id="path2992"
   d="m 1976,2638 379,-135 c 0,0 -101,192 -106,282 -4,91 10,193 -84,227 -94,35 -186,-98 -175,-205 11,-107 -14,-169 -14,-169 z" />
   <path
   style="fill:#fefefe;stroke:#332c2b;stroke-width:43.37829971"
   inkscape:connector-curvature="0"
   id="path2994"
   d="M 1175,2724 783,2314 c 0,0 -22,454 35,595 98,240 308,-97 357,-185 z" />
   <path
   style="fill:#fefefe;stroke:#332c2b;stroke-width:35.89770126"
   inkscape:connector-curvature="0"
   id="path2996"
   d="m 1497,1697 c -524,0 -948,305 -948,700 0,396 424,534 948,534 523,0 867,-138 867,-534 0,-395 -344,-700 -867,-700 z" />
   <path
   style="fill:#fefefe"
   inkscape:connector-curvature="0"
   id="path2998"
   d="m 1953,1940 c 612,0 1133,-357 1133,-869 0,-165 -55,-320 -148,-455 20,-194 154,-470 28,-559 -137,-98 -443,88 -666,133 -110,-30 -227,-46 -347,-46 -128,0 -251,18 -367,51 -219,-53 -505,-220 -637,-126 -121,86 -1,345 26,538 -98,136 -155,295 -155,464 0,512 520,869 1133,869 z" />
   <path
   style="fill:#332c2b;fill-rule:nonzero"
   inkscape:connector-curvature="0"
   id="path3000"
   d="m 1953,1969 c 319,0 614,-95 827,-258 206,-158 335,-380 335,-640 0,-84 -14,-166 -39,-244 -25,-77 -62,-150 -108,-218 7,-54 22,-116 38,-178 40,-162 81,-324 -23,-397 -104,-75 -278,-11 -453,53 -79,29 -159,58 -229,73 -54,-15 -111,-26 -169,-34 -59,-7 -119,-11 -179,-11 -64,0 -128,4 -190,13 -61,8 -120,21 -178,37 -62,-16 -131,-41 -200,-67 -174,-63 -349,-127 -453,-53 -104,74 -63,236 -22,397 13,54 27,108 34,157 -48,69 -86,144 -113,222 -26,80 -40,164 -40,250 0,260 128,482 335,640 212,163 507,258 827,258 z m 791,-305 c -202,155 -485,246 -791,246 -307,0 -589,-91 -792,-246 -192,-147 -312,-352 -312,-593 0,-80 13,-157 38,-231 26,-77 63,-149 112,-216 l 7,-10 -2,-11 C 996,547 981,488 966,428 931,286 895,143 966,93 c 79,-57 239,2 399,60 73,27 146,54 214,70 l 8,2 7,-2 c 57,-16 117,-29 177,-37 59,-8 120,-13 182,-13 59,0 116,4 172,11 57,8 113,19 168,34 l 6,2 7,-2 c 76,-15 160,-46 244,-76 160,-59 320,-117 399,-61 71,51 35,193 0,335 -17,68 -34,136 -41,197 l -1,11 7,9 c 46,66 82,137 106,212 24,72 36,148 36,226 0,241 -120,446 -312,593 z" />
   <path
   style="fill:#332c2b;fill-rule:nonzero"
   inkscape:connector-curvature="0"
   id="path3002"
   d="m 1215,634 c -55,0 -105,26 -141,68 -35,41 -57,97 -57,159 0,63 22,119 57,160 36,42 86,68 141,68 56,0 105,-26 141,-68 36,-41 58,-97 58,-160 0,-62 -22,-118 -58,-159 -36,-42 -85,-68 -141,-68 z m -118,87 c 30,-36 72,-57 118,-57 47,0 89,21 119,57 31,36 50,85 50,140 0,56 -19,105 -50,141 -30,35 -72,57 -119,57 -46,0 -88,-22 -118,-57 -31,-36 -51,-85 -51,-141 0,-55 20,-104 51,-140 z" />
   <path
   style="fill:#dcdddd;stroke:#fefefe;stroke-width:7.87532997"
   inkscape:connector-curvature="0"
   id="path3004"
   d="M 2792,481 2487,266 c 106,-22 253,-111 319,-64 63,44 -10,186 -14,279 z" />
   <path
   style="fill:#dcdddd;stroke:#fefefe;stroke-width:7.87532997"
   inkscape:connector-curvature="0"
   id="path3006"
   d="m 1112,481 304,-215 c -106,-22 -253,-111 -319,-64 -62,44 10,186 15,279 z" />
   <path
   style="fill:#332c2b;fill-rule:nonzero"
   inkscape:connector-curvature="0"
   id="path3008"
   d="m 2663,619 c -55,0 -105,26 -141,69 -35,43 -57,101 -57,166 0,64 22,122 57,165 36,43 86,70 141,70 55,0 105,-27 141,-70 36,-43 58,-101 58,-165 0,-65 -22,-123 -58,-166 -36,-43 -86,-69 -141,-69 z m -119,88 c 31,-36 73,-59 119,-59 46,0 88,23 119,59 31,37 50,89 50,147 0,57 -19,109 -50,146 -31,37 -73,59 -119,59 -46,0 -88,-22 -119,-59 -31,-37 -50,-89 -50,-146 0,-58 19,-110 50,-147 z" />
   <path
   style="fill:#332c2b;fill-rule:nonzero"
   inkscape:connector-curvature="0"
   id="path3010"
   d="m 1121,1199 c 11,1 22,-7 23,-18 1,-11 -7,-21 -18,-23 -1,0 -217,-23 -293,-51 -75,-29 -216,-112 -216,-112 -10,-6 -22,-3 -28,7 -6,10 -3,22 7,28 1,0 143,85 223,115 80,30 302,54 302,54 z" />
   <path
   style="fill:#332c2b;fill-rule:nonzero"
   inkscape:connector-curvature="0"
   id="path3012"
   d="m 1129,1268 c 10,-4 16,-16 12,-27 -4,-10 -16,-16 -27,-12 0,1 -138,52 -188,61 -52,8 -259,19 -260,19 -11,0 -20,10 -19,21 0,11 10,20 21,20 1,0 211,-11 264,-20 55,-9 196,-62 197,-62 z" />
   <path
   style="fill:#332c2b;fill-rule:nonzero"
   inkscape:connector-curvature="0"
   id="path3014"
   d="m 2780,1158 c -11,2 -19,12 -18,23 1,11 11,19 22,18 1,0 222,-24 302,-54 80,-30 223,-115 223,-115 10,-6 13,-18 8,-28 -6,-10 -19,-13 -28,-7 -1,0 -141,83 -217,112 -75,28 -291,51 -292,51 z" />
   <path
   style="fill:#332c2b;fill-rule:nonzero"
   inkscape:connector-curvature="0"
   id="path3016"
   d="m 2791,1229 c -11,-4 -22,2 -26,12 -4,11 1,23 12,27 0,0 142,53 196,62 54,9 264,20 265,20 11,0 20,-9 21,-20 0,-11 -8,-21 -20,-21 0,0 -208,-11 -259,-19 -51,-9 -189,-60 -189,-61 z" />
   <ellipse
   style="fill:#332c2b"
   sodipodi:ry="69"
   sodipodi:rx="68"
   sodipodi:cy="881"
   sodipodi:cx="2600"
   d="m 2668,881 c 0,38.10765 -30.4446,69 -68,69 -37.5554,0 -68,-30.89235 -68,-69 0,-38.10765 30.4446,-69 68,-69 37.5554,0 68,30.89235 68,69 z"
   id="ellipse3018"
   ry="69"
   rx="68"
   cy="881"
   cx="2600" />
   <path
   style="fill:#332c2b"
   inkscape:connector-curvature="0"
   id="path3020"
   d="m 1953,961 c -82,0 -149,11 -149,67 0,57 67,138 149,138 82,0 148,-81 148,-138 0,-56 -66,-67 -148,-67 z" />
   <path
   style="fill:#332c2b;fill-rule:nonzero"
   inkscape:connector-curvature="0"
   id="path3022"
   d="m 1755,1333 c -2,-6 -8,-10 -14,-8 -7,2 -10,8 -8,15 6,20 15,37 27,53 34,45 87,69 145,77 56,8 117,2 166,-14 28,-8 53,-20 71,-34 5,-4 6,-11 2,-17 -4,-5 -11,-6 -16,-2 -16,12 -38,23 -64,31 -46,15 -103,21 -156,13 -52,-8 -100,-29 -129,-68 -10,-13 -18,-29 -24,-46 z" />
   <ellipse
   style="fill:#332c2b"
   sodipodi:ry="69"
   sodipodi:rx="68"
   sodipodi:cy="881"
   sodipodi:cx="1281"
   d="m 1349,881 c 0,38.10765 -30.4446,69 -68,69 -37.5554,0 -68,-30.89235 -68,-69 0,-38.10765 30.4446,-69 68,-69 37.5554,0 68,30.89235 68,69 z"
   id="ellipse3024"
   ry="69"
   rx="68"
   cy="881"
   cx="1281" />
   <g
   id="g3026">
    <path
   style="fill:#fefefe"
   inkscape:connector-curvature="0"
   id="path3028"
   d="m 1834,2893 362,-401 c -25,306 81,404 46,498 -34,94 -195,78 -270,1 -74,-78 -138,-98 -138,-98 z" />
    <path
   style="fill:none;stroke:#332c2b;stroke-width:43.37829971;stroke-linecap:round;stroke-linejoin:round"
   inkscape:connector-curvature="0"
   id="path3030"
   d="m 2196,2492 c -25,306 81,404 46,498 -34,94 -195,78 -270,1 -74,-78 -138,-98 -138,-98" />
   </g>
   <g
   id="g3032">
    <path
   style="fill:#fefefe"
   inkscape:connector-curvature="0"
   id="path3034"
   d="M 1054,2724 553,2457 c 0,0 121,439 220,555 168,197 263,-189 281,-288 z" />
    <path
   style="fill:none;stroke:#332c2b;stroke-width:43.37829971;stroke-linecap:round;stroke-linejoin:round"
   inkscape:connector-curvature="0"
   id="path3036"
   d="m 553,2457 c 0,0 121,439 220,555 168,197 263,-189 281,-288" />
   </g>
  </g>
</svg>