<?xml version="1.0" encoding="UTF-8" standalone="no"?>
<!-- Creator: CorelDRAW X6 -->

<svg
   xmlns:dc="http://purl.org/dc/elements/1.1/"
   xmlns:cc="http://creativecommons.org/ns#"
   xmlns:rdf="http://www.w3.org/1999/02/22-rdf-syntax-ns#"
   xmlns:svg="http://www.w3.org/2000/svg"
   xmlns="http://www.w3.org/2000/svg"
   xmlns:sodipodi="http://sodipodi.sourceforge.net/DTD/sodipodi-0.dtd"
   xmlns:inkscape="http://www.inkscape.org/namespaces/inkscape"
   xml:space="preserve"
   width="1835px"
   height="1693px"
   version="1.1"
   shape-rendering="geometricPrecision"
   text-rendering="geometricPrecision"
   image-rendering="optimizeQuality"
   fill-rule="evenodd"
   clip-rule="evenodd"
   viewBox="0 0 806 743"
   id="svg3169"
   inkscape:version="0.48.4 r9939"
   sodipodi:docname="b2ea43be1b1c00cb2b3dc20bf337f96e.svg"><metadata
   id="metadata3221"><rdf:RDF><cc:Work
       rdf:about=""><dc:format>image/svg+xml</dc:format><dc:type
         rdf:resource="http://purl.org/dc/dcmitype/StillImage" /></cc:Work></rdf:RDF></metadata><defs
   id="defs3219" /><sodipodi:namedview
   pagecolor="#ffffff"
   bordercolor="#666666"
   borderopacity="1"
   objecttolerance="10"
   gridtolerance="10"
   guidetolerance="10"
   inkscape:pageopacity="0"
   inkscape:pageshadow="2"
   inkscape:window-width="1920"
   inkscape:window-height="1028"
   id="namedview3217"
   showgrid="false"
   inkscape:zoom="1.5771029"
   inkscape:cx="252.39095"
   inkscape:cy="1526.2422"
   inkscape:window-x="-8"
   inkscape:window-y="-8"
   inkscape:window-maximized="1"
   inkscape:current-layer="svg3169"
   showguides="true"
   inkscape:guide-bbox="true"><sodipodi:guide
     orientation="1,0"
     position="0,1684.1006"
     id="guide3227" /><sodipodi:guide
     orientation="0,1"
     position="178.1748,1692.9777"
     id="guide3229" /></sodipodi:namedview>
 <g
   id="图层_x0020_1"
   transform="matrix(0.20713226,0,0,0.20713226,-98.539296,-94.845059)">
  <metadata
   id="CorelCorpID_0Corel-Layer" />
  <path
   d="m 172,508 c 4,-3 30,-36 26,-40 -4,-4 -36,22 -40,26 -28,27 -43,50 -55,69 -18,30 -30,48 -90,54 -6,1 -10,5 -9,11 1,5 5,9 11,9 70,-7 83,-29 105,-64 11,-18 25,-39 52,-65 z"
   id="path3173"
   inkscape:connector-curvature="0"
   style="fill:#fefefe;fill-rule:nonzero;stroke:#332c2b;stroke-width:10.37059975" />
  <path
   d="m 505,645 72,-63 c 0,0 -5,51 1,72 7,20 19,42 1,58 -17,16 -50,-6 -56,-31 -7,-25 -18,-36 -18,-36 z"
   id="path3175"
   inkscape:connector-curvature="0"
   style="fill:#fefefe;stroke:#332c2b;stroke-width:10.37059975" />
  <path
   d="m 320,649 -93,-98 c 0,0 -6,109 8,143 23,57 74,-23 85,-45 z"
   id="path3177"
   inkscape:connector-curvature="0"
   style="fill:#fefefe;stroke:#332c2b;stroke-width:10.37059975" />
  <path
   d="m 370,406 c -125,0 -227,73 -227,167 0,95 102,128 227,128 125,0 207,-33 207,-128 0,-94 -82,-167 -207,-167 z"
   id="path3179"
   inkscape:connector-curvature="0"
   style="fill:#fefefe;stroke:#332c2b;stroke-width:8.58216953" />
  <path
   d="m 479,464 c 146,0 271,-86 271,-208 0,-39 -13,-77 -36,-109 5,-46 37,-112 7,-133 C 688,-10 615,35 562,45 536,38 508,34 479,34 448,34 419,39 391,47 339,34 270,-6 239,17 c -29,20 0,82 6,128 -23,33 -37,71 -37,111 0,122 124,208 271,208 z"
   id="path3181"
   inkscape:connector-curvature="0"
   style="fill:#fefefe" />
  <path
   d="m 479,471 c 76,0 147,-23 198,-62 49,-38 80,-91 80,-153 0,-20 -3,-40 -10,-58 -6,-19 -14,-36 -25,-52 1,-13 5,-28 9,-43 9,-39 19,-77 -6,-95 -25,-18 -66,-3 -108,13 -19,7 -38,14 -55,17 -13,-3 -26,-6 -40,-8 -14,-2 -29,-3 -43,-3 -15,0 -31,1 -45,4 -15,2 -29,5 -43,8 C 376,36 360,30 343,24 302,8 260,-7 235,11 c -25,17 -15,56 -5,95 3,13 6,26 8,37 -12,17 -21,35 -27,53 -7,19 -10,39 -10,60 0,62 31,115 80,153 51,39 122,62 198,62 z m 189,-73 c -48,37 -116,59 -189,59 -73,0 -141,-22 -189,-59 -46,-35 -75,-84 -75,-142 0,-19 3,-38 9,-55 6,-18 15,-36 27,-52 l 1,-2 0,-3 c -2,-13 -5,-27 -9,-42 -8,-34 -17,-68 0,-80 19,-13 57,1 95,15 18,6 35,12 52,16 l 1,1 2,-1 c 14,-4 28,-7 43,-9 14,-2 28,-3 43,-3 14,0 28,1 41,3 14,2 27,5 40,8 l 2,1 1,-1 c 19,-3 39,-11 59,-18 38,-14 76,-28 95,-15 17,12 9,47 0,81 -4,16 -8,32 -10,47 l 0,2 2,2 c 11,16 19,33 25,51 6,17 9,35 9,54 0,58 -29,107 -75,142 z"
   id="path3183"
   inkscape:connector-curvature="0"
   style="fill:#332c2b;fill-rule:nonzero" />
  <path
   d="m 303,152 c -14,0 -25,6 -34,16 -9,10 -14,23 -14,38 0,15 5,28 14,38 9,10 20,16 34,16 13,0 25,-6 33,-16 9,-10 14,-23 14,-38 0,-15 -5,-28 -14,-38 -8,-10 -20,-16 -33,-16 z m -29,20 c 8,-8 18,-13 29,-13 11,0 21,5 28,13 7,9 12,21 12,34 0,13 -5,25 -12,34 -7,8 -17,13 -28,13 -11,0 -21,-5 -29,-13 -7,-9 -12,-21 -12,-34 0,-13 5,-25 12,-34 z"
   id="path3185"
   inkscape:connector-curvature="0"
   style="fill:#332c2b;fill-rule:nonzero" />
  <path
   d="M 679,115 607,63 c 25,-5 60,-26 76,-15 15,11 -2,45 -4,67 z"
   id="path3187"
   inkscape:connector-curvature="0"
   style="fill:#dcdddd;stroke:#fefefe;stroke-width:1.88277996" />
  <path
   d="m 278,115 73,-52 c -26,-5 -61,-26 -77,-15 -15,11 3,45 4,67 z"
   id="path3189"
   inkscape:connector-curvature="0"
   style="fill:#dcdddd;stroke:#fefefe;stroke-width:1.88277996" />
  <path
   d="m 649,148 c -13,0 -25,6 -34,17 -8,10 -14,24 -14,39 0,15 6,29 14,40 9,10 21,16 34,16 13,0 25,-6 34,-16 8,-11 13,-25 13,-40 0,-15 -5,-29 -13,-39 -9,-11 -21,-17 -34,-17 z m -29,21 c 8,-9 18,-14 29,-14 11,0 21,5 28,14 8,9 12,21 12,35 0,14 -4,26 -12,35 -7,9 -17,14 -28,14 -11,0 -21,-5 -29,-14 -7,-9 -12,-21 -12,-35 0,-14 5,-26 12,-35 z"
   id="path3191"
   inkscape:connector-curvature="0"
   style="fill:#332c2b;fill-rule:nonzero" />
  <path
   d="m 280,287 c 3,0 5,-2 6,-5 0,-2 -2,-5 -5,-5 0,0 -52,-6 -70,-12 -18,-7 -51,-27 -51,-27 -3,-2 -6,-1 -7,2 -1,2 -1,5 2,6 0,0 34,21 53,28 19,7 72,13 72,13 z"
   id="path3193"
   inkscape:connector-curvature="0"
   style="fill:#332c2b;fill-rule:nonzero" />
  <path
   d="m 282,303 c 2,-1 4,-4 3,-6 -1,-3 -4,-4 -6,-3 -1,0 -33,12 -46,14 -12,2 -62,5 -62,5 -2,0 -4,2 -4,5 0,3 2,5 5,5 0,0 50,-3 63,-5 13,-2 47,-15 47,-15 z"
   id="path3195"
   inkscape:connector-curvature="0"
   style="fill:#332c2b;fill-rule:nonzero" />
  <path
   d="m 677,277 c -3,0 -5,3 -5,5 1,3 3,5 6,5 0,0 53,-6 72,-13 19,-7 53,-28 53,-28 3,-1 3,-4 2,-6 -1,-3 -4,-4 -7,-2 0,0 -33,20 -51,27 -18,6 -70,12 -70,12 z"
   id="path3197"
   inkscape:connector-curvature="0"
   style="fill:#332c2b;fill-rule:nonzero" />
  <path
   d="m 679,294 c -2,-1 -5,0 -6,3 -1,2 0,5 3,6 0,0 34,13 47,15 13,2 63,5 63,5 3,0 5,-2 5,-5 0,-3 -2,-5 -4,-5 -1,0 -50,-3 -62,-5 -13,-2 -46,-14 -46,-14 z"
   id="path3199"
   inkscape:connector-curvature="0"
   style="fill:#332c2b;fill-rule:nonzero" />
  <ellipse
   cx="634"
   cy="211"
   rx="16"
   ry="17"
   id="ellipse3201"
   d="m 650,211 c 0,9.38884 -7.16344,17 -16,17 -8.83656,0 -16,-7.61116 -16,-17 0,-9.38884 7.16344,-17 16,-17 8.83656,0 16,7.61116 16,17 z"
   sodipodi:cx="634"
   sodipodi:cy="211"
   sodipodi:rx="16"
   sodipodi:ry="17"
   style="fill:#332c2b" />
  <path
   d="m 479,230 c -20,0 -36,2 -36,16 0,13 16,33 36,33 20,0 35,-20 35,-33 0,-14 -15,-16 -35,-16 z"
   id="path3203"
   inkscape:connector-curvature="0"
   style="fill:#332c2b" />
  <path
   d="m 432,319 c -1,-2 -2,-3 -4,-2 -1,0 -2,2 -2,3 2,5 4,9 7,13 8,11 21,16 34,18 14,2 28,1 40,-3 7,-2 13,-5 17,-8 1,-1 2,-3 1,-4 -1,-1 -3,-1 -4,-1 -4,3 -9,6 -16,8 -11,3 -24,5 -37,3 -12,-2 -24,-7 -31,-16 -2,-4 -4,-7 -5,-11 z"
   id="path3205"
   inkscape:connector-curvature="0"
   style="fill:#332c2b;fill-rule:nonzero" />
  <ellipse
   cx="318"
   cy="211"
   rx="16"
   ry="17"
   id="ellipse3207"
   d="m 334,211 c 0,9.38884 -7.16344,17 -16,17 -8.83656,0 -16,-7.61116 -16,-17 0,-9.38884 7.16344,-17 16,-17 8.83656,0 16,7.61116 16,17 z"
   sodipodi:cx="318"
   sodipodi:cy="211"
   sodipodi:rx="16"
   sodipodi:ry="17"
   style="fill:#332c2b" />
  <path
   d="m 417,667 122,-43 c -40,61 -29,94 -47,110 -18,16 -50,-6 -57,-31 -7,-25 -18,-36 -18,-36 z"
   id="path3209"
   inkscape:connector-curvature="0"
   style="fill:#fefefe" />
  <path
   d="m 539,624 c -40,61 -29,94 -47,110 -18,16 -50,-6 -57,-31 -7,-25 -18,-36 -18,-36"
   id="path3211"
   inkscape:connector-curvature="0"
   style="fill:none;stroke:#332c2b;stroke-width:10.37059975;stroke-linecap:round;stroke-linejoin:round" />
  <path
   d="m 237,671 -94,-98 c 0,0 -5,109 9,142 23,58 74,-23 85,-44 z"
   id="path3213"
   inkscape:connector-curvature="0"
   style="fill:#fefefe" />
  <path
   d="m 143,573 c 0,0 -5,109 9,142 23,58 74,-23 85,-44"
   id="path3215"
   inkscape:connector-curvature="0"
   style="fill:none;stroke:#332c2b;stroke-width:10.37059975;stroke-linecap:round;stroke-linejoin:round" />
 </g>
</svg>