<svg version="1.1" width="444" height="397" xmlns="http://www.w3.org/2000/svg" xmlns:xlink="http://www.w3.org/1999/xlink">
  <!-- Exported by Scratch - http://scratch.mit.edu/ -->
  <g id="g5" transform="matrix(0.396982878446579, 0, 0, 0.396982878446579, 0.25, 0.65)">
    <path id="path7" stroke="#000000" stroke-width="0.036" d="M 2.742 115.170 C 10.296 105.727 24.184 101.506 36.072 98.172 C 48.072 94.950 62.293 92.061 73.959 95.728 C 85.624 99.395 100.955 109.949 105.289 120.059 C 109.510 130.281 101.844 145.613 99.400 155.944 C 96.846 166.277 91.623 173.165 90.400 181.387 C 89.290 189.497 90.512 197.719 92.400 204.717 C 94.290 211.829 97.400 217.827 101.844 223.161 L 101.844 223.161 C 107.954 221.160 113.843 219.605 120.732 219.717 C 127.174 219.274 133.174 219.493 141.731 222.161 C 150.285 224.940 160.395 232.716 171.615 235.159 C 182.615 237.272 196.059 236.937 206.389 234.159 C 216.167 230.826 224.164 224.828 230.385 215.718 L 230.385 215.718 L 255.273 235.159 L 255.273 235.159 C 248.718 237.603 244.053 241.715 241.275 246.603 C 238.165 251.491 240.164 258.046 238.276 265.046 C 236.052 271.821 233.497 279.601 229.385 287.934 L 229.385 287.934 C 235.831 290.378 240.940 294.489 243.830 299.377 C 246.605 304.153 248.052 310.597 247.275 317.818 L 247.275 317.818 C 253.830 314.596 259.160 313.596 263.718 314.820 C 268.159 316.040 272.493 321.375 273.713 325.262 C 274.826 328.705 273.494 332.817 270.161 336.705 L 270.161 336.705 C 270.938 341.481 270.938 345.149 270.161 348.148 C 268.937 350.923 267.269 352.924 264.715 354.148 C 262.159 355.035 258.825 355.035 254.718 354.148 L 254.718 354.148 C 254.495 359.591 252.828 363.590 249.718 366.588 C 246.385 369.367 240.608 371.589 235.830 371.146 C 230.607 370.588 223.497 367.924 221.387 363.147 C 219.610 357.812 223.610 348.148 224.387 342.258 C 224.830 336.369 225.496 332.482 223.829 329.260 C 221.944 325.815 218.165 323.483 212.944 322.263 L 212.944 322.263 C 212.388 331.369 211.055 338.370 208.943 343.702 C 206.611 349.148 203.611 351.924 199.500 353.702 L 199.500 353.702 C 206.944 356.592 212.055 359.923 213.944 364.144 C 215.720 368.255 213.720 375.034 211.388 378.032 C 208.832 380.699 205.166 381.699 199.944 380.588 L 199.944 380.588 C 199.389 385.699 197.945 389.476 196.502 391.476 C 194.945 393.255 192.500 393.476 190.057 393.032 C 187.280 392.698 183.947 390.810 180.059 388.587 L 180.059 388.587 C 178.169 394.033 175.170 396.254 171.059 396.478 C 166.726 396.478 158.726 393.699 155.172 388.587 C 151.616 383.256 147.617 372.590 149.616 365.147 C 151.393 357.259 160.726 348.815 165.614 343.259 C 170.058 337.484 175.725 335.481 177.058 331.262 C 178.168 326.705 176.836 322.040 173.058 316.818 L 173.058 316.818 C 169.725 319.927 165.726 321.928 160.615 322.818 C 155.615 323.707 149.506 323.373 142.728 322.264 L 142.728 322.264 L 145.171 327.260 L 145.171 327.260 C 150.059 327.371 153.394 328.705 155.171 331.705 C 156.947 334.592 156.947 341.925 155.615 344.704 C 154.060 347.147 150.616 347.813 145.728 346.704 L 145.728 346.704 C 146.172 350.481 146.282 353.479 145.171 355.704 C 143.949 357.591 141.283 358.926 139.727 359.703 C 137.951 360.258 136.284 360.258 134.729 359.703 L 134.729 359.703 C 130.174 363.925 126.619 366.035 122.730 365.589 C 118.507 364.923 114.174 360.700 112.286 357.147 C 110.397 353.480 111.398 348.037 112.286 344.261 C 113.064 340.150 116.174 338.037 117.285 333.706 C 118.063 329.371 118.063 323.926 117.285 317.817 L 117.285 317.817 C 115.175 316.373 113.175 315.039 111.285 313.817 C 109.175 312.263 107.175 310.927 105.286 309.373 L 105.286 309.373 C 104.953 316.485 103.619 322.482 100.842 327.817 C 98.175 332.706 93.509 337.705 88.954 340.703 C 83.954 343.814 78.288 345.480 71.511 346.146 L 71.511 346.146 C 75.399 351.369 77.622 355.592 76.954 360.146 C 76.288 364.369 71.621 370.034 68.511 371.589 C 65.067 373.032 62.290 371.589 58.511 368.144 L 58.511 368.144 C 57.400 371.700 55.401 373.703 52.512 374.145 C 49.290 374.369 45.735 373.033 40.624 370.146 L 40.624 370.146 C 38.512 373.703 36.401 375.811 33.070 376.035 C 29.737 376.146 24.070 374.811 21.626 371.590 C 18.959 368.036 16.626 360.700 17.181 355.147 C 17.404 349.481 15.738 343.815 24.181 337.260 C 32.736 330.038 59.845 323.372 66.956 313.818 C 73.621 303.930 63.399 290.486 64.512 279.931 C 65.289 269.045 68.399 259.489 72.955 250.046 L 72.955 250.046 C 64.400 237.379 59.733 224.604 58.511 211.270 C 57.067 197.717 63.955 182.496 65.955 170.387 C 68.066 157.833 72.732 146.055 70.510 138.501 C 67.400 130.502 58.290 125.614 50.512 125.058 C 42.512 124.835 32.181 133.946 24.625 136.057 C 16.959 137.835 10.960 137.501 5.739 135.501 L 5.739 135.501 C 5.743 135.502 -4.813 124.503 2.742 115.170 L 2.742 115.170 Z "/>
    <path id="path9" fill="#a16121" stroke="#000000" stroke-width="0.036" d="M 222.274 227.383 C 221.945 228.381 221.722 230.605 222.056 233.604 C 222.163 236.714 223.941 243.158 223.163 245.602 C 222.386 247.492 219.276 246.714 216.388 245.382 C 212.833 243.715 208.944 241.382 203.499 237.160 L 203.499 237.160 C 207.057 236.825 210.610 235.936 213.721 234.492 C 216.722 232.715 219.723 230.494 222.274 227.383 L 222.274 227.383 Z "/>
    <path id="path11" fill="#a16121" stroke="#000000" stroke-width="0.036" d="M 198.612 238.269 C 199.390 240.271 199.390 243.158 198.168 247.380 C 196.725 251.714 193.503 260.378 191.059 263.046 C 188.059 265.155 184.392 264.488 181.836 260.602 C 179.393 256.491 177.393 249.270 176.282 238.939 L 176.282 238.939 C 180.393 239.493 183.948 239.936 187.837 239.825 C 191.502 239.716 194.946 239.047 198.612 238.269 L 198.612 238.269 Z "/>
    <path id="path13" fill="#a16121" stroke="#000000" stroke-width="0.036" d="M 169.394 237.827 C 169.949 241.491 168.394 246.271 165.172 252.157 C 161.839 257.603 153.284 270.267 149.729 272.157 C 145.951 273.823 143.731 268.713 143.063 263.269 C 142.397 257.380 144.840 246.271 145.285 239.825 C 145.397 233.382 144.952 229.271 143.952 226.272 L 143.952 226.272 C 148.063 229.051 152.062 231.272 156.396 233.382 C 160.839 235.271 164.616 236.603 169.394 237.827 L 169.394 237.827 Z "/>
    <path id="path15" fill="#a16121" stroke="#000000" stroke-width="0.036" d="M 136.619 224.717 C 135.729 227.827 133.730 231.383 131.064 235.825 C 128.285 239.825 123.286 249.601 120.286 250.159 C 117.064 250.491 114.397 242.161 111.843 238.493 C 108.731 234.382 105.845 230.383 102.733 226.495 L 102.733 226.495 C 107.954 224.940 112.399 224.051 116.508 223.385 C 120.619 222.608 123.286 222.384 127.064 222.716 C 130.508 222.827 133.397 223.493 136.619 224.717 L 136.619 224.717 Z "/>
    <path id="path17" fill="#a16121" stroke="#000000" stroke-width="0.036" d="M 98.065 230.271 C 96.511 229.939 94.956 231.048 92.178 233.604 C 89.734 236.048 84.623 240.825 82.401 244.493 C 79.957 247.492 77.625 250.825 76.624 253.269 L 76.624 253.269 C 81.068 255.159 85.512 256.714 89.511 257.492 C 93.733 258.269 98.954 260.714 100.954 257.935 C 102.400 254.825 99.178 243.715 98.954 239.159 C 98.289 234.270 98.289 231.715 98.065 230.271 L 98.065 230.271 Z "/>
    <path id="path19" fill="#a16121" stroke="#000000" stroke-width="0.036" d="M 74.625 256.825 C 72.958 260.825 71.070 265.047 70.181 269.489 C 69.181 273.935 67.959 278.265 67.737 282.934 L 67.737 282.934 C 78.070 281.378 84.291 279.266 86.846 276.599 C 89.067 273.269 84.734 269.266 82.846 265.936 C 80.846 262.491 77.958 259.601 74.625 256.825 L 74.625 256.825 Z "/>
    <path id="path21" fill="#a16121" stroke="#000000" stroke-width="0.036" d="M 233.164 292.710 C 232.274 296.044 231.721 299.153 230.273 302.487 C 228.607 305.374 224.831 310.485 225.385 311.817 C 225.943 313.152 231.050 310.709 234.272 310.040 C 237.163 308.708 239.831 307.375 242.718 305.151 L 242.718 305.151 C 242.386 302.376 241.496 300.154 240.050 298.042 C 238.495 295.821 236.052 294.042 233.164 292.710 L 233.164 292.710 Z "/>
    <path id="path23" fill="#a16121" stroke="#000000" stroke-width="0.036" d="M 209.723 325.929 C 208.279 326.483 205.946 327.372 203.946 328.151 C 201.614 328.927 195.724 328.819 196.170 330.818 C 196.393 332.595 199.502 334.816 205.503 338.373 L 205.503 338.373 C 200.392 337.038 197.503 337.485 196.837 339.705 C 196.170 341.595 197.725 345.260 201.502 350.705 L 201.502 350.705 C 204.503 347.038 206.723 343.373 208.169 339.263 C 209.610 335.040 209.834 330.594 209.723 325.929 L 209.723 325.929 Z "/>
    <path id="path25" fill="#a16121" stroke="#000000" stroke-width="0.036" d="M 74.846 343.484 C 73.736 337.485 73.736 333.708 74.846 331.707 C 76.069 329.373 77.846 331.372 80.624 331.264 C 82.847 331.153 85.735 331.372 88.846 331.485 L 88.846 331.485 C 87.513 326.152 85.957 322.153 85.068 318.597 C 83.736 314.932 79.402 311.930 82.402 310.930 C 85.512 309.933 92.068 310.153 102.954 312.042 L 102.954 312.042 C 101.844 318.708 100.288 324.374 97.845 328.597 C 95.289 332.708 92.290 335.152 88.401 337.707 C 84.290 340.262 80.179 342.037 74.846 343.484 L 74.846 343.484 Z "/>
    <path id="path27" fill="#ffc080" stroke="#000000" stroke-width="0.036" d="M 67.514 285.490 C 68.847 290.487 69.958 294.598 70.847 298.709 C 71.515 302.600 72.736 305.152 71.958 308.932 C 71.180 312.154 69.404 316.820 66.183 319.929 C 62.738 322.820 57.183 324.709 52.072 327.262 C 46.406 329.597 39.185 332.261 34.297 334.817 C 29.186 337.374 24.741 338.706 22.630 343.040 C 20.186 347.263 20.074 355.596 20.630 360.261 C 20.630 364.815 22.741 367.928 24.852 370.037 C 26.740 371.703 31.295 372.150 33.852 371.369 C 36.629 369.926 38.628 367.258 40.295 363.816 C 41.628 360.372 41.850 356.149 41.405 351.150 L 41.405 351.150 C 42.850 353.593 43.516 356.261 43.850 359.148 C 44.183 361.816 43.740 364.706 42.960 367.815 L 42.960 367.815 C 44.738 369.371 46.293 369.703 48.516 370.037 C 50.404 369.926 53.405 369.482 54.960 368.260 C 56.294 366.928 56.403 365.150 56.515 362.928 C 56.515 360.485 55.293 357.594 54.071 354.260 L 54.071 354.260 C 56.182 355.816 57.737 357.594 58.738 359.595 C 59.515 361.372 59.960 363.817 59.627 366.038 L 59.627 366.038 C 61.404 367.705 63.294 368.147 65.293 368.260 C 67.182 368.148 69.737 367.258 71.292 365.592 C 72.515 363.817 73.736 360.372 73.736 357.816 C 73.292 355.039 71.958 352.375 70.626 349.819 C 68.959 346.816 67.626 344.042 65.738 341.485 C 63.738 338.929 62.071 336.263 59.849 333.929 L 59.849 333.929 C 62.627 335.375 64.960 336.931 66.849 338.598 C 68.627 340.040 69.959 341.820 70.848 343.486 L 70.848 343.486 L 73.293 343.262 L 73.293 343.262 C 72.182 337.817 71.959 334.375 72.182 331.708 C 71.849 329.152 72.294 328.263 74.403 328.152 C 76.626 327.820 80.625 328.040 86.403 329.263 L 86.403 329.263 C 83.959 323.486 81.626 319.374 80.626 316.041 C 79.515 312.487 77.516 311.042 78.849 309.598 C 79.737 308.155 82.181 307.489 86.182 307.600 C 90.292 307.376 95.514 308.043 102.735 309.155 L 102.735 309.155 C 103.291 304.598 103.291 300.156 103.624 295.822 C 103.512 291.157 102.735 282.601 103.401 282.158 C 103.845 281.600 105.735 287.378 106.513 291.823 C 106.846 295.933 106.846 300.822 106.068 306.931 L 106.068 306.931 C 107.512 308.709 110.179 310.264 114.067 312.042 C 117.956 313.374 122.955 315.375 129.511 316.707 C 135.842 317.597 145.398 318.820 151.729 319.039 C 157.840 319.039 160.952 318.263 165.396 317.153 C 169.284 315.817 172.839 314.485 175.617 312.265 L 175.617 312.265 C 177.617 315.263 179.172 318.485 179.838 321.929 C 180.616 325.374 181.617 328.596 179.838 332.818 C 177.729 336.819 170.951 341.260 167.173 346.148 C 162.729 350.593 157.840 355.148 155.508 359.817 C 153.398 364.258 152.508 368.146 153.285 372.703 C 153.618 376.927 155.285 382.812 157.840 386.145 C 160.285 389.146 164.618 391.144 167.840 391.702 C 170.506 392.034 173.507 391.144 175.173 389.478 C 176.616 387.480 177.284 383.812 177.173 381.036 C 176.840 377.923 175.285 375.479 172.951 372.481 L 172.951 372.481 C 176.063 373.369 178.840 375.147 180.062 377.369 C 181.172 379.591 181.950 382.368 181.172 385.702 L 181.172 385.702 C 184.173 387.701 186.727 388.812 189.282 389.035 C 191.727 388.812 194.172 387.701 195.726 386.145 C 196.838 384.478 197.616 381.925 196.838 379.702 C 196.171 377.480 193.949 374.701 191.061 372.258 L 191.061 372.258 C 193.060 372.150 194.838 372.592 196.394 373.593 C 197.837 374.590 198.727 375.703 199.503 377.815 L 199.503 377.815 C 203.169 378.813 206.058 378.370 208.170 376.480 C 210.169 374.259 211.948 369.371 211.725 366.481 C 211.059 363.593 207.837 360.372 205.504 358.928 C 203.169 357.038 200.949 355.483 197.060 355.595 C 192.836 355.483 187.395 356.149 180.728 358.038 L 180.728 358.038 C 181.284 356.927 182.618 356.037 184.727 355.371 C 186.727 354.482 190.504 353.816 193.060 353.369 C 195.392 352.593 197.171 351.927 198.837 351.371 L 198.837 351.371 C 196.281 347.928 194.504 344.929 193.949 342.815 C 193.281 340.262 193.505 338.485 194.615 337.485 C 195.391 336.261 196.281 335.817 198.170 336.152 L 198.170 336.152 C 194.948 333.708 193.393 331.929 193.060 330.375 C 192.727 328.928 193.393 328.039 196.394 327.262 C 199.282 326.152 203.726 324.818 210.169 323.708 L 210.169 323.708 C 209.392 316.707 210.058 311.042 212.169 305.486 C 213.947 299.820 219.169 295.487 222.276 291.264 C 224.945 287.044 227.165 284.377 229.386 279.824 C 231.722 274.379 234.386 267.157 236.053 261.602 C 237.053 256.267 236.276 251.714 237.164 248.380 C 237.942 244.824 240.052 243.157 242.275 240.824 C 244.385 238.381 247.276 236.159 250.940 234.158 L 250.940 234.158 L 231.387 219.827 L 231.387 219.827 C 230.721 220.828 230.055 221.937 228.942 223.160 C 227.830 224.272 226.721 225.493 225.166 226.825 L 225.166 226.825 C 224.944 230.604 224.944 233.938 225.166 237.271 C 225.387 240.158 226.387 244.269 226.056 246.159 C 225.279 247.936 223.612 248.823 221.056 248.823 C 218.167 248.603 212.614 246.270 209.502 244.824 C 206.057 243.049 203.946 241.270 201.947 239.047 L 201.947 239.047 C 201.835 243.157 201.169 247.048 199.946 251.937 C 198.503 256.491 196.725 264.046 194.170 266.933 C 191.170 269.489 186.280 268.935 183.393 267.823 C 180.171 266.491 178.727 263.600 176.948 259.159 C 175.172 254.382 173.839 247.827 172.949 239.493 L 172.949 239.493 C 168.950 252.157 164.950 261.602 160.507 267.823 C 155.840 273.935 149.508 276.379 146.174 276.491 C 142.508 276.156 141.286 271.602 140.396 266.715 C 139.619 261.380 140.174 253.047 140.842 246.380 C 140.953 239.606 141.396 232.939 141.731 226.383 L 141.731 226.383 L 139.063 225.494 L 139.063 225.494 C 136.953 232.161 134.508 237.716 131.286 242.603 C 127.731 247.603 123.065 253.493 119.843 254.269 C 116.732 254.269 114.733 249.046 112.066 245.047 C 109.067 241.048 105.510 236.382 101.844 230.605 L 101.844 230.605 C 101.178 232.272 101.400 235.159 102.067 239.716 C 102.400 244.381 105.733 253.269 105.622 257.380 C 105.733 260.824 105.400 262.045 101.622 262.268 C 97.400 262.380 90.400 261.044 80.624 258.269 L 80.624 258.269 C 83.735 260.491 86.401 263.157 88.180 266.267 C 89.735 269.046 91.846 272.934 91.069 275.821 C 89.512 278.489 86.402 280.711 82.179 282.488 C 78.179 284.042 73.291 285.043 67.514 285.490 L 67.514 285.490 Z "/>
    <path id="path29" fill="#a16121" stroke="#000000" stroke-width="0.036" d="M 74.401 247.714 C 77.846 242.380 81.401 237.826 85.511 234.050 C 89.289 229.939 93.621 226.606 98.065 224.050 L 98.065 224.050 L 94.066 217.827 L 94.066 217.827 C 88.957 217.161 84.178 216.937 79.290 218.050 C 74.291 218.939 69.403 220.717 64.624 223.384 L 64.624 223.384 C 65.514 226.715 66.624 230.493 68.402 234.716 C 69.958 238.604 71.957 242.937 74.401 247.714 L 74.401 247.714 Z "/>
    <path id="path31" fill="#ffc080" stroke="#000000" stroke-width="0.036" d="M 64.403 219.605 C 66.736 218.050 70.290 216.717 75.069 216.051 C 79.845 215.162 85.511 214.939 92.511 214.939 L 92.511 214.939 C 91.512 213.272 91.178 211.495 90.623 210.051 C 89.956 208.495 89.956 206.829 89.733 205.494 L 89.733 205.494 C 87.511 203.496 85.066 201.275 82.400 199.720 C 79.511 197.719 76.623 195.941 73.290 194.830 C 69.623 193.719 66.623 193.496 62.624 193.719 L 62.624 193.719 C 61.734 198.831 60.957 203.050 61.513 207.607 C 61.959 211.829 62.515 215.829 64.403 219.605 L 64.403 219.605 Z "/>
    <path id="path33" fill="#a16121" stroke="#000000" stroke-width="0.036" d="M 63.958 189.497 C 64.515 187.609 64.958 184.831 65.736 182.388 C 66.290 179.388 67.180 176.721 67.957 173.166 L 67.957 173.166 C 70.179 174.055 73.068 175.722 76.179 178.166 C 79.512 180.610 82.512 183.166 86.845 187.054 L 86.845 187.054 C 86.845 189.942 86.622 192.387 87.067 194.831 C 87.290 197.054 87.734 199.052 88.400 200.830 L 88.400 200.830 C 84.957 196.942 81.401 194.275 77.290 192.387 C 73.069 190.498 68.625 189.386 63.958 189.497 L 63.958 189.497 Z "/>
    <path id="path35" fill="#ffc080" stroke="#000000" stroke-width="0.036" d="M 87.067 183.054 C 85.290 180.721 83.067 179.054 79.957 176.831 C 76.735 174.610 72.957 172.499 68.625 170.499 L 68.625 170.499 L 70.402 163.388 L 70.402 163.388 C 74.179 161.388 78.179 160.278 82.401 159.611 C 86.734 158.945 90.844 158.723 95.622 159.389 L 95.622 159.389 C 93.067 164.611 90.956 169.054 89.734 173.165 C 88.289 177.276 87.401 180.165 87.067 183.054 L 87.067 183.054 Z "/>
    <path id="path37" fill="#a16121" stroke="#000000" stroke-width="0.036" d="M 71.514 159.389 C 73.958 157.834 77.290 156.500 81.512 155.832 C 85.512 155.166 90.512 154.722 96.066 154.945 L 96.066 154.945 C 98.289 149.724 99.622 145.835 100.954 142.391 C 101.844 138.946 102.733 136.502 102.733 134.612 L 102.733 134.612 C 97.956 134.390 92.956 135.056 88.179 137.058 C 83.291 139.058 78.179 141.835 73.291 146.278 L 73.291 146.278 C 72.735 148.057 72.847 150.056 72.402 152.278 C 71.847 154.278 71.957 156.945 71.514 159.389 L 71.514 159.389 Z "/>
    <path id="path39" fill="#ffc080" stroke="#000000" stroke-width="0.036" d="M 73.735 140.502 C 76.735 137.169 80.513 134.724 85.511 133.169 C 90.289 131.614 96.177 130.503 103.176 130.725 L 103.176 130.725 C 104.399 127.948 104.399 125.171 103.176 121.949 C 101.843 118.726 98.954 115.394 94.955 111.949 L 94.955 111.949 C 89.510 111.728 84.956 113.060 80.845 116.393 C 76.402 119.837 73.290 124.281 70.179 131.391 L 70.179 131.391 C 71.402 132.836 72.512 134.391 73.068 136.058 C 73.514 137.613 73.735 138.946 73.735 140.502 L 73.735 140.502 Z "/>
    <path id="path41" fill="#a16121" stroke="#000000" stroke-width="0.036" d="M 68.625 128.837 C 68.625 128.392 68.180 127.948 66.847 127.059 C 65.514 126.169 63.292 125.280 60.624 123.948 L 60.624 123.948 C 61.958 119.060 62.402 114.393 62.402 109.949 C 62.291 105.394 61.292 101.171 59.846 96.839 L 59.846 96.839 C 64.513 96.727 68.624 97.617 72.623 98.617 C 76.289 99.727 79.844 101.282 82.844 103.282 C 85.510 104.728 88.177 106.282 89.954 107.949 L 89.954 107.949 C 85.510 108.504 82.066 111.059 78.400 114.392 C 74.736 117.615 71.624 122.836 68.625 128.837 L 68.625 128.837 Z "/>
    <path id="path43" fill="#ffc080" stroke="#000000" stroke-width="0.036" d="M 56.959 123.059 C 58.292 120.725 59.181 117.615 59.181 113.282 C 58.958 108.615 58.292 103.615 56.737 96.951 L 56.737 96.951 C 51.626 97.395 47.627 97.950 44.738 98.618 C 41.738 98.951 39.516 99.950 38.515 100.394 L 38.515 100.394 C 36.849 102.728 35.738 105.617 35.182 109.060 C 34.404 112.393 34.627 117.393 34.960 120.615 C 35.182 123.504 35.849 125.724 36.960 126.837 L 36.960 126.837 C 41.404 123.948 44.959 122.726 48.515 121.949 C 51.626 121.060 54.738 121.837 56.959 123.059 L 56.959 123.059 Z "/>
    <path id="path45" fill="#a16121" stroke="#000000" stroke-width="0.036" d="M 35.627 100.617 C 32.628 103.173 30.850 106.949 30.738 111.504 C 30.405 116.060 31.739 121.393 34.295 127.948 L 34.295 127.948 C 29.851 130.948 26.073 132.836 21.295 133.614 C 16.407 134.281 9.742 134.281 6.853 132.281 C 3.741 129.725 2.409 124.171 3.741 120.393 C 4.630 116.505 8.630 113.172 13.963 109.950 C 19.407 106.616 26.184 103.506 35.627 100.617 L 35.627 100.617 Z "/>
    <path id="path47" fill="#ffc080" stroke="#000000" stroke-width="0.036" d="M 140.618 322.373 L 142.841 327.596 L 142.841 327.596 C 138.397 329.929 135.064 332.151 132.841 334.263 C 130.286 336.372 128.953 338.039 128.397 339.705 L 128.397 339.705 C 132.064 336.819 135.175 334.040 138.173 332.596 C 140.729 330.595 143.063 329.373 145.173 329.373 C 147.285 329.263 148.951 330.040 150.618 331.707 C 151.728 332.708 153.174 335.151 153.617 337.262 C 153.729 339.152 153.396 342.707 152.174 344.040 C 150.730 345.482 148.507 345.372 145.507 344.929 L 145.507 344.929 C 145.174 343.485 144.730 342.150 144.175 341.371 C 143.398 340.263 142.618 339.594 141.396 339.373 L 141.396 339.373 C 142.508 342.261 143.063 344.706 143.507 346.706 C 143.618 348.262 143.507 349.594 143.174 351.149 C 142.174 352.703 141.508 354.482 139.952 356.037 C 138.730 356.927 136.619 357.814 134.841 357.814 L 134.841 357.814 C 134.508 355.482 134.064 353.369 133.509 351.926 C 132.952 350.370 131.953 349.038 130.953 348.372 L 130.953 348.372 C 132.176 352.926 132.286 356.371 131.286 358.703 C 130.287 360.813 127.175 362.260 124.955 362.148 C 122.066 361.814 118.288 359.038 116.622 356.813 C 114.955 353.925 114.622 350.370 115.178 347.482 C 115.067 344.370 117.178 342.372 118.067 339.704 C 118.622 337.037 119.956 334.705 120.289 331.483 C 120.512 327.929 120.512 323.596 120.289 318.484 L 120.289 318.484 C 124.511 319.708 128.178 320.485 131.733 321.262 C 134.951 321.929 138.063 322.152 140.618 322.373 L 140.618 322.373 Z "/>
    <path id="path49" fill="#ffc080" stroke="#000000" stroke-width="0.036" d="M 228.275 288.489 C 226.163 290.379 224.276 292.711 222.164 295.487 C 219.833 298.043 217.167 301.264 215.834 304.266 C 214.166 307.041 213.389 309.597 213.056 312.375 C 212.500 314.820 212.613 317.484 212.946 319.928 L 212.946 319.928 C 217.168 320.262 220.610 321.594 223.276 323.485 C 225.720 325.375 227.830 327.595 228.387 331.818 C 228.608 335.594 226.276 341.594 225.610 346.814 C 224.608 351.703 222.275 357.927 223.719 361.591 C 225.278 365.036 230.721 367.037 234.496 367.592 C 238.275 367.814 241.497 367.368 245.051 365.036 C 247.718 362.591 251.163 358.037 252.383 354.370 C 253.273 350.370 253.161 346.037 251.606 343.149 C 250.050 340.150 247.276 338.816 243.273 337.926 L 243.273 337.926 C 246.163 336.594 248.608 336.370 250.608 337.260 C 252.383 337.926 253.719 339.816 254.607 342.483 C 255.273 344.705 255.605 347.703 255.163 351.482 L 255.163 351.482 C 257.161 352.372 259.385 352.483 261.383 351.814 C 263.496 351.148 265.940 348.815 267.384 346.925 C 268.161 344.369 268.050 341.259 267.495 338.484 C 266.718 335.481 265.494 332.483 263.385 330.817 C 261.164 329.150 258.161 328.372 254.386 328.484 L 254.386 328.484 C 256.495 327.594 258.385 327.152 260.494 327.594 C 262.384 327.818 264.162 328.595 265.828 329.927 C 267.271 331.039 268.161 332.594 268.939 334.592 L 268.939 334.592 C 271.382 332.594 272.382 330.373 271.937 327.929 C 271.382 325.038 268.827 320.596 266.383 318.819 C 263.384 317.152 260.162 316.706 256.717 317.484 C 253.053 317.484 249.274 318.595 245.828 321.262 C 242.495 323.926 239.273 328.150 236.609 333.926 L 236.609 333.926 C 236.497 331.151 237.385 328.484 238.831 325.928 C 240.273 323.260 242.495 320.704 245.496 318.261 L 245.496 318.261 C 245.162 315.816 244.938 313.484 244.830 311.706 C 244.385 309.596 244.053 307.929 243.830 306.708 L 243.830 306.708 C 238.607 309.818 234.720 311.816 231.274 313.151 C 227.829 314.483 224.276 314.595 223.610 313.929 C 222.498 312.485 224.276 308.929 225.497 306.262 C 226.163 303.374 228.719 300.261 229.719 297.817 C 230.721 295.485 231.163 292.928 231.497 291.374 L 231.497 291.374 C 230.831 291.043 230.273 290.153 229.831 289.931 C 229.053 289.600 228.941 288.711 228.275 288.489 L 228.275 288.489 Z "/>
    <path id="path51" stroke="#000000" stroke-width="0.036" d="M 46.737 90.396 C 47.070 91.729 47.738 92.396 48.293 94.507 C 48.849 96.062 49.293 99.617 50.071 100.950 C 50.849 102.061 51.515 102.839 52.071 101.949 C 52.071 100.284 51.960 96.507 51.294 93.618 C 50.293 90.618 48.294 86.841 47.406 85.729 C 45.961 84.618 44.960 86.062 44.850 87.062 C 44.405 87.728 46.183 88.840 46.737 90.396 L 46.737 90.396 Z "/>
    <path id="path53" stroke="#000000" stroke-width="0.036" d="M 40.406 91.285 C 40.739 92.284 41.183 93.061 41.738 94.840 C 42.073 96.284 42.739 99.173 43.295 100.506 C 43.961 101.395 44.406 102.394 45.072 101.395 C 45.072 100.173 44.850 96.284 44.406 94.062 C 43.406 91.506 41.850 88.061 40.961 87.174 C 39.629 86.396 38.740 87.395 38.740 88.396 C 38.516 88.951 39.628 90.063 40.406 91.285 L 40.406 91.285 Z "/>
    <path id="path55" stroke="#000000" stroke-width="0.036" d="M 54.403 204.497 C 55.625 203.939 56.626 203.719 58.626 203.385 C 60.071 202.942 63.959 202.607 65.181 202.384 C 66.403 201.718 67.403 200.940 66.403 200.498 C 65.070 200.052 60.737 199.720 58.070 200.386 C 54.960 201.164 51.072 201.718 49.850 203.274 C 48.738 203.940 49.627 205.718 50.849 206.052 C 51.293 206.275 53.181 204.608 54.403 204.497 L 54.403 204.497 Z "/>
    <path id="path57" stroke="#000000" stroke-width="0.036" d="M 54.515 210.940 C 55.515 210.494 56.626 210.163 58.293 209.940 C 59.848 209.497 62.626 209.386 64.070 209.162 C 65.181 208.496 65.958 207.607 65.181 207.384 C 63.625 206.830 60.292 206.941 57.736 207.273 C 55.182 207.719 51.404 208.607 50.627 209.940 C 49.849 210.606 50.292 211.941 51.514 212.273 C 52.070 212.272 53.071 211.271 54.515 210.940 L 54.515 210.940 Z "/>
    <path id="path59" stroke="#000000" stroke-width="0.036" d="M 233.941 260.602 C 234.942 260.713 236.385 260.602 238.275 261.157 C 240.050 261.380 243.052 262.268 244.718 262.603 C 245.827 262.380 247.606 261.934 246.605 261.268 C 245.496 260.267 241.497 258.601 238.831 258.046 C 235.831 257.380 231.497 257.156 230.165 257.822 C 228.387 258.380 229.385 259.935 230.165 260.824 C 231.051 261.157 232.164 260.491 233.941 260.602 L 233.941 260.602 Z "/>
    <path id="path61" stroke="#000000" stroke-width="0.036" d="M 231.721 266.714 C 232.610 266.490 234.054 266.933 235.609 267.156 C 237.276 267.380 239.608 268.268 241.275 268.488 C 242.275 268.377 243.831 267.822 242.941 267.267 C 242.053 266.266 238.165 265.045 236.052 264.488 C 233.276 264.046 229.719 263.822 228.387 264.268 C 226.833 264.377 227.829 266.378 228.387 266.822 C 228.719 266.714 230.385 266.823 231.721 266.714 L 231.721 266.714 Z "/>
    <path id="path63" stroke="#000000" stroke-width="0.036" d="M 265.161 317.041 C 265.717 316.265 267.270 314.932 268.606 314.264 C 270.049 313.154 273.047 311.376 274.161 310.598 C 275.159 309.598 275.382 307.820 274.380 308.266 C 272.938 308.709 268.826 309.709 266.717 311.708 C 264.161 313.266 261.272 316.487 260.605 317.931 C 259.716 319.152 261.830 319.821 262.718 319.929 C 263.161 319.596 264.272 317.930 265.161 317.041 L 265.161 317.041 Z "/>
    <path id="path65" stroke="#000000" stroke-width="0.036" d="M 268.049 322.819 C 268.607 322.152 269.605 320.928 271.048 320.375 C 272.494 319.374 274.716 317.707 275.936 317.153 C 276.826 316.041 277.049 314.931 276.160 315.151 C 275.052 315.375 271.271 316.375 269.493 318.154 C 266.941 319.709 264.828 321.929 264.051 323.597 C 263.273 324.817 265.052 325.263 265.940 325.374 C 266.271 325.151 267.271 323.597 268.049 322.819 L 268.049 322.819 Z "/>
    <path id="path67" stroke="#000000" stroke-width="0.036" d="M 34.628 327.819 C 35.405 328.707 36.404 329.373 37.627 331.041 C 38.849 332.150 40.406 335.264 41.849 336.152 C 42.850 336.929 44.182 337.373 44.182 336.261 C 43.627 334.593 41.849 331.152 40.071 328.927 C 38.294 326.483 34.517 324.039 33.406 323.373 C 31.739 322.707 31.406 324.597 31.516 325.595 C 31.295 326.263 33.739 326.707 34.628 327.819 L 34.628 327.819 Z "/>
    <path id="path69" stroke="#000000" stroke-width="0.036" d="M 29.184 331.263 C 29.851 331.929 30.739 332.707 31.851 334.039 C 32.850 335.373 34.184 337.484 35.405 338.596 C 36.404 339.262 37.405 339.593 37.516 338.704 C 36.960 337.484 35.627 334.039 33.960 332.260 C 32.295 330.039 29.184 327.819 28.073 327.261 C 26.740 326.706 26.183 328.372 26.406 329.262 C 26.407 329.705 28.185 330.375 29.184 331.263 L 29.184 331.263 Z "/>
    <path id="path71" stroke="#000000" stroke-width="0.036" d="M 335.153 94.506 C 337.155 91.617 341.375 88.840 347.821 86.173 C 354.265 83.284 364.373 80.063 373.483 78.284 C 381.928 76.174 392.036 75.730 399.592 75.285 C 407.258 74.617 412.925 74.841 418.256 75.507 C 423.032 75.730 426.589 75.397 428.921 77.951 C 431.255 80.062 431.700 83.617 431.477 89.839 C 430.811 96.061 428.479 105.949 426.147 114.837 C 423.590 123.280 419.592 132.836 416.702 140.502 C 413.148 147.501 410.259 153.500 407.147 157.611 C 403.815 161.501 402.036 163.833 398.372 164.611 C 394.704 165.167 390.150 163.833 385.150 161.056 L 385.150 161.056 C 383.707 147.168 378.818 135.280 370.485 124.059 C 361.817 112.949 350.485 102.949 335.153 94.506 L 335.153 94.506 Z "/>
    <path id="path73" fill="#ffc080" stroke="#000000" stroke-width="0.036" d="M 338.711 94.062 C 340.709 92.507 343.376 90.840 346.264 89.506 C 349.154 87.951 352.263 86.729 356.040 85.396 L 356.040 85.396 C 356.930 85.840 358.375 86.841 360.373 88.396 C 362.375 89.951 364.818 91.729 368.153 94.173 L 368.153 94.173 C 365.484 93.950 362.594 95.061 359.930 96.283 C 357.039 97.395 354.041 99.839 350.930 102.393 L 350.930 102.393 C 347.708 100.172 344.596 98.393 342.821 97.060 C 340.932 95.617 339.153 94.617 338.711 94.062 L 338.711 94.062 Z "/>
    <path id="path75" fill="#a16121" stroke="#000000" stroke-width="0.036" d="M 379.262 78.840 C 374.150 80.174 370.373 80.951 366.706 82.062 C 363.041 82.951 360.151 83.729 358.041 84.395 L 358.041 84.395 C 359.707 85.174 361.597 86.506 363.707 87.951 C 365.819 89.284 368.041 91.173 370.817 93.172 L 370.817 93.172 C 371.593 92.839 372.594 92.616 373.818 92.506 C 374.815 92.394 376.150 91.728 377.372 91.728 L 377.372 91.728 C 377.595 89.061 377.706 86.172 378.148 84.284 C 378.483 82.286 378.706 80.063 379.262 78.840 L 379.262 78.840 Z "/>
    <path id="path77" fill="#ffc080" stroke="#000000" stroke-width="0.036" d="M 387.148 77.952 C 385.592 77.952 384.149 78.064 383.260 78.285 C 382.038 78.175 381.261 78.730 380.927 78.730 L 380.927 78.730 C 380.593 80.063 380.150 81.951 380.037 83.953 C 379.706 85.953 379.706 88.174 379.595 90.618 L 379.595 90.618 C 381.928 90.173 383.706 90.063 385.816 89.840 C 387.482 89.507 389.038 89.507 390.927 89.396 C 392.814 89.174 394.815 89.286 397.370 89.286 L 397.370 89.286 C 396.480 87.619 394.703 85.841 393.259 83.953 C 391.705 82.063 389.261 80.063 387.148 77.952 L 387.148 77.952 Z "/>
    <path id="path79" fill="#a16121" stroke="#000000" stroke-width="0.036" d="M 390.150 77.619 C 393.037 77.063 396.036 76.730 400.038 76.619 C 403.702 76.509 409.369 76.619 412.814 76.953 C 415.700 76.953 418.256 77.286 420.035 77.508 C 421.925 77.619 423.591 78.064 425.034 78.397 L 425.034 78.397 C 422.148 79.286 419.593 80.508 416.924 81.618 C 414.147 82.619 411.483 83.952 409.369 85.175 C 406.925 86.174 404.927 88.730 403.815 89.396 C 402.482 90.173 402.148 89.729 401.482 89.286 C 400.370 88.286 399.038 86.286 397.924 85.064 C 396.370 83.619 395.481 82.508 394.037 81.286 C 392.483 79.951 391.594 78.729 390.150 77.619 L 390.150 77.619 Z "/>
    <path id="path81" fill="#ffc080" stroke="#000000" stroke-width="0.036" d="M 426.813 79.618 C 423.810 80.396 420.924 81.508 418.590 82.507 C 415.923 83.285 413.701 84.174 411.924 85.617 C 409.924 86.841 408.148 88.284 406.592 89.951 L 406.592 89.951 C 408.479 90.172 410.258 90.728 411.482 91.173 C 412.478 91.395 413.036 92.062 413.591 93.173 C 414.033 93.951 414.367 95.729 414.591 97.284 C 414.812 98.727 414.480 100.394 414.480 102.283 L 414.480 102.283 C 416.147 100.394 417.590 98.950 419.256 97.950 C 420.700 96.951 422.035 95.728 423.701 95.505 C 425.257 94.728 426.700 94.506 428.478 94.395 L 428.478 94.395 C 429.255 90.062 429.699 87.062 429.368 84.506 C 429.146 81.841 428.146 80.507 426.813 79.618 L 426.813 79.618 Z "/>
    <path id="path83" fill="#a16121" stroke="#000000" stroke-width="0.036" d="M 428.256 96.173 C 425.590 96.839 423.591 97.728 421.035 99.283 C 418.814 100.838 416.036 102.616 413.926 105.060 L 413.926 105.060 C 413.481 106.503 413.149 108.170 412.926 109.615 C 412.702 110.947 411.925 112.392 411.813 113.947 L 411.813 113.947 C 413.703 116.392 415.147 118.391 416.590 120.391 C 417.814 122.281 419.035 124.169 419.812 125.614 L 419.812 125.614 C 421.591 120.281 423.145 116.280 424.481 112.392 C 425.701 108.614 426.479 105.725 427.256 103.281 C 427.813 100.729 428.146 97.950 428.256 96.173 L 428.256 96.173 Z "/>
    <path id="path85" fill="#ffc080" stroke="#000000" stroke-width="0.036" d="M 419.257 127.280 L 415.924 135.836 L 415.924 135.836 C 413.926 135.945 412.260 136.169 410.035 136.502 C 408.037 136.835 405.481 136.613 403.260 137.058 L 403.260 137.058 C 405.369 132.724 406.925 129.058 408.369 125.615 C 409.593 122.059 410.704 118.948 411.259 116.281 L 411.259 116.281 C 412.926 118.392 414.481 120.392 415.924 122.281 C 417.147 124.059 418.257 125.725 419.257 127.280 L 419.257 127.280 Z "/>
    <path id="path87" fill="#a16121" stroke="#000000" stroke-width="0.036" d="M 415.481 137.613 C 414.034 140.057 412.702 142.835 411.482 145.502 C 409.924 147.946 408.148 151.501 407.037 153.612 C 405.593 155.167 405.147 156.501 404.037 157.611 C 402.926 158.833 401.259 159.834 399.927 161.056 L 399.927 161.056 L 395.482 149.390 L 395.482 149.390 C 396.925 147.613 398.261 145.723 399.481 144.168 C 400.481 142.502 401.371 141.168 402.149 139.725 L 402.149 139.725 C 403.926 139.613 405.924 139.392 408.149 139.059 C 410.370 138.502 412.814 138.168 415.481 137.613 L 415.481 137.613 Z "/>
    <path id="path89" fill="#ffc080" stroke="#000000" stroke-width="0.036" d="M 393.703 150.057 C 393.037 150.611 391.928 150.723 390.370 150.834 C 388.814 150.723 386.816 150.390 384.373 149.833 L 384.373 149.833 C 384.815 151.500 385.593 153.390 385.816 155.055 C 385.926 156.611 386.371 158.388 386.258 159.943 L 386.258 159.943 C 387.482 161.055 388.926 161.610 391.038 162.054 C 392.925 162.166 395.257 162.054 398.036 161.721 L 398.036 161.721 C 396.370 157.943 395.369 154.945 394.591 153.166 C 393.926 151.056 393.483 150.167 393.703 150.057 L 393.703 150.057 Z "/>
    <path id="path91" fill="#a16121" stroke="#000000" stroke-width="0.036" d="M 383.707 147.168 C 386.595 147.723 388.595 148.279 390.928 147.613 C 392.706 147.057 393.816 146.612 396.036 144.168 C 398.261 141.391 400.704 136.614 403.371 131.948 C 405.481 126.948 407.926 121.505 409.480 116.061 C 410.924 110.062 412.370 103.283 412.478 99.173 C 412.370 95.285 411.146 94.285 408.814 93.174 C 406.371 91.730 402.814 91.286 398.148 91.396 C 393.483 91.174 386.150 91.840 380.816 92.951 C 374.815 93.952 368.261 95.618 364.595 97.062 C 360.708 98.174 361.038 98.729 359.153 99.951 C 357.151 100.840 355.374 102.062 353.376 103.174 L 353.376 103.174 C 357.598 106.729 361.597 110.395 365.374 114.172 C 369.041 117.949 372.151 120.727 375.150 125.060 C 377.929 129.060 380.373 134.281 382.039 138.170 C 383.371 141.724 383.927 144.724 383.707 147.168 L 383.707 147.168 Z "/>
    <path id="path93" stroke="#000000" stroke-width="0.036" d="M 380.373 77.730 C 380.038 76.396 379.815 74.508 379.707 73.286 C 379.262 71.508 378.927 69.953 378.706 69.064 C 377.706 68.064 377.372 68.398 376.816 68.843 C 376.374 69.176 376.374 69.176 376.816 71.397 C 376.928 73.508 377.259 79.397 377.817 81.285 C 378.483 82.619 379.261 81.508 380.150 80.952 C 380.485 80.174 380.262 78.952 380.373 77.730 L 380.373 77.730 Z "/>
    <path id="path95" stroke="#000000" stroke-width="0.036" d="M 374.815 76.729 C 374.039 75.397 373.483 73.952 372.707 72.841 C 371.817 71.396 370.817 69.619 370.151 69.175 C 369.373 68.618 368.372 68.951 368.372 69.729 C 367.930 70.063 368.372 69.841 369.262 72.063 C 369.928 73.839 372.371 79.396 373.595 80.950 C 374.708 82.394 375.262 80.173 375.705 79.840 C 375.705 79.063 375.262 77.730 374.815 76.729 L 374.815 76.729 Z "/>
    <path id="path97" stroke="#000000" stroke-width="0.036" d="M 430.701 86.062 C 431.701 85.952 433.144 85.729 435.034 85.840 C 436.812 85.729 440.035 86.285 441.701 86.285 C 442.809 85.952 444.365 84.951 443.367 84.618 C 441.921 83.729 438.034 82.951 435.146 82.730 C 431.812 82.618 427.921 83.172 426.478 83.952 C 425.034 84.395 426.035 86.506 426.923 86.841 C 427.813 86.841 428.922 86.285 430.701 86.062 L 430.701 86.062 Z "/>
    <path id="path99" stroke="#000000" stroke-width="0.036" d="M 429.479 92.395 C 430.589 92.284 431.477 92.062 433.368 92.172 C 434.923 92.062 437.698 92.616 439.145 92.616 C 440.366 92.394 441.254 91.617 440.588 91.173 C 439.477 90.172 435.812 89.618 433.480 89.506 C 430.701 89.285 427.144 89.618 425.812 90.505 C 424.591 90.840 425.589 92.839 426.257 93.061 C 426.590 92.950 428.368 92.728 429.479 92.395 L 429.479 92.395 Z "/>
    <path id="path101" stroke="#000000" stroke-width="0.036" d="M 263.938 65.175 C 263.828 61.620 261.495 56.843 257.829 51.287 C 253.720 45.400 246.829 36.845 240.609 30.734 C 234.165 24.179 226.276 18.402 220.389 13.846 C 214.055 9.181 208.945 6.181 204.614 3.958 C 200.058 1.514 197.170 -0.596 194.281 0.182 C 191.059 0.515 188.504 3.515 185.726 8.737 C 182.504 14.070 179.059 23.846 176.615 32.511 C 174.059 40.844 171.615 51.177 170.504 59.176 C 169.283 66.842 168.504 73.508 169.061 78.730 C 169.394 83.730 169.727 86.730 172.616 89.396 C 175.505 91.729 179.393 93.285 185.614 93.618 L 185.614 93.618 C 194.170 83.064 204.836 75.286 218.057 70.731 C 230.942 65.954 246.386 63.955 263.938 65.175 L 263.938 65.175 Z "/>
    <path id="path103" fill="#ffc080" stroke="#000000" stroke-width="0.036" d="M 261.163 62.954 C 259.938 60.398 259.050 57.732 257.272 54.955 C 255.384 51.955 253.830 49.177 251.385 46.177 L 251.385 46.177 C 250.161 46.177 248.383 46.066 246.051 46.289 C 243.384 46.289 240.162 46.510 236.385 46.955 L 236.385 46.955 C 238.607 48.511 240.384 50.177 242.162 53.177 C 243.718 55.621 245.271 59.399 246.385 63.287 L 246.385 63.287 C 250.384 63.398 253.606 62.954 256.050 63.175 C 258.494 62.842 260.050 63.175 261.163 62.954 L 261.163 62.954 Z "/>
    <path id="path105" fill="#a16121" stroke="#000000" stroke-width="0.036" d="M 235.496 27.958 C 238.831 31.734 241.717 34.623 244.161 37.512 C 246.605 40.179 248.607 42.400 250.162 44.178 L 250.162 44.178 C 248.160 43.955 245.938 44.067 243.495 44.067 C 241.051 44.067 237.718 44.400 234.720 44.623 L 234.720 44.623 C 233.942 43.956 233.388 43.068 232.610 42.400 C 231.833 41.622 230.943 40.623 229.943 39.845 L 229.943 39.845 C 231.387 37.400 232.387 35.178 233.388 33.179 C 234.385 31.179 234.942 29.290 235.496 27.958 L 235.496 27.958 Z "/>
    <path id="path107" fill="#ffc080" stroke="#000000" stroke-width="0.036" d="M 229.276 22.958 C 230.608 23.847 231.497 24.513 232.386 25.402 C 233.275 26.068 233.718 26.624 234.163 27.069 L 234.163 27.069 C 233.605 28.292 233.052 30.179 232.052 31.846 C 231.050 33.736 229.942 35.401 228.718 37.735 L 228.718 37.735 C 226.943 36.290 225.496 34.624 223.941 33.625 C 222.164 32.402 221.387 31.514 219.943 30.513 C 218.277 29.403 216.501 28.180 214.611 26.847 L 214.611 26.847 C 216.277 26.069 218.389 25.180 220.944 24.626 C 223.275 23.846 226.055 23.291 229.276 22.958 L 229.276 22.958 Z "/>
    <path id="path109" fill="#a16121" stroke="#000000" stroke-width="0.036" d="M 226.943 21.068 C 224.831 19.068 222.274 16.847 219.277 14.847 C 215.944 12.403 211.168 9.736 208.389 8.069 C 205.501 6.069 203.499 5.515 201.946 4.625 C 199.834 3.515 198.724 2.958 197.390 2.514 L 197.390 2.514 C 199.167 5.070 200.834 7.070 202.389 9.736 C 203.835 11.847 205.612 14.624 206.833 16.847 C 207.834 18.847 208.167 22.180 209.166 23.402 C 209.609 24.291 209.833 24.845 211.056 24.624 C 212.389 24.179 214.165 23.512 216.388 23.069 C 218.056 22.513 219.832 22.292 221.722 21.957 C 223.610 21.624 224.943 21.179 226.943 21.068 L 226.943 21.068 Z "/>
    <path id="path111" fill="#ffc080" stroke="#000000" stroke-width="0.036" d="M 195.169 2.626 C 197.058 5.070 198.835 7.403 200.502 9.624 C 201.946 11.514 203.391 13.735 204.390 15.846 C 205.390 17.846 205.946 20.180 206.501 22.401 L 206.501 22.401 C 204.723 21.402 202.724 20.846 201.724 20.735 C 200.391 20.402 199.725 20.735 198.835 21.291 C 197.613 21.735 196.725 22.846 195.724 24.179 C 194.836 25.178 193.836 26.735 193.170 28.402 L 193.170 28.402 C 192.725 26.068 192.168 23.846 191.502 22.180 C 190.835 20.290 190.058 18.958 189.170 17.737 C 188.280 16.291 186.836 15.070 185.726 14.070 L 185.726 14.070 C 187.169 10.069 188.726 7.180 190.391 5.403 C 191.725 3.625 193.724 2.292 195.169 2.626 L 195.169 2.626 Z "/>
    <path id="path113" fill="#a16121" stroke="#000000" stroke-width="0.036" d="M 185.060 15.736 C 186.615 17.736 188.169 19.512 189.280 22.292 C 190.503 24.736 191.281 27.623 192.058 30.956 L 192.058 30.956 C 191.281 32.512 191.169 33.845 190.502 35.400 C 190.169 36.733 189.279 38.288 189.059 39.622 L 189.059 39.622 C 185.947 40.622 183.837 41.400 181.503 42.399 C 179.060 43.177 177.615 44.177 175.949 44.955 L 175.949 44.955 C 176.948 39.734 178.170 35.067 179.171 31.400 C 180.061 27.289 180.838 24.957 181.949 22.291 C 182.948 19.736 183.836 17.403 185.060 15.736 L 185.060 15.736 Z "/>
    <path id="path115" fill="#ffc080" stroke="#000000" stroke-width="0.036" d="M 175.504 46.733 L 173.616 55.733 L 173.616 55.733 C 174.948 56.955 176.615 58.065 178.170 59.509 C 179.727 60.842 181.503 62.065 183.503 63.620 L 183.503 63.620 C 183.947 58.954 184.614 54.844 185.503 51.287 C 186.170 47.622 187.060 44.510 188.169 41.954 L 188.169 41.954 C 185.393 42.511 183.170 43.732 181.059 44.398 C 178.947 45.067 176.947 45.844 175.504 46.733 L 175.504 46.733 Z "/>
    <path id="path117" fill="#a16121" stroke="#000000" stroke-width="0.036" d="M 173.060 57.399 C 172.616 60.176 172.283 63.287 172.060 66.287 C 171.616 68.953 171.394 73.175 171.394 75.508 C 171.283 77.731 171.394 78.508 171.727 80.396 C 171.839 82.063 172.505 83.618 173.282 85.507 L 173.282 85.507 L 183.393 78.174 L 183.393 78.174 C 183.171 75.952 182.838 73.507 182.838 71.729 C 182.726 69.729 182.949 67.953 183.059 66.398 L 183.059 66.398 C 181.616 65.286 180.061 64.175 178.394 62.620 C 176.727 61.175 174.948 59.287 173.060 57.399 L 173.060 57.399 Z "/>
    <path id="path119" fill="#ffc080" stroke="#000000" stroke-width="0.036" d="M 184.504 79.730 C 184.725 80.286 185.503 81.508 186.836 82.174 C 187.946 82.731 189.948 83.952 192.392 84.618 L 192.392 84.618 C 190.615 85.617 189.392 86.951 188.281 88.173 C 187.060 89.285 185.947 90.729 185.393 92.062 L 185.393 92.062 C 183.726 92.284 181.836 92.172 180.171 91.285 C 178.170 90.396 176.282 89.174 174.504 87.174 L 174.504 87.174 C 177.615 84.840 180.393 83.064 181.948 81.841 C 183.725 80.396 184.280 79.841 184.504 79.730 L 184.504 79.730 Z "/>
    <path id="path121" fill="#a16121" stroke="#000000" stroke-width="0.036" d="M 194.391 82.840 C 191.392 81.841 189.725 80.619 188.169 79.173 C 186.614 77.507 185.837 76.618 185.837 73.507 C 185.280 69.841 185.726 64.508 186.279 59.286 C 186.724 53.621 188.058 48.065 189.836 42.622 C 191.502 36.845 194.169 30.178 196.612 26.845 C 198.502 23.735 200.167 23.290 202.834 23.846 C 205.612 24.068 208.501 25.513 212.723 28.179 C 216.722 30.512 221.723 34.956 226.386 38.956 C 230.831 42.844 234.943 47.955 237.829 51.287 C 240.051 54.065 239.607 54.731 240.831 56.732 C 241.717 58.621 242.719 60.398 243.830 62.509 L 243.830 62.509 C 238.052 63.175 232.719 64.064 227.829 65.175 C 222.722 66.064 218.166 67.176 213.722 68.952 C 208.834 70.619 203.946 73.731 200.724 76.175 C 197.391 78.507 195.279 80.729 194.391 82.840 L 194.391 82.840 Z "/>
    <path id="path123" stroke="#000000" stroke-width="0.036" d="M 242.606 34.956 C 243.495 33.957 245.050 33.290 246.385 32.512 C 247.606 31.401 249.049 30.735 250.273 30.512 C 251.163 30.512 251.494 30.956 251.716 31.846 C 251.605 32.179 250.939 32.179 249.718 33.513 C 247.828 34.846 243.163 38.180 241.716 39.179 C 240.162 39.623 239.718 37.846 240.384 37.290 C 240.273 36.400 241.608 35.623 242.606 34.956 L 242.606 34.956 Z "/>
    <path id="path125" stroke="#000000" stroke-width="0.036" d="M 247.052 38.623 C 248.273 38.178 249.719 37.844 251.386 37.622 C 252.829 37.399 254.607 36.512 255.828 37.066 C 256.383 37.399 256.940 37.955 256.604 38.733 C 256.274 38.956 255.938 38.956 254.272 39.622 C 252.163 40.288 246.385 41.733 244.718 42.178 C 242.940 41.845 243.606 40.511 244.160 39.845 C 244.272 39.066 245.828 38.956 247.052 38.623 L 247.052 38.623 Z "/>
    <path id="path127" stroke="#000000" stroke-width="0.036" d="M 177.727 34.178 C 176.503 34.178 175.504 34.512 174.282 34.734 C 172.727 35.067 170.171 35.511 169.170 36.067 C 167.948 35.955 166.727 35.622 167.615 35.067 C 168.393 34.068 171.282 32.846 173.726 32.290 C 175.616 31.624 179.503 31.512 180.726 31.957 C 181.615 31.957 181.170 33.735 180.726 34.290 C 179.836 34.178 178.837 34.290 177.727 34.178 L 177.727 34.178 Z "/>
    <path id="path129" stroke="#000000" stroke-width="0.036" d="M 179.615 38.956 C 178.504 38.956 177.615 39.289 176.503 39.511 C 175.171 39.622 172.837 40.400 172.059 40.623 C 170.836 40.623 169.949 40.178 170.727 39.734 C 171.393 38.845 173.726 37.734 176.060 37.289 C 178.060 36.733 180.948 36.622 182.170 36.956 C 182.836 37.066 182.724 38.623 182.280 39.066 C 181.502 38.956 180.614 39.066 179.615 38.956 L 179.615 38.956 Z "/>
    <path id="path131" stroke="#000000" stroke-width="0.036" d="M 171.838 79.618 C 170.282 79.841 168.837 80.174 167.504 80.618 C 165.839 80.618 163.949 81.395 163.060 81.173 C 162.061 80.507 161.950 79.951 162.283 79.506 C 162.173 78.952 162.839 79.062 164.727 78.619 C 166.505 77.730 172.504 76.175 174.171 76.063 C 175.615 76.063 174.948 77.507 174.727 78.284 C 174.394 78.619 172.727 79.063 171.838 79.618 L 171.838 79.618 Z "/>
    <path id="path133" stroke="#000000" stroke-width="0.036" d="M 298.934 70.619 C 292.271 68.843 287.271 67.398 282.603 65.843 C 277.495 63.955 274.380 61.843 269.050 59.953 C 263.272 57.509 256.275 54.176 248.942 53.399 C 241.275 52.732 231.275 54.176 224.497 55.955 C 217.612 57.288 214.724 58.955 208.945 63.066 C 202.724 67.066 196.059 73.620 189.392 80.175 C 182.504 86.730 175.837 93.840 169.838 101.949 C 163.729 109.505 157.951 117.838 154.284 126.948 C 150.285 135.837 147.285 145.614 147.063 155.833 C 146.396 165.722 146.284 175.722 152.285 186.276 C 158.062 196.276 171.506 208.385 182.725 217.050 C 193.615 225.494 203.836 230.272 218.501 236.938 C 233.275 243.381 251.829 251.715 269.384 255.937 C 286.493 259.826 305.490 262.158 320.378 260.826 C 334.711 258.936 345.485 252.382 355.708 245.938 C 365.708 239.160 372.595 230.826 379.815 221.827 C 386.705 212.720 393.594 203.275 397.037 192.276 C 400.038 181.277 401.370 167.612 399.369 155.946 C 397.371 143.503 392.483 131.949 385.150 120.838 C 377.482 109.618 364.152 98.174 353.708 90.730 C 342.710 83.398 331.266 80.064 321.932 76.843 C 312.490 73.731 305.378 71.953 298.934 70.619 L 298.934 70.619 Z "/>
    <path id="path135" fill="#ffc080" d="M 214.611 62.288 C 213.500 62.398 212.500 63.065 211.610 63.843 C 210.390 64.397 209.277 65.510 208.278 66.732 L 208.278 66.732 C 208.501 69.398 209.277 72.509 210.611 76.509 C 211.834 80.286 216.055 87.063 216.388 89.952 C 216.500 92.173 214.722 92.729 212.279 92.951 C 209.277 93.062 205.612 92.285 200.835 91.508 C 196.279 90.507 190.835 89.287 184.947 87.841 L 184.947 87.841 C 184.391 88.062 183.392 89.286 182.391 90.285 C 181.169 91.618 179.835 92.729 178.392 94.840 L 178.392 94.840 C 179.502 97.506 181.168 100.284 182.947 103.173 C 184.613 105.727 186.835 108.394 189.169 111.171 C 191.391 113.504 195.834 116.171 196.502 117.948 C 196.724 119.615 195.612 120.282 191.501 121.615 C 186.946 122.615 176.393 123.060 170.615 124.171 C 164.948 124.727 160.393 125.949 157.393 126.615 L 157.393 126.615 C 156.948 127.171 156.394 127.504 156.171 128.505 C 155.727 129.059 155.394 130.282 155.172 131.282 L 155.172 131.282 C 158.061 134.504 161.172 137.281 164.948 140.058 C 168.503 142.502 173.504 144.836 177.391 147.058 C 180.947 149.058 186.390 151.391 187.279 153.168 C 187.502 154.724 184.170 155.724 181.501 157.390 C 179.058 158.724 177.058 160.057 172.503 163.168 C 167.170 166.500 160.505 170.501 151.282 176.499 L 151.282 176.499 C 151.282 177.389 151.505 178.610 151.949 179.721 C 152.171 180.831 152.615 181.832 153.281 183.166 L 153.281 183.166 C 158.837 184.721 164.614 185.943 170.168 186.388 C 175.613 186.721 182.278 186.164 186.722 185.943 C 190.832 185.276 193.500 183.832 195.166 184.610 C 196.609 184.943 195.943 187.610 196.166 191.388 C 195.832 195.497 194.943 204.052 194.721 209.274 C 194.499 214.274 194.499 218.605 194.721 221.826 L 194.721 221.826 C 195.832 222.607 196.722 223.493 198.610 224.493 C 199.943 225.383 202.277 226.383 204.387 227.495 L 204.387 227.495 C 207.832 226.271 211.944 224.493 215.498 222.161 C 219.164 219.494 223.716 214.386 226.606 212.828 C 229.049 211.164 229.604 211.164 231.271 212.385 C 232.161 213.274 232.827 214.829 234.493 218.717 C 236.271 222.273 239.382 228.940 242.160 233.940 C 244.716 238.828 247.381 242.828 250.159 247.158 L 250.159 247.158 C 251.270 247.604 252.937 248.270 255.601 249.160 C 258.045 250.049 261.491 250.826 265.490 251.938 L 265.490 251.938 C 268.157 248.381 270.713 245.160 273.157 241.383 C 275.379 237.492 277.491 231.938 279.489 229.828 C 281.155 227.604 281.821 226.826 284.047 227.939 C 286.045 228.828 287.156 230.938 291.600 234.717 C 295.822 238.493 304.490 245.383 309.486 249.825 C 314.266 253.824 317.154 256.267 319.376 258.047 L 319.376 258.047 C 319.598 257.823 320.264 257.715 321.376 257.715 C 322.153 257.381 323.932 257.157 325.487 257.046 L 325.487 257.046 C 325.710 253.047 325.710 248.381 326.376 242.604 C 326.597 236.383 327.485 226.607 328.154 222.273 C 328.820 217.720 329.152 216.607 330.818 216.384 C 332.042 216.052 333.261 217.719 336.153 220.163 C 338.373 222.496 342.261 226.160 346.153 229.828 C 350.152 233.050 354.263 236.383 359.371 239.825 L 359.371 239.825 C 361.149 238.716 362.816 237.381 364.371 235.825 C 365.706 234.051 367.262 232.272 368.594 230.048 L 368.594 230.048 C 365.037 223.828 362.485 217.828 359.705 212.050 C 356.707 206.164 353.262 197.942 352.816 195.053 C 352.484 191.609 355.040 192.497 357.927 193.053 C 360.926 193.609 364.816 196.276 369.147 198.051 C 373.039 199.052 376.704 200.387 380.591 201.165 C 384.036 201.831 386.926 202.832 389.701 203.275 L 389.701 203.275 C 391.257 200.831 392.703 198.275 393.592 195.609 C 394.479 192.720 394.813 189.721 395.036 186.609 L 395.036 186.609 C 389.701 183.276 385.590 180.498 382.257 177.833 C 378.593 175.166 375.594 172.721 375.371 170.500 C 374.924 168.166 377.148 166.499 380.701 163.833 C 384.258 160.611 388.924 156.612 395.924 151.833 L 395.924 151.833 C 395.924 150.723 395.813 149.500 395.590 148.611 C 395.367 147.722 394.924 146.723 394.701 146.055 L 394.701 146.055 C 393.034 147.167 389.481 147.612 384.481 146.167 C 379.035 144.611 367.591 140.389 363.815 138.279 C 360.148 136.168 360.706 134.723 362.038 132.612 C 362.815 129.723 367.148 126.391 369.482 123.058 C 371.925 119.614 373.815 116.392 376.037 112.948 L 376.037 112.948 C 375.702 112.169 375.147 111.503 374.812 110.947 C 374.257 110.060 373.591 109.282 372.814 108.614 L 372.814 108.614 C 366.259 108.947 360.259 109.391 354.816 109.947 C 349.261 110.280 343.260 111.280 339.817 111.280 C 335.928 110.835 333.596 110.391 332.818 108.280 C 331.928 105.836 334.150 101.169 334.708 97.281 C 335.040 92.947 334.929 88.503 334.816 83.504 L 334.816 83.504 L 330.151 82.059 L 330.151 82.059 C 327.041 83.726 323.818 85.281 320.928 87.170 C 317.819 89.059 314.373 90.837 311.929 92.946 C 309.042 94.836 306.263 98.390 304.489 99.280 C 302.376 100.057 301.598 99.280 300.932 96.947 C 299.820 94.058 300.486 86.837 299.931 83.059 C 298.930 78.725 297.822 75.059 296.598 73.726 C 295.378 72.393 295.042 73.059 292.599 75.281 C 289.711 77.281 284.155 83.724 281.043 86.501 C 277.933 88.612 275.266 90.835 273.934 90.612 C 272.378 90.390 272.710 88.724 271.933 85.612 C 270.936 81.836 269.712 74.948 268.269 70.503 C 266.713 65.949 264.600 62.726 262.379 59.615 L 262.379 59.615 C 259.935 58.282 257.824 57.504 254.823 56.838 C 252.159 56.172 248.603 55.616 245.381 55.616 L 245.381 55.616 C 243.937 59.060 243.049 62.726 242.271 66.615 C 241.713 70.503 241.494 76.059 240.717 78.615 C 239.049 80.503 237.382 81.059 234.492 79.393 C 231.604 77.837 226.829 71.616 224.384 69.281 C 221.719 66.837 219.940 65.393 218.607 64.505 C 216.834 63.398 215.501 62.509 214.611 62.288 L 214.611 62.288 Z "/>
    <path id="path137" stroke="#000000" stroke-width="0.036" d="M 265.161 98.727 C 265.938 97.505 268.049 95.950 270.162 95.395 C 271.716 94.616 273.048 93.617 275.382 93.617 C 277.607 93.284 280.937 93.172 282.826 93.728 C 284.158 94.172 284.380 95.616 283.492 96.394 C 282.494 96.283 278.491 96.061 276.604 96.173 C 274.379 96.506 271.936 97.840 270.492 98.950 C 268.384 99.616 267.270 102.283 266.270 102.283 C 265.161 102.061 264.495 99.728 265.161 98.727 L 265.161 98.727 Z "/>
    <path id="path139" stroke="#000000" stroke-width="0.036" d="M 317.380 124.836 C 317.380 123.281 317.267 120.170 316.601 118.504 C 315.825 116.616 315.712 114.504 314.601 113.060 C 313.157 110.838 310.601 108.283 309.489 107.506 C 308.268 106.728 306.267 107.617 306.936 108.949 C 307.157 109.949 310.601 111.949 311.713 114.060 C 312.821 116.171 313.045 118.616 313.600 120.948 C 313.935 122.948 313.045 125.724 313.935 126.725 C 314.377 127.059 316.821 126.281 317.380 124.836 L 317.380 124.836 Z "/>
    <path id="path141" stroke="#000000" stroke-width="0.036" d="M 259.607 102.616 C 259.272 103.506 259.826 104.728 261.050 105.283 C 262.159 105.727 263.494 105.394 263.826 104.393 C 264.271 103.506 263.718 102.283 262.494 101.839 C 261.382 101.283 260.050 101.616 259.607 102.616 L 259.607 102.616 Z "/>
    <path id="path143" stroke="#000000" stroke-width="0.036" d="M 311.047 129.503 C 310.601 130.392 311.155 131.614 312.379 132.059 C 313.491 132.614 314.823 132.281 315.267 131.282 C 315.601 130.282 315.046 129.171 313.935 128.615 C 312.711 128.169 311.489 128.504 311.047 129.503 L 311.047 129.503 Z "/>
    <path id="path145" stroke="#000000" stroke-width="0.036" d="M 290.713 117.282 C 289.157 120.837 291.382 125.171 295.492 127.059 C 299.712 128.837 304.380 127.503 305.935 123.948 C 307.490 120.392 305.269 116.060 301.158 114.281 C 296.936 112.394 292.271 113.837 290.713 117.282 L 290.713 117.282 Z "/>
    <path id="path147" fill="#ffffff" stroke="#000000" stroke-width="0.036" d="M 296.490 117.170 C 296.048 118.171 296.714 119.393 297.825 119.837 C 299.046 120.392 300.269 120.059 300.713 119.059 C 301.158 118.059 300.489 116.948 299.381 116.392 C 298.157 115.948 296.936 116.281 296.490 117.170 L 296.490 117.170 Z "/>
    <path id="path149" stroke="#000000" stroke-width="0.036" d="M 271.828 104.505 C 270.270 108.061 272.382 112.394 276.493 114.171 C 280.716 116.061 285.269 114.617 286.825 111.061 C 288.380 107.506 286.269 103.174 282.160 101.395 C 277.937 99.505 273.271 100.950 271.828 104.505 L 271.828 104.505 Z "/>
    <path id="path151" fill="#ffffff" stroke="#000000" stroke-width="0.036" d="M 277.715 104.505 C 277.383 105.394 277.937 106.616 279.049 107.061 C 280.158 107.617 281.382 107.173 281.824 106.283 C 282.271 105.283 281.714 104.172 280.604 103.616 C 279.381 103.173 278.160 103.506 277.715 104.505 L 277.715 104.505 Z "/>
    <path id="path153" stroke="#000000" stroke-width="0.036" d="M 212.834 63.065 C 213.056 61.175 213.500 59.398 214.166 57.732 C 214.723 55.842 215.168 53.289 215.944 52.621 C 216.501 51.510 217.723 52.066 218.277 52.621 C 218.277 52.954 218.277 53.289 217.833 55.733 C 217.167 58.287 216.277 65.398 215.611 67.620 C 214.389 69.285 213.278 67.620 212.722 66.953 C 212.056 66.287 212.390 64.288 212.834 63.065 L 212.834 63.065 Z "/>
    <path id="path155" stroke="#000000" stroke-width="0.036" d="M 207.502 64.842 C 207.278 63.175 207.278 60.954 207.502 59.399 C 207.278 57.732 207.611 54.511 208.057 53.955 C 208.390 52.954 209.723 52.954 210.391 53.510 C 210.724 53.622 210.391 54.066 210.724 56.620 C 210.945 59.065 211.057 66.508 211.057 68.731 C 210.391 70.286 208.724 69.397 208.168 68.619 C 207.502 67.842 207.278 66.175 207.502 64.842 L 207.502 64.842 Z "/>
    <path id="path157" fill="#a16121" stroke="#000000" stroke-width="0.036" d="M 243.719 55.509 C 241.163 55.398 238.942 55.398 235.831 55.954 C 232.609 56.177 228.719 56.843 225.831 57.954 C 222.832 58.621 219.943 59.844 217.611 61.176 L 217.611 61.176 C 219.943 62.954 222.609 65.287 225.165 67.731 C 227.721 70.065 230.942 73.508 233.164 75.508 C 235.162 77.063 236.162 77.731 237.498 77.952 C 238.495 78.175 239.053 77.286 239.607 75.731 C 239.942 73.287 240.163 69.064 240.720 66.064 C 241.162 63.175 241.496 60.287 242.162 58.731 C 242.829 56.732 242.940 56.066 243.719 55.509 L 243.719 55.509 Z "/>
    <path id="path159" fill="#a16121" stroke="#000000" stroke-width="0.036" d="M 206.722 67.064 C 206.834 70.174 207.058 72.397 207.835 74.953 C 208.390 76.953 209.057 78.729 210.278 80.729 C 211.168 82.840 212.834 84.730 213.500 86.841 C 213.945 88.285 213.833 89.618 213.167 90.396 C 211.723 90.618 209.945 90.618 207.391 90.396 C 205.057 90.285 202.280 89.729 199.058 89.174 C 195.390 88.397 191.281 87.396 186.280 86.174 L 186.280 86.174 C 189.837 82.174 192.835 79.174 196.504 75.841 C 200.058 72.508 203.058 69.730 206.722 67.064 L 206.722 67.064 Z "/>
    <path id="path161" fill="#a16121" stroke="#000000" stroke-width="0.036" d="M 177.060 96.618 C 177.504 98.283 178.393 100.172 179.727 102.283 C 180.726 104.283 182.281 106.616 183.948 108.838 C 185.614 110.615 187.393 113.059 189.280 114.504 C 190.836 115.948 192.392 116.393 193.058 117.503 C 193.280 117.948 193.615 118.504 191.502 119.170 C 188.946 119.504 182.504 120.503 179.059 120.948 C 175.171 121.393 173.059 121.169 169.726 121.948 C 166.060 122.502 162.726 123.280 158.504 124.281 L 158.504 124.281 C 159.728 120.503 161.394 116.726 164.727 112.060 C 167.727 107.394 171.838 102.394 177.060 96.618 L 177.060 96.618 Z "/>
    <path id="path163" fill="#a16121" stroke="#000000" stroke-width="0.036" d="M 154.172 133.392 C 154.949 134.724 156.505 136.279 158.839 138.058 C 160.839 139.836 164.172 142.280 167.171 144.168 C 169.838 145.835 172.838 146.945 175.726 148.391 C 178.614 149.501 182.281 151.280 183.725 152.390 C 184.725 153.391 183.836 153.168 182.281 154.723 C 180.171 156.168 175.837 158.056 172.727 160.389 C 169.505 162.167 166.616 164.055 163.172 166.499 C 159.284 168.610 155.395 171.722 150.618 174.611 L 150.618 174.611 C 149.952 170.944 149.062 167.167 149.172 162.833 C 149.172 158.279 148.506 153.724 149.728 148.724 C 150.285 143.724 152.173 138.613 154.172 133.392 L 154.172 133.392 Z "/>
    <path id="path165" fill="#a16121" stroke="#000000" stroke-width="0.036" d="M 154.729 185.719 C 156.729 186.496 159.172 187.164 162.506 187.719 C 165.505 188.275 170.060 188.719 173.616 189.052 C 176.838 189.052 180.726 188.386 183.615 188.386 C 186.392 188.053 188.726 187.608 190.615 187.496 C 192.058 187.163 192.614 186.496 193.504 187.163 C 194.059 187.163 194.614 187.496 194.725 189.496 C 194.170 191.386 193.837 195.607 193.281 198.718 C 192.836 201.494 192.503 204.607 192.282 207.160 C 191.616 209.272 191.504 211.162 191.504 213.272 C 191.504 215.382 191.727 217.718 192.170 220.270 L 192.170 220.270 C 187.062 216.716 182.617 213.827 178.395 210.385 C 173.951 206.940 171.284 204.716 167.396 200.717 C 163.395 196.497 159.172 191.497 154.729 185.719 L 154.729 185.719 Z "/>
    <path id="path167" fill="#a16121" stroke="#000000" stroke-width="0.036" d="M 207.167 229.050 C 209.277 228.273 211.610 227.495 214.166 225.828 C 216.610 224.050 219.723 221.717 222.274 219.716 C 224.496 217.494 226.609 214.827 228.165 214.273 C 229.276 213.384 230.165 214.050 231.274 215.828 C 232.274 217.495 232.940 221.825 234.607 224.939 C 236.051 227.715 237.717 231.159 239.607 233.939 C 241.050 236.271 242.386 238.604 243.606 240.494 C 244.606 242.269 245.608 244.048 246.162 245.383 L 246.162 245.383 C 243.719 244.382 240.385 243.158 236.609 241.715 C 232.274 240.159 227.386 238.161 222.386 236.160 C 217.278 233.939 212.500 231.715 207.167 229.050 L 207.167 229.050 Z "/>
    <path id="path169" fill="#a16121" stroke="#000000" stroke-width="0.036" d="M 268.384 252.827 C 270.940 249.936 273.048 246.937 275.159 243.381 C 277.049 239.493 278.715 233.382 280.604 231.495 C 282.047 229.494 283.160 230.271 285.269 231.715 C 287.047 232.938 289.823 235.825 293.156 239.048 C 296.490 241.826 301.713 246.160 305.824 249.493 C 309.712 252.715 313.045 255.491 316.266 258.269 L 316.266 258.269 C 311.046 258.493 306.047 259.046 300.823 258.712 C 295.600 258.380 290.158 257.822 284.935 257.045 C 279.492 256.048 273.826 254.490 268.384 252.827 L 268.384 252.827 Z "/>
    <path id="path171" fill="#a16121" stroke="#000000" stroke-width="0.036" d="M 357.375 241.271 C 356.151 240.713 354.484 239.381 352.375 237.715 C 349.819 235.605 346.709 233.049 343.930 230.493 C 340.821 227.826 337.375 224.381 335.377 222.715 C 333.376 220.940 332.710 218.827 332.155 218.939 C 331.265 218.273 330.931 219.051 330.709 221.272 C 330.154 223.605 329.931 228.382 329.600 233.050 C 329.155 237.381 328.599 243.381 328.376 247.604 C 328.045 251.380 328.045 254.491 327.933 256.492 L 327.933 256.492 C 331.932 255.271 335.709 253.936 339.265 252.493 C 342.487 250.938 345.486 249.714 348.707 247.938 C 351.709 245.937 354.596 243.715 357.375 241.271 L 357.375 241.271 Z "/>
    <path id="path173" fill="#a16121" stroke="#000000" stroke-width="0.036" d="M 388.372 205.163 C 386.259 204.717 383.595 204.273 380.373 203.385 C 376.706 202.272 372.041 200.940 368.483 199.828 C 365.150 198.161 361.375 197.053 359.707 196.052 C 357.706 194.942 356.151 194.385 355.932 194.830 C 355.262 195.163 355.486 196.275 356.598 199.051 C 357.264 201.495 359.596 206.051 361.929 210.940 C 364.261 215.829 367.152 221.495 370.597 228.381 L 370.597 228.381 C 374.708 224.161 378.040 220.162 381.039 216.383 C 383.927 212.272 386.371 208.828 388.372 205.163 L 388.372 205.163 Z "/>
    <path id="path175" fill="#a16121" stroke="#000000" stroke-width="0.036" d="M 397.148 153.724 C 394.038 155.724 391.147 158.056 388.482 160.279 C 385.481 162.388 382.483 165.278 380.816 167.167 C 378.818 168.500 377.706 169.278 377.929 170.389 C 377.817 171.499 379.706 172.277 381.928 174.388 C 383.706 176.166 388.148 179.055 390.593 180.943 C 392.814 182.498 394.591 183.499 395.926 183.943 L 395.926 183.943 C 396.924 178.499 397.924 173.277 398.036 168.276 C 398.037 163.055 398.037 158.500 397.148 153.724 L 397.148 153.724 Z "/>
    <path id="path177" fill="#a16121" stroke="#000000" stroke-width="0.036" d="M 378.148 114.949 C 376.262 117.503 374.484 119.837 372.817 122.392 C 370.709 124.836 368.707 127.170 367.263 129.391 C 365.596 131.281 363.929 132.168 363.929 133.835 C 363.263 135.169 364.595 135.836 366.705 137.502 C 369.261 138.947 374.926 140.614 378.595 142.057 C 381.704 143.058 383.926 143.835 386.482 144.391 C 389.038 144.500 391.370 144.612 393.925 143.834 L 393.925 143.834 C 392.259 138.723 390.150 134.279 387.594 129.281 C 384.927 124.393 381.929 119.615 378.148 114.949 L 378.148 114.949 Z "/>
    <path id="path179" fill="#a16121" stroke="#000000" stroke-width="0.036" d="M 337.155 84.063 C 337.709 86.174 338.045 88.173 338.153 90.506 C 338.045 92.396 337.375 94.951 337.043 97.285 C 336.267 99.729 335.266 102.950 335.266 105.173 C 334.820 106.838 335.598 108.172 337.156 108.728 C 338.823 109.284 341.376 108.505 345.266 108.505 C 348.820 107.950 354.154 107.282 358.707 106.949 C 362.929 106.505 367.040 106.505 371.039 106.949 L 371.039 106.949 C 364.708 101.283 358.819 96.840 354.596 93.618 C 350.043 90.063 346.709 89.174 344.154 87.507 C 341.266 85.840 338.931 84.839 337.155 84.063 L 337.155 84.063 Z "/>
    <path id="path181" fill="#a16121" stroke="#000000" stroke-width="0.036" d="M 327.599 81.173 C 326.822 80.618 324.266 79.506 319.489 78.284 C 314.378 76.841 307.934 74.841 298.824 72.730 L 298.824 72.730 C 300.490 76.174 301.271 78.729 302.048 81.617 C 302.380 83.840 302.156 86.173 302.269 88.617 C 301.938 90.950 302.048 95.505 302.604 96.727 C 302.714 97.727 304.047 96.727 306.160 95.395 C 308.382 93.505 313.270 88.840 316.157 86.951 C 318.714 84.730 319.935 84.839 321.933 83.840 C 323.711 82.840 325.601 81.951 327.599 81.173 L 327.599 81.173 Z "/>
    <path id="path183" fill="#a16121" stroke="#000000" stroke-width="0.036" d="M 266.159 61.065 C 267.606 61.842 269.604 62.508 271.716 63.509 C 273.604 64.396 276.048 65.619 278.603 66.731 C 280.829 67.286 283.714 68.507 286.382 69.175 C 289.046 70.174 291.603 70.618 294.492 71.729 L 294.492 71.729 C 292.048 73.396 289.492 75.619 286.825 77.951 C 283.937 80.174 280.270 83.951 278.383 85.840 C 276.717 87.395 275.159 88.284 274.939 88.061 C 274.050 87.728 273.827 85.840 273.384 83.285 C 272.494 80.175 271.494 74.842 270.382 71.176 C 269.272 67.620 267.718 63.843 266.159 61.065 L 266.159 61.065 Z "/>
    <path id="path185" stroke="#000000" stroke-width="0.036" d="M 166.727 106.283 C 165.395 104.616 163.949 102.394 162.839 100.506 C 161.506 98.284 159.838 95.729 159.617 94.507 C 159.393 93.285 160.616 92.617 161.505 92.950 C 161.838 93.285 162.282 93.173 164.061 96.062 C 166.172 98.728 171.615 106.061 173.060 108.616 C 173.838 110.505 171.282 110.394 170.171 109.949 C 168.949 109.171 167.948 107.950 166.727 106.283 L 166.727 106.283 Z "/>
    <path id="path187" stroke="#000000" stroke-width="0.036" d="M 171.060 101.062 C 170.060 99.840 169.170 98.062 168.393 96.952 C 167.394 95.396 166.060 93.619 166.060 92.841 C 166.171 91.730 166.504 91.508 167.503 91.730 C 167.837 91.507 167.837 92.063 169.281 93.840 C 170.502 95.507 174.614 100.840 175.614 102.617 C 176.169 104.061 174.170 103.840 173.504 103.616 C 172.615 103.394 171.949 101.839 171.060 101.062 L 171.060 101.062 Z "/>
    <path id="path189" stroke="#000000" stroke-width="0.036" d="M 177.727 211.718 C 175.837 212.719 173.393 213.162 171.282 214.274 C 168.837 215.052 166.061 215.829 164.727 216.160 C 163.395 215.829 162.839 214.494 163.505 213.939 C 163.505 213.050 164.282 213.273 167.061 212.049 C 170.060 210.605 178.504 206.275 181.282 205.941 C 183.392 205.386 182.615 207.830 181.948 209.051 C 181.169 209.828 179.615 210.717 177.727 211.718 L 177.727 211.718 Z "/>
    <path id="path191" stroke="#000000" stroke-width="0.036" d="M 173.505 206.275 C 172.059 206.607 170.393 207.607 168.949 208.050 C 167.061 208.608 165.394 209.051 164.394 209.385 C 163.395 208.939 163.283 208.273 163.616 207.829 C 163.728 207.383 163.840 207.272 166.061 206.606 C 168.171 205.385 173.949 202.606 176.061 202.163 C 177.504 201.717 176.948 203.607 176.503 204.385 C 175.726 205.163 174.727 205.386 173.505 206.275 L 173.505 206.275 Z "/>
    <path id="path193" stroke="#000000" stroke-width="0.036" d="M 255.604 245.602 C 255.496 246.937 255.272 249.381 254.938 251.160 C 254.606 252.715 254.050 255.601 253.718 256.380 C 252.828 257.157 252.162 256.603 251.716 256.380 C 251.162 255.714 251.605 255.491 251.828 253.158 C 251.938 250.159 252.162 242.937 252.939 240.937 C 253.494 238.939 254.717 240.602 255.383 241.603 C 255.717 242.380 255.496 243.715 255.604 245.602 L 255.604 245.602 Z "/>
    <path id="path195" stroke="#000000" stroke-width="0.036" d="M 249.607 243.603 C 249.273 244.825 248.717 246.714 248.383 248.380 C 247.717 249.936 247.162 251.825 246.717 252.826 C 245.938 253.492 244.938 252.826 244.938 252.602 C 244.718 252.156 244.718 251.825 245.384 249.824 C 245.608 247.491 246.827 240.493 247.717 239.158 C 248.383 237.602 249.383 239.047 249.830 240.047 C 250.050 240.713 249.831 242.048 249.607 243.603 L 249.607 243.603 Z "/>
    <path id="path197" stroke="#000000" stroke-width="0.036" d="M 342.598 251.603 C 343.153 252.380 343.930 253.603 344.932 255.270 C 345.486 256.825 347.041 259.825 347.930 261.268 C 348.820 262.380 350.043 262.711 350.265 261.825 C 350.043 260.379 349.041 256.267 347.709 253.824 C 346.155 251.160 343.487 247.715 342.264 246.937 C 340.932 246.048 339.600 247.827 339.931 248.824 C 339.708 249.381 341.598 250.602 342.598 251.603 L 342.598 251.603 Z "/>
    <path id="path199" stroke="#000000" stroke-width="0.036" d="M 336.485 253.824 C 337.155 254.713 337.709 255.379 338.598 257.046 C 339.041 258.602 340.486 260.937 341.265 262.269 C 342.152 263.270 342.821 263.601 343.263 262.824 C 343.263 261.603 341.931 257.824 341.043 255.715 C 339.707 253.271 337.263 250.273 336.266 249.714 C 334.819 248.825 334.153 250.384 334.265 251.381 C 334.153 252.157 335.489 252.827 336.485 253.824 L 336.485 253.824 Z "/>
    <path id="path201" stroke="#000000" stroke-width="0.036" d="M 398.591 166.277 C 400.038 166.389 402.149 166.722 404.037 167.277 C 405.593 167.720 408.479 168.055 409.258 168.721 C 410.035 169.277 409.593 169.944 409.146 170.721 C 408.480 170.944 408.261 170.721 405.924 170.499 C 402.926 169.832 395.705 169.387 393.703 168.721 C 391.928 167.499 393.372 166.833 394.592 166.277 C 395.149 165.833 397.037 165.833 398.591 166.277 L 398.591 166.277 Z "/>
    <path id="path203" stroke="#000000" stroke-width="0.036" d="M 396.259 172.167 C 397.595 172.611 399.149 172.833 400.925 173.722 C 402.149 174.277 404.592 174.721 405.258 175.499 C 405.593 176.055 405.482 176.944 404.927 177.277 C 404.150 177.501 404.369 177.166 402.149 176.721 C 399.593 175.610 393.260 174.611 391.706 173.722 C 389.929 172.612 391.818 171.944 392.707 171.722 C 393.372 171.277 394.704 171.832 396.259 172.167 L 396.259 172.167 Z "/>
    <path id="path205" stroke="#000000" stroke-width="0.036" d="M 222.164 142.501 C 216.945 138.834 202.834 132.724 193.058 126.725 C 182.837 120.392 170.393 111.170 162.616 106.282 C 154.840 101.394 150.061 97.949 147.063 96.839 C 143.840 95.395 143.285 96.727 143.730 97.839 C 143.840 98.393 144.617 98.950 148.618 101.615 C 152.506 104.171 159.172 108.282 166.838 113.504 C 174.504 118.280 184.504 125.948 192.946 130.947 C 200.723 135.501 209.056 140.168 214.499 142.834 C 219.390 145.501 222.498 146.944 223.830 147.167 C 225.054 146.835 226.943 145.835 222.164 142.501 L 222.164 142.501 Z "/>
    <path id="path207" stroke="#000000" stroke-width="0.036" d="M 136.730 131.614 C 142.507 133.057 150.285 135.502 159.617 137.724 C 168.393 139.945 180.503 141.612 189.503 143.946 C 198.502 145.946 207.278 147.389 212.834 149.167 C 217.500 150.501 219.500 151.389 220.167 152.278 C 220.833 153.167 222.057 154.612 217.388 154.056 C 212.056 153.055 200.279 149.500 191.059 147.612 C 181.726 145.501 172.172 144.056 162.839 142.056 C 153.173 139.612 140.285 135.612 134.063 133.946 C 127.507 132.058 127.064 132.280 124.954 131.614 C 122.398 130.391 121.287 128.504 121.620 128.058 C 121.842 127.392 124.176 128.058 126.842 128.725 C 129.286 128.947 131.174 130.059 136.730 131.614 L 136.730 131.614 Z "/>
    <path id="path209" stroke="#000000" stroke-width="0.036" d="M 126.730 167.055 C 134.285 166.499 150.394 165.388 160.506 164.944 C 169.948 164.389 176.837 164.054 185.059 163.945 C 193.057 163.500 204.722 162.388 209.722 162.722 C 214.389 162.722 215.500 164.722 214.278 165.277 C 212.834 165.611 209.945 166.166 202.613 166.499 C 194.723 166.722 180.725 166.610 169.615 167.500 C 158.283 167.833 147.617 169.278 137.173 170.056 C 126.507 170.945 114.287 171.832 107.731 172.277 C 101.288 171.944 99.399 171.167 99.066 170.389 C 98.510 169.500 100.733 168.277 103.954 168.056 C 106.843 167.278 112.841 167.500 116.840 167.389 C 120.399 167.055 119.397 167.388 126.730 167.055 L 126.730 167.055 Z "/>
    <path id="path211" stroke="#000000" stroke-width="0.036" d="M 326.821 173.721 C 333.045 173.831 347.821 177.054 359.595 178.276 C 371.038 179.275 385.260 179.387 396.258 179.831 C 407.147 180.053 418.256 179.054 423.590 179.831 C 428.590 180.164 426.147 181.942 425.699 182.608 C 425.033 182.720 425.367 182.608 419.479 182.720 C 412.813 182.608 399.259 183.164 388.702 183.053 C 378.039 182.829 366.705 182.387 357.263 181.720 C 347.929 180.386 338.374 179.720 332.821 178.498 C 326.932 177.608 323.711 177.054 322.710 176.387 C 321.710 175.609 320.378 173.166 326.821 173.721 L 326.821 173.721 Z "/>
    <path id="path213" stroke="#000000" stroke-width="0.036" d="M 395.593 213.162 C 388.595 210.829 381.594 208.050 373.373 204.829 C 364.484 201.164 354.042 196.053 345.485 192.498 C 337.043 188.721 328.264 184.943 323.487 183.276 C 318.488 181.499 316.600 181.055 315.712 181.499 C 314.377 181.499 312.490 182.389 316.933 184.610 C 321.378 186.498 333.154 190.832 342.044 194.610 C 350.597 198.386 358.930 202.497 368.262 206.496 C 377.595 210.275 388.261 213.496 396.371 216.607 C 403.926 219.274 409.703 221.160 413.702 222.273 C 417.036 223.050 418.479 221.607 418.479 221.384 C 418.145 220.494 417.590 220.384 413.814 218.940 C 409.703 217.272 402.482 215.494 395.593 213.162 L 395.593 213.162 Z "/>
    <path id="path215" stroke="#000000" stroke-width="0.036" d="M 378.596 235.605 C 372.707 230.605 359.596 220.494 352.153 214.273 C 344.154 208.049 337.710 203.049 332.822 199.273 C 327.933 195.495 325.601 192.829 323.268 191.719 C 320.490 190.385 317.599 189.829 318.046 191.274 C 318.600 192.606 322.379 195.162 326.821 198.938 C 330.931 201.939 336.266 205.716 343.263 211.162 C 350.154 216.494 360.042 225.270 368.261 231.936 C 376.482 238.268 385.372 246.936 391.038 250.712 C 395.926 254.157 398.260 254.488 399.260 254.268 C 399.926 253.934 398.590 251.378 396.592 249.600 C 394.149 247.379 389.484 243.714 386.482 241.602 C 383.595 239.047 383.815 240.047 378.596 235.605 L 378.596 235.605 Z "/>
    <path id="path217" stroke="#000000" stroke-width="0.036" d="M 306.602 78.952 C 307.823 78.285 309.600 77.062 312.379 76.175 C 315.158 75.286 320.266 74.285 323.045 73.619 C 324.935 72.730 326.155 72.174 326.267 71.508 C 326.599 70.842 325.712 69.841 324.824 70.175 C 323.268 70.065 321.490 70.952 319.489 71.620 C 317.599 72.065 315.601 72.842 313.492 73.508 C 311.267 74.065 308.381 74.954 306.936 75.731 C 305.270 76.397 304.601 77.731 304.493 78.397 C 304.492 78.840 305.046 79.173 306.602 78.952 L 306.602 78.952 Z "/>
    <path id="path219" stroke="#000000" stroke-width="0.036" d="M 303.603 76.063 C 304.601 75.174 305.270 73.840 307.714 72.508 C 309.712 71.175 314.045 69.175 316.043 68.286 C 317.599 67.064 317.934 66.398 318.268 65.842 C 318.046 65.175 317.710 64.620 316.822 65.064 C 315.713 65.286 314.046 66.175 312.712 67.286 C 311.048 68.175 309.489 68.952 308.047 70.064 C 306.379 70.951 304.047 72.174 303.157 73.286 C 301.937 74.064 301.602 75.508 301.714 75.952 C 301.602 76.396 302.379 76.285 303.603 76.063 L 303.603 76.063 Z "/>
    <path id="path221" stroke="#000000" stroke-width="0.036" d="M 285.046 72.174 C 284.604 71.063 284.492 68.174 284.270 66.508 C 283.714 64.731 283.048 62.731 282.272 61.398 C 280.829 59.843 279.049 58.065 278.273 57.287 C 277.383 56.287 277.826 55.509 278.273 55.397 C 278.273 54.954 279.270 54.620 280.047 55.287 C 280.937 55.732 282.494 56.731 283.826 58.730 C 284.827 60.508 286.159 64.620 286.935 66.840 C 287.491 68.730 287.601 70.950 287.270 71.840 C 286.825 72.730 285.382 72.841 285.046 72.174 L 285.046 72.174 Z "/>
    <path id="path223" stroke="#000000" stroke-width="0.036" d="M 290.824 71.729 C 290.492 70.507 290.270 66.731 290.604 64.620 C 290.712 61.842 290.936 58.730 291.712 57.398 C 292.270 55.841 293.047 56.398 293.602 56.954 C 293.713 57.508 293.156 58.842 293.268 60.954 C 292.936 62.731 292.936 65.620 292.826 67.509 C 292.490 69.176 292.826 70.398 292.602 71.176 C 291.824 71.841 291.382 72.619 290.824 71.729 L 290.824 71.729 Z "/>
    <path id="path225" stroke="#000000" stroke-width="0.036" d="M 297.602 72.397 C 297.268 71.729 297.492 70.842 298.268 69.730 C 298.824 68.286 300.381 66.287 301.713 64.954 C 302.603 63.620 304.601 62.621 305.601 61.510 C 306.602 59.953 306.936 58.177 308.268 57.065 C 309.158 55.733 311.156 54.398 312.156 54.398 C 312.712 53.954 313.269 54.843 312.934 55.732 C 312.379 56.286 310.824 57.398 309.934 58.620 C 308.712 59.731 308.157 60.953 307.044 62.730 C 305.601 64.063 303.492 65.508 302.490 67.063 C 301.270 68.173 300.713 69.174 300.381 70.063 C 299.935 70.729 299.823 71.285 299.604 71.728 C 298.823 71.841 297.714 72.619 297.602 72.397 L 297.602 72.397 Z "/>
    <path id="path227" stroke="#000000" stroke-width="0.036" d="M 269.384 166.499 C 265.827 165.500 262.938 164.055 260.274 162.612 C 257.718 161.056 255.717 159.390 253.831 157.167 C 251.606 154.501 249.720 150.391 247.276 147.390 C 244.385 143.724 240.051 140.502 237.718 137.725 C 235.162 134.947 233.942 133.169 233.164 131.170 C 232.274 128.504 232.274 125.949 233.164 123.948 C 233.606 121.615 234.830 119.838 237.275 119.060 C 239.942 118.060 243.495 118.281 247.941 119.726 C 252.051 120.949 256.274 123.837 261.050 127.059 C 265.272 129.836 269.491 134.613 273.271 137.059 C 276.825 139.168 277.494 139.280 282.494 139.946 C 287.383 140.391 295.824 139.280 301.824 140.503 C 307.380 141.503 312.267 143.947 315.600 146.057 C 318.711 147.724 319.599 149.057 319.488 151.390 C 318.933 153.724 316.378 156.723 313.491 159.057 C 309.823 160.724 304.600 161.946 301.270 163.168 C 298.045 164.500 297.047 165.612 294.824 166.944 C 292.160 168.277 290.270 170.056 286.601 170.501 C 282.602 170.390 278.272 169.501 272.381 167.389 L 272.381 167.389 C 270.381 172.168 269.049 176.277 267.936 181.056 C 266.828 185.499 265.827 189.722 266.159 194.166 C 266.270 198.275 267.718 203.609 269.272 207.163 C 270.162 210.719 271.936 212.940 274.161 215.496 C 276.493 217.829 280.158 219.830 283.492 221.051 C 286.269 221.828 289.268 221.385 292.936 220.942 C 296.601 219.830 302.934 217.275 305.490 216.719 C 307.601 216.053 307.714 217.051 307.156 218.052 C 306.048 218.607 304.268 219.719 301.379 220.942 C 298.491 221.828 294.716 223.495 290.937 223.829 C 286.714 223.829 281.271 223.163 277.607 221.385 C 273.714 219.163 270.163 216.161 268.273 212.385 C 266.160 208.609 265.051 203.275 264.496 199.829 C 263.720 196.053 263.496 193.164 263.828 190.720 L 263.828 190.720 C 261.383 194.498 258.827 197.831 255.718 200.719 C 252.273 203.498 248.719 206.277 245.052 207.720 C 241.498 208.829 237.830 208.386 234.497 207.608 C 230.722 206.276 227.500 204.163 224.389 201.719 C 221.056 199.386 218.167 196.053 216.168 193.497 C 213.613 190.498 211.947 186.388 211.169 184.610 C 210.279 182.610 211.611 181.944 212.168 182.165 C 212.391 182.054 213.057 183.609 214.167 185.165 C 214.945 186.942 216.390 188.943 218.058 191.609 C 219.391 193.497 221.612 196.385 224.278 198.609 C 227.053 200.718 230.833 203.720 234.274 205.052 C 237.277 206.052 239.609 206.276 242.608 205.718 C 245.274 204.829 247.608 203.940 250.941 201.387 C 254.052 198.385 258.719 193.608 261.496 190.053 C 263.939 186.497 264.163 183.498 265.606 180.610 C 266.606 177.165 267.608 173.389 268.162 171.055 C 268.715 168.500 269.272 167.277 269.384 166.499 L 269.384 166.499 Z "/>
    <path id="path229" fill="#ffffff" stroke="#000000" stroke-width="0.036" d="M 238.831 123.948 C 238.718 124.393 238.941 124.948 239.497 125.171 C 240.051 125.392 240.608 125.281 240.831 124.837 C 241.051 124.394 240.721 123.838 240.163 123.505 C 239.719 123.281 239.053 123.504 238.831 123.948 L 238.831 123.948 Z "/>
    <path id="path231" fill="#ffffff" stroke="#000000" stroke-width="0.036" d="M 241.497 123.059 C 241.274 123.504 241.608 124.059 242.163 124.281 C 242.606 124.503 243.272 124.281 243.495 123.837 C 243.606 123.392 243.385 122.836 242.829 122.615 C 242.274 122.392 241.717 122.615 241.497 123.059 L 241.497 123.059 Z "/>
    <path id="path233" fill="#ffffff" stroke="#000000" stroke-width="0.036" d="M 260.493 132.392 C 260.273 132.836 260.604 133.392 261.163 133.614 C 261.717 133.836 262.271 133.614 262.495 133.170 C 262.605 132.726 262.383 132.170 261.829 131.948 C 261.271 131.726 260.716 131.947 260.493 132.392 L 260.493 132.392 Z "/>
    <path id="path235" fill="#ffffff" stroke="#000000" stroke-width="0.036" d="M 262.829 134.947 C 262.718 135.502 262.937 136.058 263.495 136.279 C 264.050 136.503 264.603 136.279 264.827 135.837 C 265.051 135.392 264.716 134.837 264.161 134.613 C 263.606 134.391 263.049 134.503 262.829 134.947 L 262.829 134.947 Z "/>
    <path id="path237" fill="#ffffff" stroke="#000000" stroke-width="0.036" d="M 306.378 155.944 C 306.158 156.389 306.490 156.944 307.044 157.166 C 307.602 157.389 308.156 157.277 308.380 156.833 C 308.491 156.389 308.268 155.723 307.714 155.499 C 307.156 155.278 306.602 155.500 306.378 155.944 L 306.378 155.944 Z "/>
    <path id="path239" fill="#ffffff" stroke="#000000" stroke-width="0.036" d="M 286.159 165.833 C 285.935 166.277 286.269 166.834 286.825 167.055 C 287.383 167.278 287.936 167.055 288.159 166.610 C 288.380 166.166 288.049 165.611 287.491 165.388 C 286.936 165.167 286.382 165.277 286.159 165.833 L 286.159 165.833 Z "/>
    <path id="path241" fill="#ffffff" stroke="#000000" stroke-width="0.036" d="M 255.717 126.502 C 254.607 125.836 254.161 125.503 253.161 125.058 C 252.271 124.502 251.163 124.281 250.273 123.947 C 249.049 123.391 247.606 123.058 246.828 122.947 C 245.720 122.835 245.051 122.502 244.830 122.835 C 244.606 122.725 244.161 123.613 244.719 123.836 C 244.830 123.947 244.607 123.947 245.720 124.280 C 246.497 124.391 248.273 124.835 249.719 125.169 C 250.940 125.502 251.940 126.168 253.161 126.724 C 253.938 127.168 254.827 127.946 255.828 128.612 C 256.604 129.389 257.606 129.946 258.384 130.723 C 258.939 130.723 259.496 130.723 259.608 130.279 C 259.608 129.613 258.607 129.168 258.273 128.502 C 257.494 127.615 256.494 126.947 255.717 126.502 L 255.717 126.502 Z "/>
    <path id="path243" fill="#ffffff" stroke="#000000" stroke-width="0.036" d="M 295.382 160.611 C 295.824 160.055 296.382 159.722 297.048 159.611 C 297.491 159.166 298.934 159.056 299.712 158.833 C 300.489 158.612 300.601 158.723 301.713 158.723 C 302.155 157.944 303.711 157.834 304.269 157.499 C 304.712 157.277 305.491 157.499 305.378 158.166 C 304.824 158.499 304.269 159.499 303.269 159.943 C 302.603 160.166 301.379 160.166 300.824 160.388 C 299.935 160.499 299.158 160.499 298.492 160.832 C 297.602 160.832 297.381 161.500 296.491 161.945 C 295.270 162.499 293.935 163.388 292.937 164.166 C 291.603 164.611 290.713 165.055 290.271 165.055 C 289.605 164.944 289.605 164.278 289.824 163.945 C 290.048 163.388 290.493 162.945 291.603 162.612 C 292.271 162.055 294.380 160.833 295.382 160.611 L 295.382 160.611 Z "/>
  </g>
</svg>