<?xml version="1.0" encoding="utf-8"?>
<!-- Generator: Adobe Illustrator 15.0.2, SVG Export Plug-In . SVG Version: 6.00 Build 0)  -->
<!DOCTYPE svg PUBLIC "-//W3C//DTD SVG 1.1//EN" "http://www.w3.org/Graphics/SVG/1.1/DTD/svg11.dtd">
<svg version="1.1" id="Layer_1" xmlns="http://www.w3.org/2000/svg" xmlns:xlink="http://www.w3.org/1999/xlink" x="0px" y="0px"
	 width="800px" height="261.905px" viewBox="0 0 800 261.905" enable-background="new 0 0 800 261.905" xml:space="preserve">
<g>
	<g>
		<path fill="none" stroke="#28A5DA" stroke-width="20" stroke-miterlimit="10" d="M50.106,242.268
			c-18.878,0-34.712-14.791-36.046-33.662c-0.013-0.246-0.023-0.5-0.042-0.75c-0.308-6.059-0.713-17.855,0.021-31.15
			c0.494-8.672,0.713-23.26,0.72-23.783c0.001-0.039,0.001-0.068,0.001-0.107c0.129-8.943,3.565-17.134,9.127-23.405
			c-2.754-9.605-3.648-21.057-1.931-34.544l0.261-2.114c0.976-7.988,2.43-19.826,8.445-31.217
			c9.094-17.2,25.761-27.072,45.723-27.072c1.148,0,2.34,0.032,3.554,0.103c1.788,0.099,3.744,0.312,5.831,0.681
			c6.381-5.629,14.762-9.055,23.914-9.055c0.117,0,0.249,0,0.368,0c19.798,0.246,35.836,16.529,35.736,36.312
			c0,0.133-0.001,0.271-0.003,0.403c-0.006,0.439-1.812,51.001-2.357,54.596c-0.04,0.25-0.081,0.496-0.123,0.742
			c-0.477,2.689-1.254,5.261-2.273,7.694c8.739,10.273,13.461,23.038,13.618,37.458c0.189,18.137-8.109,35.75-22.779,48.314
			c-12.589,10.799-28.567,16.734-44.97,16.734c-0.003,0,0,0-0.003,0c-2.659,0-5.315-0.146-7.958-0.461
			c-0.539,0.707-1.112,1.406-1.705,2.076c-6.391,7.229-15.226,11.543-24.868,12.135C51.725,242.241,50.908,242.268,50.106,242.268z"
			/>
		<path fill="none" stroke="#28A5DA" stroke-width="20" stroke-miterlimit="10" d="M77.193,126.732
			c-9.102-1.422-13.92-7.482-11.527-26.322l0.289-2.275c2.02-16.386,3.754-19.97,11.568-19.567c2.337,0.147,4.992,1.594,7.663,3.775
			c2.408,2.838,7.921,6.523,10.956,13.848c2.225,5.336,2.983,8.815,3.264,12.565c0.026,0.12,0.529,4.598,0.529,4.598l0.005-0.003
			c0.6,3.134,3.062,5.719,6.388,6.319c4.296,0.769,8.429-2.091,9.206-6.4c0.066-0.492,2.026-50.074,2.038-50.896
			c0.025-4.365-3.497-7.918-7.865-7.967c-4.403-0.008-7.97,3.521-7.989,7.909c0,0.092-0.038,6.897-0.161,13.81
			c-6.216-6.796-14.239-12.883-23.16-13.386c-24.011-1.318-26.617,20.734-28.176,33.46l-0.279,2.233
			c-3.192,25.068,5.164,40.914,24.819,43.984c21.383,3.369,35.662,8.285,35.797,21.441c0.055,5.082-2.613,10.326-7.336,14.375
			c-5.627,4.826-13.238,6.982-20.324,5.789c-2.203-0.355-4.3-0.912-6.264-1.613c-2.84-1.545-9.879-5.822-13.457-10.783
			c-3.024-4.184-4.052-10.764-4.387-14.922c0.041-1.854,0.062-3.094,0.07-3.262c0.049-4.359-3.442-7.947-7.824-8.031
			c-4.377-0.08-8.004,3.418-8.061,7.818c0,0.15-0.238,15.666-0.758,25.025c-0.83,15.057-0.022,27.832,0,28.375
			c0.304,4.377,4.058,7.701,8.432,7.41c4.392-0.273,7.685-4.053,7.417-8.412c0-0.117-0.402-6.254-0.345-14.84
			c5.795,3.73,13.395,7.348,22.565,8.896c11.827,1.977,23.944-1.436,33.24-9.402c8.299-7.1,13.012-16.801,12.911-26.588
			C126.117,134.392,93.1,129.235,77.193,126.732z"/>
		<path fill="none" stroke="#28A5DA" stroke-width="20" stroke-miterlimit="10" d="M323.923,234.866
			c-6.864-0.008-13.765-1.387-21.072-4.225c-6.472-2.502-11.633-6.312-15.672-10.367c-2.679,1.09-5.5,1.865-8.435,2.293
			l-38.276,5.615c-1.8,0.254-3.523,0.377-5.235,0.377c-17.866,0-33.249-13.336-35.785-31.029
			c-1.387-9.428,1.009-18.953,6.776-26.703c2.889-3.885,6.447-7.078,10.477-9.482l-0.026-5.529
			c-7.355-6.623-11.997-16.221-11.997-26.877c0-7.833,2.508-15.091,6.754-21.024c-8.526-5.534-14.67-14.574-16.18-25.202
			c-1.397-9.361,0.995-18.92,6.777-26.7c5.779-7.766,14.23-12.803,23.819-14.186c7.993-1.178,24.131-3.189,41.305-3.189
			c38.11,0,62.372,9.761,74.155,29.839c6.153,10.501,13.167,31.614-5.208,58.83c1.732,5.571,3.029,11.76,3.912,18.69
			c0.124,0,0.248,0,0.372,0c3.599,0,7.168,0.529,10.61,1.594c19.115,5.912,29.815,26.201,23.932,45.246
			c-5.738,18.496-14.879,29.947-29.649,37.141c-6.773,3.268-13.912,4.889-21.342,4.889
			C323.936,234.866,323.936,234.866,323.923,234.866z"/>
		<path fill="none" stroke="#28A5DA" stroke-width="20" stroke-miterlimit="10" d="M342.729,174.561
			c-4.201-1.289-8.663,1.074-9.93,5.238c-2.899,9.422-5.212,9.773-6.823,10.539c-1.591,0.77-3.743,0.543-7.191-0.799
			c-0.53-0.314-1.967-2.18-2.787-3.92c-1.237-2.66-2.692-13.709-2.829-20.018c-0.609-23.295-4.658-36.097-11.2-43.158
			c4.416-2.902,7.63-6.673,7.987-7.15c0.058-0.062,0.106-0.11,0.162-0.189c9.729-12.613,12.032-23.511,6.862-32.351
			c-12.972-22.087-69.952-15.535-87.105-13.001c-4.352,0.627-7.333,4.678-6.678,9.004c0.609,4.354,4.651,7.332,8.985,6.676
			c4.065-0.595,8.227-1.089,12.409-1.477l0.157,36.94c-1.32,0.079-2.631,0.119-3.924,0.119c-4.375,0-7.932,3.529-7.932,7.923
			c0,4.363,3.557,7.936,7.932,7.936c1.32,0,2.646-0.037,4.002-0.096l0.167,46.182l-10.921,1.59c-4.334,0.633-7.332,4.676-6.687,8.99
			c0.614,4.35,4.649,7.348,8.981,6.727l38.284-5.619c4.319-0.633,7.33-4.654,6.689-8.975c-0.628-4.354-4.675-7.35-8.992-6.744
			l-11.492,1.703l-0.208-45.518c7.572-1.225,14.781-2.862,20.804-4.697l0,0h0.013c0.043-0.012,1.741-0.228,2.788-0.046
			c3.192,0.542,4.948,1.122,6.791,3.733c2.583,3.602,5.767,12.073,6.258,31.905c0.097,3.822,1.106,19.457,4.317,26.328
			c1,2.174,4.84,9.443,11.458,12.002c4.872,1.904,12.219,3.939,19.841,0.277c7.041-3.434,11.421-8.422,15.052-20.117
			C349.266,180.305,346.908,175.856,342.729,174.561z M297.625,103.725c-0.706,0.825-2.73,2.962-4.836,4.217
			c-1.95,1.146-4.615,1.941-7.187,2.729l-4.032,1.286c-5.593,1.99-12.997,4.072-20.96,5.532l-0.146-36.086
			c20.98-0.578,39.287,1.774,42.825,7.834c0.327,0.52,0.466,1.185,0.466,1.973C303.754,94.107,301.597,98.583,297.625,103.725z"/>
		<path fill="none" stroke="#28A5DA" stroke-width="20" stroke-miterlimit="10" d="M592.141,233.284
			c-40.888,0-64.308-30.744-66.29-61.104h0.013c-0.092-1.91-0.174-5.766-0.383-15.896c-0.003-0.326-0.011-0.643-0.003-0.969
			c0.256-18.697,0.304-22.335,0.386-23.756h-0.003c2.059-29.099,12.122-49.4,29.924-60.346c8.442-5.229,18.08-7.886,28.571-7.886
			c3.593,0,7.023,0.314,10.211,0.821c6.622-7.482,16.307-12.211,27.071-12.211c19.938,0,36.158,16.214,36.158,36.138v34.381
			c0,4.105-0.701,8.089-2.007,11.823c4.973,5.887,8.11,13.356,8.493,21.504c0.216,2.756,0.335,4.521,0.246,6.377
			c-0.276,9.248-0.29,9.342-0.43,10.605c-0.021,0.301-0.059,0.615-0.11,0.912c-0.837,6.012-3.019,17.439-8.132,26.412
			c-3.293,5.75-6.715,9.896-9.933,13.531c-6.477,7.295-13.928,11.35-20.378,14.363c-10.755,5.057-20.031,5.152-26.815,5.221
			l-4.274,0.045C593.68,233.268,592.9,233.284,592.141,233.284z"/>
		<path fill="none" stroke="#28A5DA" stroke-width="20" stroke-miterlimit="10" d="M628.039,149.606
			c-4.318,0.055-7.776,3.604-7.776,7.93c0,0.043,0.212,2.564,0.212,2.885c0,0.318-0.171,6.584-0.197,7.473
			c-0.504,3.279-1.655,8.504-2.729,10.361c-1.191,2.082-2.436,3.645-4.644,6.162c-1.242,1.412-4.259,2.818-6.061,3.68
			c-2.037,0.939-4.001,0.977-8.614,1.027l-4.825,0.062c-20.632,0.664-23.238-16.119-23.57-19.793
			c-0.01-0.543-0.249-13.336-0.249-13.613c0-0.252,0.239-20.673,0.249-21.256c0.995-13.628,4.207-22.793,9.052-25.755
			c3.734-2.328,9.701-1.698,18.253,1.867c10.522,4.388,17.68,15.864,17.756,15.956c1.855,3.02,5.505,4.425,8.906,3.481
			c3.42-0.967,5.779-4.059,5.779-7.617V88.075c0-4.36-3.539-7.923-7.943-7.923c-4.353,0-7.939,3.563-7.939,7.923v14.126
			c-3.071-2.391-6.58-4.583-10.461-6.208c-5.007-2.094-20.233-8.438-32.674-0.752c-9.745,5.996-15.155,18.535-16.564,38.314
			c-0.01,0.144-0.308,22.146-0.308,22.146s0.298,14.539,0.308,14.639c0.821,12.412,10.218,35.654,39.896,34.701l4.452-0.049
			c5.365-0.047,9.975-0.082,15.243-2.557c3.755-1.762,8.047-3.965,11.207-7.514c2.284-2.584,4.493-5.221,6.545-8.801
			c3.047-5.346,4.455-14.574,4.702-16.354c0.033-0.287,0.29-9.047,0.29-9.047c0.024-0.123-0.223-3.318-0.223-3.318
			C636.045,153.042,632.44,149.53,628.039,149.606z"/>
		<path fill="none" stroke="#28A5DA" stroke-width="20" stroke-miterlimit="10" d="M704.883,245.999
			c-8.521,0-16.704-3.201-23.027-9.02c-2.547-2.326-4.681-4.936-6.397-7.754l-29.818-0.5c-19.868-0.344-35.806-16.768-35.55-36.605
			c0.249-14.471,9.045-26.918,21.447-32.525l0.099-55.411c-12.378-5.747-20.995-18.296-20.995-32.831
			c0-19.929,16.216-36.148,36.142-36.148h33.986c6.49-7.878,16.264-13.004,27.257-13.219c0,0,41.787-0.715,41.951-0.715
			c19.607,0,35.826,15.945,36.159,35.555c0.214,14.314-7.918,26.833-19.871,32.887c0.242,39.263,0.386,63.935,0.46,80.19
			c10.957,5.652,18.736,16.771,19.574,29.826c1.272,19.904-13.862,37.133-33.747,38.404c-16.403,1.074-26.867,2.93-29.801,3.762
			c-0.572,0.236-1.143,0.449-1.728,0.637C717.398,243.913,711.924,245.999,704.883,245.999z"/>
		<path fill="none" stroke="#28A5DA" stroke-width="20" stroke-miterlimit="10" d="M415.525,204.538
			c-7.852-0.004-15.327-2.486-21.615-7.203c-1.364-1.002-2.637-2.092-3.831-3.248c-4.495,1.994-9.473,3.109-14.694,3.109
			c-0.543,0-1.085-0.012-1.631-0.039l-39.56-1.873c-19.88-0.924-35.331-17.857-34.431-37.738
			c0.871-19.334,16.733-34.502,36.127-34.502c0.164,0,0.331,0,0.497,0.003c1.816-9.099,6.247-31.316,6.461-32.386
			c-13.099-4.127-23.172-15.538-25.059-29.716c-2.591-19.741,11.31-37.931,30.967-40.609l33.96-4.669
			c1.614-0.219,3.268-0.333,4.891-0.333c9.953,0,19.564,4.167,26.389,11.445c2.482,2.631,6.052,7.798,7.964,12.367l29.805,72.043
			c0.14,0.332,0.301,0.708,0.479,1.146c0.092-0.001,0.195-0.001,0.284-0.001c15.213,0,28.888,9.614,34.034,23.938
			c6.682,18.72-3.054,39.429-21.696,46.207c-11.911,4.254-19.537,8.156-22.289,9.896c-6.812,7.666-16.708,12.164-27.049,12.164
			C415.528,204.538,415.528,204.538,415.525,204.538z"/>
		<path fill="none" stroke="#28A5DA" stroke-width="20" stroke-miterlimit="10" d="M449.861,141.012
			c-2.35,0.834-6.895,3.115-13.945,6.213c0,0-9.852-24.576-10.201-25.185l-29.827-72.113c-0.297-0.769-1.961-3.308-2.475-3.854
			c-1.764-1.882-4.322-2.806-6.856-2.454l-34.003,4.675c-4.342,0.59-7.36,4.589-6.797,8.921c0.582,4.354,4.566,7.376,8.917,6.818
			c0,0,12.656-1.819,22.911-3.204c-2.94,14.461-14.652,73.576-18.324,91.55l-23.014-1.117c-4.371-0.189-8.099,3.18-8.3,7.57
			c-0.189,4.367,3.21,8.062,7.582,8.266l39.489,1.873c4.371,0.189,8.085-3.188,8.304-7.547c0.197-4.4-2.36-8.361-8.016-8.361
			l1.815-12.094l36.688-6.08l7.854,19.42c-5.98,3.422-9.715,5.584-12.512,9.338c-2.614,3.537-1.864,8.494,1.662,11.096
			c3.494,2.623,8.479,1.885,11.103-1.637c3.525-4.754,18.511-11.854,33.31-17.15c4.114-1.49,6.251-6.041,4.777-10.158
			C458.529,141.69,453.971,139.538,449.861,141.012z M380.505,128.227l9.729-47.62l17.448,43.112L380.505,128.227z"/>
		<path fill="none" stroke="#28A5DA" stroke-width="20" stroke-miterlimit="10" d="M471.605,227.219
			c-19.584,0-35.803-15.959-36.141-35.564c-0.243-16.057,10.029-29.846,24.422-34.791l-0.021-10.68
			c-1.07,0.258-2.161,0.471-3.263,0.637c-1.777,0.273-3.594,0.408-5.375,0.408c-18.024,0-33.05-12.947-35.732-30.772l-6.05-38.914
			c-1.605-10.313,1.37-20.835,8.165-28.851c6.695-7.981,16.629-12.659,27.165-12.779l50.476-0.844
			c24.525-0.465,46.409-2.011,47.589-2.093c0.169-0.024,0.339-0.034,0.514-0.042c0.78-0.047,1.562-0.079,2.335-0.079
			c9.671,0,19.075,3.943,25.814,10.816c7.26,7.292,11.049,17.596,10.252,28.095c-0.681,8.995-0.896,23.217-0.927,26.666
			c0.403,14.639-7.602,27.884-20.634,33.959c-4.821,2.271-10.279,3.515-15.675,3.515l0,0c-4.289,0-8.478-0.783-12.372-2.226
			l0.044,22.69c13.713,5.018,23.653,18.135,23.865,33.484c0.151,9.66-3.505,18.82-10.279,25.754
			c-6.763,6.924-15.812,10.799-25.485,10.887C520.293,226.497,471.739,227.219,471.605,227.219z"/>
		<path fill="none" stroke="#28A5DA" stroke-width="20" stroke-miterlimit="10" d="M545.174,61.084
			c-0.246,0.034-23.476,1.7-49.453,2.199l-50.627,0.845c-2.301,0.017-4.47,1.024-5.95,2.803c-1.483,1.731-2.164,4.026-1.819,6.286
			l6.066,39.041c0.66,4.334,4.688,7.311,9.021,6.67c3.942-0.592,6.757-3.98,6.757-7.844c0-0.364-3.188-20.356-4.801-31.233
			c2.059-0.01,33.583-0.574,33.583-0.574l0.205,103.629l-16.671,0.215c-4.376,0.076-7.878,3.684-7.813,8.043
			c0.086,4.398,3.669,7.896,8.033,7.842l48.324-0.723c4.374-0.041,7.882-3.676,7.824-8.039c-0.068-4.395-3.673-7.867-8.046-7.834
			l-15.781,0.242L503.821,78.97c13.661-0.381,25.354-1.031,33.367-1.469c-0.403,6.593-0.599,11.565-0.599,15.18
			c0,8.484,0.907,10.094,1.598,11.29c2.018,3.667,6.299,4.639,10.085,2.85c2.946-1.368,4.526-4.674,4.339-7.919
			c-0.008-0.133,0.15-17.905,1.013-29.267c0.17-2.318-0.641-4.573-2.274-6.216C549.742,61.778,547.462,60.942,545.174,61.084z"/>
		<path fill="none" stroke="#28A5DA" stroke-width="20" stroke-miterlimit="10" d="M175.126,243.215
			c-40.706-0.01-64.119-30.422-66.361-60.637c-0.069-0.922-0.096-1.701-0.102-2.32l-0.288-14.668c0-0.127,0.288-21.967,0.288-21.967
			c0.002-0.68,0.034-1.436,0.087-2.215c2.092-29.076,12.161-49.368,29.936-60.303c8.477-5.224,18.098-7.872,28.566-7.872
			c3.596,0,7.029,0.325,10.218,0.83c6.627-7.494,16.312-12.227,27.083-12.227c19.936,0,36.143,16.219,36.143,36.157v34.35
			c0,3.702-0.565,7.309-1.639,10.729c4.831,5.916,7.843,13.377,8.133,21.498l0.222,4.172c0.032,0.506,0.042,1.016,0.042,1.531
			c0,0.09-0.105,9.744-0.595,13.385h0.002c-1.057,7.389-3.323,17.973-8.132,26.371c-3.318,5.828-6.811,9.975-9.825,13.412
			c-6.608,7.393-14.039,11.441-20.46,14.439c-10.737,5.068-20.033,5.154-26.821,5.219l-4.142,0.082
			c-0.783,0.021-1.568,0.035-2.348,0.035C175.13,243.215,175.128,243.215,175.126,243.215z"/>
		<path fill="none" stroke="#28A5DA" stroke-width="20" stroke-miterlimit="10" d="M210.958,157.924
			c-4.348,0.08-7.803,3.635-7.803,7.945c0,0.043,0.217,4.127,0.217,4.461c-0.004,0.322-0.175,6.545-0.202,7.457
			c-0.5,3.277-1.64,8.502-2.716,10.359c-1.185,2.086-2.512,3.73-4.668,6.154c-1.229,1.42-4.239,2.842-6.049,3.666
			c-2.032,0.961-3.979,1.006-8.592,1.051l-4.844,0.078c-20.633,0.633-23.23-16.102-23.563-19.803
			c-0.007-0.543-0.265-13.355-0.287-13.605c0.022-0.264,0.287-20.689,0.287-21.273c0.999-13.625,4.198-22.791,9.05-25.749
			c3.718-2.332,9.693-1.696,18.239,1.864c10.522,4.405,17.701,15.847,17.746,15.97c1.868,3.005,5.518,4.447,8.926,3.466
			c3.421-0.957,5.784-4.059,5.784-7.623v-34.35c0-4.386-3.56-7.942-7.928-7.942c-4.401,0-7.939,3.556-7.939,7.942v14.101
			c-3.083-2.389-6.581-4.598-10.481-6.205c-4.99-2.088-20.226-8.416-32.661-0.754c-9.743,5.991-15.163,18.531-16.584,38.319
			c-0.011,0.156-0.011,0.305-0.011,0.432l-0.289,21.705v0.279l0.289,14.016c0,0.127,0,0.242,0.011,0.342
			c0.83,12.438,10.218,35.639,39.902,34.75l4.455-0.09c5.357-0.051,9.976-0.074,15.244-2.557c3.773-1.762,8.031-3.951,11.215-7.518
			c2.282-2.588,4.502-5.221,6.534-8.791c3.056-5.348,4.44-14.576,4.694-16.355c0.044-0.301,0.307-9.289,0.307-9.395l-0.237-4.529
			C218.933,161.358,215.321,157.842,210.958,157.924z"/>
	</g>
	<g>
		<g>
			<path fill="#F7F8F9" d="M50.106,242.268c-18.878,0-34.712-14.791-36.046-33.662c-0.013-0.246-0.023-0.5-0.042-0.75
				c-0.308-6.059-0.713-17.855,0.021-31.15c0.494-8.672,0.713-23.26,0.72-23.783c0.001-0.039,0.001-0.068,0.001-0.107
				c0.129-8.943,3.565-17.134,9.127-23.405c-2.754-9.605-3.648-21.057-1.931-34.544l0.261-2.114
				c0.976-7.988,2.43-19.826,8.445-31.217c9.094-17.2,25.761-27.072,45.723-27.072c1.148,0,2.34,0.032,3.554,0.103
				c1.788,0.099,3.744,0.312,5.831,0.681c6.381-5.629,14.762-9.055,23.914-9.055c0.117,0,0.249,0,0.368,0
				c19.798,0.246,35.836,16.529,35.736,36.312c0,0.133-0.001,0.271-0.003,0.403c-0.006,0.439-1.812,51.001-2.357,54.596
				c-0.04,0.25-0.081,0.496-0.123,0.742c-0.477,2.689-1.254,5.261-2.273,7.694c8.739,10.273,13.461,23.038,13.618,37.458
				c0.189,18.137-8.109,35.75-22.779,48.314c-12.589,10.799-28.567,16.734-44.97,16.734c-0.003,0,0,0-0.003,0
				c-2.659,0-5.315-0.146-7.958-0.461c-0.539,0.707-1.112,1.406-1.705,2.076c-6.391,7.229-15.226,11.543-24.868,12.135
				C51.725,242.241,50.908,242.268,50.106,242.268z"/>
			<path fill="#F7F8F9" d="M77.193,126.732c-9.102-1.422-13.92-7.482-11.527-26.322l0.289-2.275
				c2.02-16.386,3.754-19.97,11.568-19.567c2.337,0.147,4.992,1.594,7.663,3.775c2.408,2.838,7.921,6.523,10.956,13.848
				c2.225,5.336,2.983,8.815,3.264,12.565c0.026,0.12,0.529,4.598,0.529,4.598l0.005-0.003c0.6,3.134,3.062,5.719,6.388,6.319
				c4.296,0.769,8.429-2.091,9.206-6.4c0.066-0.492,2.026-50.074,2.038-50.896c0.025-4.365-3.497-7.918-7.865-7.967
				c-4.403-0.008-7.97,3.521-7.989,7.909c0,0.092-0.038,6.897-0.161,13.81c-6.216-6.796-14.239-12.883-23.16-13.386
				c-24.011-1.318-26.617,20.734-28.176,33.46l-0.279,2.233c-3.192,25.068,5.164,40.914,24.819,43.984
				c21.383,3.369,35.662,8.285,35.797,21.441c0.055,5.082-2.613,10.326-7.336,14.375c-5.627,4.826-13.238,6.982-20.324,5.789
				c-2.203-0.355-4.3-0.912-6.264-1.613c-2.84-1.545-9.879-5.822-13.457-10.783c-3.024-4.184-4.052-10.764-4.387-14.922
				c0.041-1.854,0.062-3.094,0.07-3.262c0.049-4.359-3.442-7.947-7.824-8.031c-4.377-0.08-8.004,3.418-8.061,7.818
				c0,0.15-0.238,15.666-0.758,25.025c-0.83,15.057-0.022,27.832,0,28.375c0.304,4.377,4.058,7.701,8.432,7.41
				c4.392-0.273,7.685-4.053,7.417-8.412c0-0.117-0.402-6.254-0.345-14.84c5.795,3.73,13.395,7.348,22.565,8.896
				c11.827,1.977,23.944-1.436,33.24-9.402c8.299-7.1,13.012-16.801,12.911-26.588C126.117,134.392,93.1,129.235,77.193,126.732z"/>
			<path fill="#F7F8F9" d="M323.923,234.866c-6.864-0.008-13.765-1.387-21.072-4.225c-6.472-2.502-11.633-6.312-15.672-10.367
				c-2.679,1.09-5.5,1.865-8.435,2.293l-38.276,5.615c-1.8,0.254-3.523,0.377-5.235,0.377c-17.866,0-33.249-13.336-35.785-31.029
				c-1.387-9.428,1.009-18.953,6.776-26.703c2.889-3.885,6.447-7.078,10.477-9.482l-0.026-5.529
				c-7.355-6.623-11.997-16.221-11.997-26.877c0-7.833,2.508-15.091,6.754-21.024c-8.526-5.534-14.67-14.574-16.18-25.202
				c-1.397-9.361,0.995-18.92,6.777-26.7c5.779-7.766,14.23-12.803,23.819-14.186c7.993-1.178,24.131-3.189,41.305-3.189
				c38.11,0,62.372,9.761,74.155,29.839c6.153,10.501,13.167,31.614-5.208,58.83c1.732,5.571,3.029,11.76,3.912,18.69
				c0.124,0,0.248,0,0.372,0c3.599,0,7.168,0.529,10.61,1.594c19.115,5.912,29.815,26.201,23.932,45.246
				c-5.738,18.496-14.879,29.947-29.649,37.141c-6.773,3.268-13.912,4.889-21.342,4.889
				C323.936,234.866,323.936,234.866,323.923,234.866z"/>
			<path fill="#F7F8F9" d="M342.729,174.561c-4.201-1.289-8.663,1.074-9.93,5.238c-2.899,9.422-5.212,9.773-6.823,10.539
				c-1.591,0.77-3.743,0.543-7.191-0.799c-0.53-0.314-1.967-2.18-2.787-3.92c-1.237-2.66-2.692-13.709-2.829-20.018
				c-0.609-23.295-4.658-36.097-11.2-43.158c4.416-2.902,7.63-6.673,7.987-7.15c0.058-0.062,0.106-0.11,0.162-0.189
				c9.729-12.613,12.032-23.511,6.862-32.351c-12.972-22.087-69.952-15.535-87.105-13.001c-4.352,0.627-7.333,4.678-6.678,9.004
				c0.609,4.354,4.651,7.332,8.985,6.676c4.065-0.595,8.227-1.089,12.409-1.477l0.157,36.94c-1.32,0.079-2.631,0.119-3.924,0.119
				c-4.375,0-7.932,3.529-7.932,7.923c0,4.363,3.557,7.936,7.932,7.936c1.32,0,2.646-0.037,4.002-0.096l0.167,46.182l-10.921,1.59
				c-4.334,0.633-7.332,4.676-6.687,8.99c0.614,4.35,4.649,7.348,8.981,6.727l38.284-5.619c4.319-0.633,7.33-4.654,6.689-8.975
				c-0.628-4.354-4.675-7.35-8.992-6.744l-11.492,1.703l-0.208-45.518c7.572-1.225,14.781-2.862,20.804-4.697l0,0h0.013
				c0.043-0.012,1.741-0.228,2.788-0.046c3.192,0.542,4.948,1.122,6.791,3.733c2.583,3.602,5.767,12.073,6.258,31.905
				c0.097,3.822,1.106,19.457,4.317,26.328c1,2.174,4.84,9.443,11.458,12.002c4.872,1.904,12.219,3.939,19.841,0.277
				c7.041-3.434,11.421-8.422,15.052-20.117C349.266,180.305,346.908,175.856,342.729,174.561z M297.625,103.725
				c-0.706,0.825-2.73,2.962-4.836,4.217c-1.95,1.146-4.615,1.941-7.187,2.729l-4.032,1.286c-5.593,1.99-12.997,4.072-20.96,5.532
				l-0.146-36.086c20.98-0.578,39.287,1.774,42.825,7.834c0.327,0.52,0.466,1.185,0.466,1.973
				C303.754,94.107,301.597,98.583,297.625,103.725z"/>
			<path fill="#F7F8F9" d="M592.141,233.284c-40.888,0-64.308-30.744-66.29-61.104h0.013c-0.092-1.91-0.174-5.766-0.383-15.896
				c-0.003-0.326-0.011-0.643-0.003-0.969c0.256-18.697,0.304-22.335,0.386-23.756h-0.003c2.059-29.099,12.122-49.4,29.924-60.346
				c8.442-5.229,18.08-7.886,28.571-7.886c3.593,0,7.023,0.314,10.211,0.821c6.622-7.482,16.307-12.211,27.071-12.211
				c19.938,0,36.158,16.214,36.158,36.138v34.381c0,4.105-0.701,8.089-2.007,11.823c4.973,5.887,8.11,13.356,8.493,21.504
				c0.216,2.756,0.335,4.521,0.246,6.377c-0.276,9.248-0.29,9.342-0.43,10.605c-0.021,0.301-0.059,0.615-0.11,0.912
				c-0.837,6.012-3.019,17.439-8.132,26.412c-3.293,5.75-6.715,9.896-9.933,13.531c-6.477,7.295-13.928,11.35-20.378,14.363
				c-10.755,5.057-20.031,5.152-26.815,5.221l-4.274,0.045C593.68,233.268,592.9,233.284,592.141,233.284z"/>
			<path fill="#F7F8F9" d="M628.039,149.606c-4.318,0.055-7.776,3.604-7.776,7.93c0,0.043,0.212,2.564,0.212,2.885
				c0,0.318-0.171,6.584-0.197,7.473c-0.504,3.279-1.655,8.504-2.729,10.361c-1.191,2.082-2.436,3.645-4.644,6.162
				c-1.242,1.412-4.259,2.818-6.061,3.68c-2.037,0.939-4.001,0.977-8.614,1.027l-4.825,0.062
				c-20.632,0.664-23.238-16.119-23.57-19.793c-0.01-0.543-0.249-13.336-0.249-13.613c0-0.252,0.239-20.673,0.249-21.256
				c0.995-13.628,4.207-22.793,9.052-25.755c3.734-2.328,9.701-1.698,18.253,1.867c10.522,4.388,17.68,15.864,17.756,15.956
				c1.855,3.02,5.505,4.425,8.906,3.481c3.42-0.967,5.779-4.059,5.779-7.617V88.075c0-4.36-3.539-7.923-7.943-7.923
				c-4.353,0-7.939,3.563-7.939,7.923v14.126c-3.071-2.391-6.58-4.583-10.461-6.208c-5.007-2.094-20.233-8.438-32.674-0.752
				c-9.745,5.996-15.155,18.535-16.564,38.314c-0.01,0.144-0.308,22.146-0.308,22.146s0.298,14.539,0.308,14.639
				c0.821,12.412,10.218,35.654,39.896,34.701l4.452-0.049c5.365-0.047,9.975-0.082,15.243-2.557
				c3.755-1.762,8.047-3.965,11.207-7.514c2.284-2.584,4.493-5.221,6.545-8.801c3.047-5.346,4.455-14.574,4.702-16.354
				c0.033-0.287,0.29-9.047,0.29-9.047c0.024-0.123-0.223-3.318-0.223-3.318C636.045,153.042,632.44,149.53,628.039,149.606z"/>
			<path fill="#F7F8F9" d="M704.883,245.999c-8.521,0-16.704-3.201-23.027-9.02c-2.547-2.326-4.681-4.936-6.397-7.754l-29.818-0.5
				c-19.868-0.344-35.806-16.768-35.55-36.605c0.249-14.471,9.045-26.918,21.447-32.525l0.099-55.411
				c-12.378-5.747-20.995-18.296-20.995-32.831c0-19.929,16.216-36.148,36.142-36.148h33.986
				c6.49-7.878,16.264-13.004,27.257-13.219c0,0,41.787-0.715,41.951-0.715c19.607,0,35.826,15.945,36.159,35.555
				c0.214,14.314-7.918,26.833-19.871,32.887c0.242,39.263,0.386,63.935,0.46,80.19c10.957,5.652,18.736,16.771,19.574,29.826
				c1.272,19.904-13.862,37.133-33.747,38.404c-16.403,1.074-26.867,2.93-29.801,3.762c-0.572,0.236-1.143,0.449-1.728,0.637
				C717.398,243.913,711.924,245.999,704.883,245.999z"/>
			<path fill="#F7F8F9" d="M758.149,201.547c-0.281-4.363-4.056-7.693-8.426-7.41c-2.951,0.199-6.829,0.492-11.147,0.955
				c0.014-13.559-0.127-40.877-0.67-129.539l12.217-0.172c4.364-0.074,7.868-3.708,7.804-8.083c-0.068-4.37-3.68-7.875-8.056-7.813
				l-41.295,0.701c-4.394,0.096-7.868,3.689-7.793,8.074c0.055,4.376,3.68,7.885,8.043,7.799l13.189-0.239
				c0.125,17.351,0.218,36.056,0.331,54.978l-46.666,7.801l0.085-49.292h12.683c4.392,0,7.955-3.56,7.955-7.954
				c0-4.374-3.563-7.934-7.955-7.934h-41.666c-4.381,0-7.924,3.56-7.924,7.934c0,4.394,3.543,7.954,7.924,7.954h13.113
				l-0.188,105.577l-13.346-0.232c-4.37-0.074-7.981,3.424-8.06,7.842c-0.052,4.344,3.426,7.945,7.806,8.021l42.861,0.719
				c4.38,0.062,7.987-3.439,8.056-7.814c0.066-4.396-3.426-7.99-7.793-8.049l-13.667-0.219l0.085-40.48l46.797-7.811
				c0.157,29.904,0.276,49.848,0.276,60.502c-10.81,2.045-18.055,2.895-22.452,7.83c-2.859,3.232-2.524,8.098,0.676,11.008
				c3.188,2.938,6.741,1.182,11.224-0.479l-0.059,0.041c4.579-2.078,19.684-4.553,38.628-5.779
				C755.112,209.696,758.43,205.928,758.149,201.547z"/>
			<path fill="#F7F8F9" d="M415.525,204.538c-7.852-0.004-15.327-2.486-21.615-7.203c-1.364-1.002-2.637-2.092-3.831-3.248
				c-4.495,1.994-9.473,3.109-14.694,3.109c-0.543,0-1.085-0.012-1.631-0.039l-39.56-1.873
				c-19.88-0.924-35.331-17.857-34.431-37.738c0.871-19.334,16.733-34.502,36.127-34.502c0.164,0,0.331,0,0.497,0.003
				c1.816-9.099,6.247-31.316,6.461-32.386c-13.099-4.127-23.172-15.538-25.059-29.716c-2.591-19.741,11.31-37.931,30.967-40.609
				l33.96-4.669c1.614-0.219,3.268-0.333,4.891-0.333c9.953,0,19.564,4.167,26.389,11.445c2.482,2.631,6.052,7.798,7.964,12.367
				l29.805,72.043c0.14,0.332,0.301,0.708,0.479,1.146c0.092-0.001,0.195-0.001,0.284-0.001c15.213,0,28.888,9.614,34.034,23.938
				c6.682,18.72-3.054,39.429-21.696,46.207c-11.911,4.254-19.537,8.156-22.289,9.896c-6.812,7.666-16.708,12.164-27.049,12.164
				C415.528,204.538,415.528,204.538,415.525,204.538z"/>
			<path fill="#F7F8F9" d="M449.861,141.012c-2.35,0.834-6.895,3.115-13.945,6.213c0,0-9.852-24.576-10.201-25.185l-29.827-72.113
				c-0.297-0.769-1.961-3.308-2.475-3.854c-1.764-1.882-4.322-2.806-6.856-2.454l-34.003,4.675c-4.342,0.59-7.36,4.589-6.797,8.921
				c0.582,4.354,4.566,7.376,8.917,6.818c0,0,12.656-1.819,22.911-3.204c-2.94,14.461-14.652,73.576-18.324,91.55l-23.014-1.117
				c-4.371-0.189-8.099,3.18-8.3,7.57c-0.189,4.367,3.21,8.062,7.582,8.266l39.489,1.873c4.371,0.189,8.085-3.188,8.304-7.547
				c0.197-4.4-2.36-8.361-8.016-8.361l1.815-12.094l36.688-6.08l7.854,19.42c-5.98,3.422-9.715,5.584-12.512,9.338
				c-2.614,3.537-1.864,8.494,1.662,11.096c3.494,2.623,8.479,1.885,11.103-1.637c3.525-4.754,18.511-11.854,33.31-17.15
				c4.114-1.49,6.251-6.041,4.777-10.158C458.529,141.69,453.971,139.538,449.861,141.012z M380.505,128.227l9.729-47.62
				l17.448,43.112L380.505,128.227z"/>
			<path fill="#F7F8F9" d="M471.605,227.219c-19.584,0-35.803-15.959-36.141-35.564c-0.243-16.057,10.029-29.846,24.422-34.791
				l-0.021-10.68c-1.07,0.258-2.161,0.471-3.263,0.637c-1.777,0.273-3.594,0.408-5.375,0.408c-18.024,0-33.05-12.947-35.732-30.772
				l-6.05-38.914c-1.605-10.313,1.37-20.835,8.165-28.851c6.695-7.981,16.629-12.659,27.165-12.779l50.476-0.844
				c24.525-0.465,46.409-2.011,47.589-2.093c0.169-0.024,0.339-0.034,0.514-0.042c0.78-0.047,1.562-0.079,2.335-0.079
				c9.671,0,19.075,3.943,25.814,10.816c7.26,7.292,11.049,17.596,10.252,28.095c-0.681,8.995-0.896,23.217-0.927,26.666
				c0.403,14.639-7.602,27.884-20.634,33.959c-4.821,2.271-10.279,3.515-15.675,3.515l0,0c-4.289,0-8.478-0.783-12.372-2.226
				l0.044,22.69c13.713,5.018,23.653,18.135,23.865,33.484c0.151,9.66-3.505,18.82-10.279,25.754
				c-6.763,6.924-15.812,10.799-25.485,10.887C520.293,226.497,471.739,227.219,471.605,227.219z"/>
			<path fill="#F7F8F9" d="M545.174,61.084c-0.246,0.034-23.476,1.7-49.453,2.199l-50.627,0.845c-2.301,0.017-4.47,1.024-5.95,2.803
				c-1.483,1.731-2.164,4.026-1.819,6.286l6.066,39.041c0.66,4.334,4.688,7.311,9.021,6.67c3.942-0.592,6.757-3.98,6.757-7.844
				c0-0.364-3.188-20.356-4.801-31.233c2.059-0.01,33.583-0.574,33.583-0.574l0.205,103.629l-16.671,0.215
				c-4.376,0.076-7.878,3.684-7.813,8.043c0.086,4.398,3.669,7.896,8.033,7.842l48.324-0.723c4.374-0.041,7.882-3.676,7.824-8.039
				c-0.068-4.395-3.673-7.867-8.046-7.834l-15.781,0.242L503.821,78.97c13.661-0.381,25.354-1.031,33.367-1.469
				c-0.403,6.593-0.599,11.565-0.599,15.18c0,8.484,0.907,10.094,1.598,11.29c2.018,3.667,6.299,4.639,10.085,2.85
				c2.946-1.368,4.526-4.674,4.339-7.919c-0.008-0.133,0.15-17.905,1.013-29.267c0.17-2.318-0.641-4.573-2.274-6.216
				C549.742,61.778,547.462,60.942,545.174,61.084z"/>
			<path fill="#F7F8F9" d="M175.126,243.215c-40.706-0.01-64.119-30.422-66.361-60.637c-0.069-0.922-0.096-1.701-0.102-2.32
				l-0.288-14.668c0-0.127,0.288-21.967,0.288-21.967c0.002-0.68,0.034-1.436,0.087-2.215c2.092-29.076,12.161-49.368,29.936-60.303
				c8.477-5.224,18.098-7.872,28.566-7.872c3.596,0,7.029,0.325,10.218,0.83c6.627-7.494,16.312-12.227,27.083-12.227
				c19.936,0,36.143,16.219,36.143,36.157v34.35c0,3.702-0.565,7.309-1.639,10.729c4.831,5.916,7.843,13.377,8.133,21.498
				l0.222,4.172c0.032,0.506,0.042,1.016,0.042,1.531c0,0.09-0.105,9.744-0.595,13.385h0.002
				c-1.057,7.389-3.323,17.973-8.132,26.371c-3.318,5.828-6.811,9.975-9.825,13.412c-6.608,7.393-14.039,11.441-20.46,14.439
				c-10.737,5.068-20.033,5.154-26.821,5.219l-4.142,0.082c-0.783,0.021-1.568,0.035-2.348,0.035
				C175.13,243.215,175.128,243.215,175.126,243.215z"/>
			<path fill="#F7F8F9" d="M210.958,157.924c-4.348,0.08-7.803,3.635-7.803,7.945c0,0.043,0.217,4.127,0.217,4.461
				c-0.004,0.322-0.175,6.545-0.202,7.457c-0.5,3.277-1.64,8.502-2.716,10.359c-1.185,2.086-2.512,3.73-4.668,6.154
				c-1.229,1.42-4.239,2.842-6.049,3.666c-2.032,0.961-3.979,1.006-8.592,1.051l-4.844,0.078
				c-20.633,0.633-23.23-16.102-23.563-19.803c-0.007-0.543-0.265-13.355-0.287-13.605c0.022-0.264,0.287-20.689,0.287-21.273
				c0.999-13.625,4.198-22.791,9.05-25.749c3.718-2.332,9.693-1.696,18.239,1.864c10.522,4.405,17.701,15.847,17.746,15.97
				c1.868,3.005,5.518,4.447,8.926,3.466c3.421-0.957,5.784-4.059,5.784-7.623v-34.35c0-4.386-3.56-7.942-7.928-7.942
				c-4.401,0-7.939,3.556-7.939,7.942v14.101c-3.083-2.389-6.581-4.598-10.481-6.205c-4.99-2.088-20.226-8.416-32.661-0.754
				c-9.743,5.991-15.163,18.531-16.584,38.319c-0.011,0.156-0.011,0.305-0.011,0.432l-0.289,21.705v0.279l0.289,14.016
				c0,0.127,0,0.242,0.011,0.342c0.83,12.438,10.218,35.639,39.902,34.75l4.455-0.09c5.357-0.051,9.976-0.074,15.244-2.557
				c3.773-1.762,8.031-3.951,11.215-7.518c2.282-2.588,4.502-5.221,6.534-8.791c3.056-5.348,4.44-14.576,4.694-16.355
				c0.044-0.301,0.307-9.289,0.307-9.395l-0.237-4.529C218.933,161.358,215.321,157.842,210.958,157.924z"/>
		</g>
		<path fill="#F9A737" d="M77.193,126.732c-9.102-1.422-13.92-7.482-11.527-26.322l0.289-2.275
			c2.02-16.386,3.754-19.97,11.568-19.567c2.337,0.147,4.992,1.594,7.663,3.775c2.408,2.838,7.921,6.523,10.956,13.848
			c2.225,5.336,2.983,8.815,3.264,12.565c0.026,0.12,0.529,4.598,0.529,4.598l0.005-0.003c0.6,3.134,3.062,5.719,6.388,6.319
			c4.296,0.769,8.429-2.091,9.206-6.4c0.066-0.492,2.026-50.074,2.038-50.896c0.025-4.365-3.497-7.918-7.865-7.967
			c-4.403-0.008-7.97,3.521-7.989,7.909c0,0.092-0.038,6.897-0.161,13.81c-6.216-6.796-14.239-12.883-23.16-13.386
			c-24.011-1.318-26.617,20.734-28.176,33.46l-0.279,2.233c-3.192,25.068,5.164,40.914,24.819,43.984
			c21.383,3.369,35.662,8.285,35.797,21.441c0.055,5.082-2.613,10.326-7.336,14.375c-5.627,4.826-13.238,6.982-20.324,5.789
			c-2.203-0.355-4.3-0.912-6.264-1.613c-2.84-1.545-9.879-5.822-13.457-10.783c-3.024-4.184-4.052-10.764-4.387-14.922
			c0.041-1.854,0.062-3.094,0.07-3.262c0.049-4.359-3.442-7.947-7.824-8.031c-4.377-0.08-8.004,3.418-8.061,7.818
			c0,0.15-0.238,15.666-0.758,25.025c-0.83,15.057-0.022,27.832,0,28.375c0.304,4.377,4.058,7.701,8.432,7.41
			c4.392-0.273,7.685-4.053,7.417-8.412c0-0.117-0.402-6.254-0.345-14.84c5.795,3.73,13.395,7.348,22.565,8.896
			c11.827,1.977,23.944-1.436,33.24-9.402c8.299-7.1,13.012-16.801,12.911-26.588C126.117,134.392,93.1,129.235,77.193,126.732z"/>
		<path fill="#F9A737" d="M342.729,174.561c-4.201-1.289-8.663,1.074-9.93,5.238c-2.899,9.422-5.212,9.773-6.823,10.539
			c-1.591,0.77-3.743,0.543-7.191-0.799c-0.53-0.314-1.967-2.18-2.787-3.92c-1.237-2.66-2.692-13.709-2.829-20.018
			c-0.609-23.295-4.658-36.097-11.2-43.158c4.416-2.902,7.63-6.673,7.987-7.15c0.058-0.062,0.106-0.11,0.162-0.189
			c9.729-12.613,12.032-23.511,6.862-32.351c-12.972-22.087-69.952-15.535-87.105-13.001c-4.352,0.627-7.333,4.678-6.678,9.004
			c0.609,4.354,4.651,7.332,8.985,6.676c4.065-0.595,8.227-1.089,12.409-1.477l0.157,36.94c-1.32,0.079-2.631,0.119-3.924,0.119
			c-4.375,0-7.932,3.529-7.932,7.923c0,4.363,3.557,7.936,7.932,7.936c1.32,0,2.646-0.037,4.002-0.096l0.167,46.182l-10.921,1.59
			c-4.334,0.633-7.332,4.676-6.687,8.99c0.614,4.35,4.649,7.348,8.981,6.727l38.284-5.619c4.319-0.633,7.33-4.654,6.689-8.975
			c-0.628-4.354-4.675-7.35-8.992-6.744l-11.492,1.703l-0.208-45.518c7.572-1.225,14.781-2.862,20.804-4.697l0,0h0.013
			c0.043-0.012,1.741-0.228,2.788-0.046c3.192,0.542,4.948,1.122,6.791,3.733c2.583,3.602,5.767,12.073,6.258,31.905
			c0.097,3.822,1.106,19.457,4.317,26.328c1,2.174,4.84,9.443,11.458,12.002c4.872,1.904,12.219,3.939,19.841,0.277
			c7.041-3.434,11.421-8.422,15.052-20.117C349.266,180.305,346.908,175.856,342.729,174.561z M297.625,103.725
			c-0.706,0.825-2.73,2.962-4.836,4.217c-1.95,1.146-4.615,1.941-7.187,2.729l-4.032,1.286c-5.593,1.99-12.997,4.072-20.96,5.532
			l-0.146-36.086c20.98-0.578,39.287,1.774,42.825,7.834c0.327,0.52,0.466,1.185,0.466,1.973
			C303.754,94.107,301.597,98.583,297.625,103.725z"/>
		<path fill="#F9A737" d="M628.039,149.606c-4.318,0.055-7.776,3.604-7.776,7.93c0,0.043,0.212,2.564,0.212,2.885
			c0,0.318-0.171,6.584-0.197,7.473c-0.504,3.279-1.655,8.504-2.729,10.361c-1.191,2.082-2.436,3.645-4.644,6.162
			c-1.242,1.412-4.259,2.818-6.061,3.68c-2.037,0.939-4.001,0.977-8.614,1.027l-4.825,0.062
			c-20.632,0.664-23.238-16.119-23.57-19.793c-0.01-0.543-0.249-13.336-0.249-13.613c0-0.252,0.239-20.673,0.249-21.256
			c0.995-13.628,4.207-22.793,9.052-25.755c3.734-2.328,9.701-1.698,18.253,1.867c10.522,4.388,17.68,15.864,17.756,15.956
			c1.855,3.02,5.505,4.425,8.906,3.481c3.42-0.967,5.779-4.059,5.779-7.617V88.075c0-4.36-3.539-7.923-7.943-7.923
			c-4.353,0-7.939,3.563-7.939,7.923v14.126c-3.071-2.391-6.58-4.583-10.461-6.208c-5.007-2.094-20.233-8.438-32.674-0.752
			c-9.745,5.996-15.155,18.535-16.564,38.314c-0.01,0.144-0.308,22.146-0.308,22.146s0.298,14.539,0.308,14.639
			c0.821,12.412,10.218,35.654,39.896,34.701l4.452-0.049c5.365-0.047,9.975-0.082,15.243-2.557
			c3.755-1.762,8.047-3.965,11.207-7.514c2.284-2.584,4.493-5.221,6.545-8.801c3.047-5.346,4.455-14.574,4.702-16.354
			c0.033-0.287,0.29-9.047,0.29-9.047c0.024-0.123-0.223-3.318-0.223-3.318C636.045,153.042,632.44,149.53,628.039,149.606z"/>
		<path fill="#F9A737" d="M758.149,201.547c-0.281-4.363-4.056-7.693-8.426-7.41c-2.951,0.199-6.829,0.492-11.147,0.955
			c0.014-13.559-0.127-40.877-0.67-129.539l12.217-0.172c4.364-0.074,7.868-3.708,7.804-8.083c-0.068-4.37-3.68-7.875-8.056-7.813
			l-41.295,0.701c-4.394,0.096-7.868,3.689-7.793,8.074c0.055,4.376,3.68,7.885,8.043,7.799l13.189-0.239
			c0.125,17.351,0.218,36.056,0.331,54.978l-46.666,7.801l0.085-49.292h12.683c4.392,0,7.955-3.56,7.955-7.954
			c0-4.374-3.563-7.934-7.955-7.934h-41.666c-4.381,0-7.924,3.56-7.924,7.934c0,4.394,3.543,7.954,7.924,7.954h13.113
			l-0.188,105.577l-13.346-0.232c-4.37-0.074-7.981,3.424-8.06,7.842c-0.052,4.344,3.426,7.945,7.806,8.021l42.861,0.719
			c4.38,0.062,7.987-3.439,8.056-7.814c0.066-4.396-3.426-7.99-7.793-8.049l-13.667-0.219l0.085-40.48l46.797-7.811
			c0.157,29.904,0.276,49.848,0.276,60.502c-10.81,2.045-18.055,2.895-22.452,7.83c-2.859,3.232-2.524,8.098,0.676,11.008
			c3.188,2.938,6.741,1.182,11.224-0.479l-0.059,0.041c4.579-2.078,19.684-4.553,38.628-5.779
			C755.112,209.696,758.43,205.928,758.149,201.547z"/>
		<path fill="#F9A737" d="M449.861,141.012c-2.35,0.834-6.895,3.115-13.945,6.213c0,0-9.852-24.576-10.201-25.185l-29.827-72.113
			c-0.297-0.769-1.961-3.308-2.475-3.854c-1.764-1.882-4.322-2.806-6.856-2.454l-34.003,4.675c-4.342,0.59-7.36,4.589-6.797,8.921
			c0.582,4.354,4.566,7.376,8.917,6.818c0,0,12.656-1.819,22.911-3.204c-2.94,14.461-14.652,73.576-18.324,91.55l-23.014-1.117
			c-4.371-0.189-8.099,3.18-8.3,7.57c-0.189,4.367,3.21,8.062,7.582,8.266l39.489,1.873c4.371,0.189,8.085-3.188,8.304-7.547
			c0.197-4.4-2.36-8.361-8.016-8.361l1.815-12.094l36.688-6.08l7.854,19.42c-5.98,3.422-9.715,5.584-12.512,9.338
			c-2.614,3.537-1.864,8.494,1.662,11.096c3.494,2.623,8.479,1.885,11.103-1.637c3.525-4.754,18.511-11.854,33.31-17.15
			c4.114-1.49,6.251-6.041,4.777-10.158C458.529,141.69,453.971,139.538,449.861,141.012z M380.505,128.227l9.729-47.62
			l17.448,43.112L380.505,128.227z"/>
		<path fill="#F9A737" d="M545.174,61.084c-0.246,0.034-23.476,1.7-49.453,2.199l-50.627,0.845c-2.301,0.017-4.47,1.024-5.95,2.803
			c-1.483,1.731-2.164,4.026-1.819,6.286l6.066,39.041c0.66,4.334,4.688,7.311,9.021,6.67c3.942-0.592,6.757-3.98,6.757-7.844
			c0-0.364-3.188-20.356-4.801-31.233c2.059-0.01,33.583-0.574,33.583-0.574l0.205,103.629l-16.671,0.215
			c-4.376,0.076-7.878,3.684-7.813,8.043c0.086,4.398,3.669,7.896,8.033,7.842l48.324-0.723c4.374-0.041,7.882-3.676,7.824-8.039
			c-0.068-4.395-3.673-7.867-8.046-7.834l-15.781,0.242L503.821,78.97c13.661-0.381,25.354-1.031,33.367-1.469
			c-0.403,6.593-0.599,11.565-0.599,15.18c0,8.484,0.907,10.094,1.598,11.29c2.018,3.667,6.299,4.639,10.085,2.85
			c2.946-1.368,4.526-4.674,4.339-7.919c-0.008-0.133,0.15-17.905,1.013-29.267c0.17-2.318-0.641-4.573-2.274-6.216
			C549.742,61.778,547.462,60.942,545.174,61.084z"/>
		<path fill="#F9A737" d="M210.958,157.924c-4.348,0.08-7.803,3.635-7.803,7.945c0,0.043,0.217,4.127,0.217,4.461
			c-0.004,0.322-0.175,6.545-0.202,7.457c-0.5,3.277-1.64,8.502-2.716,10.359c-1.185,2.086-2.512,3.73-4.668,6.154
			c-1.229,1.42-4.239,2.842-6.049,3.666c-2.032,0.961-3.979,1.006-8.592,1.051l-4.844,0.078
			c-20.633,0.633-23.23-16.102-23.563-19.803c-0.007-0.543-0.265-13.355-0.287-13.605c0.022-0.264,0.287-20.689,0.287-21.273
			c0.999-13.625,4.198-22.791,9.05-25.749c3.718-2.332,9.693-1.696,18.239,1.864c10.522,4.405,17.701,15.847,17.746,15.97
			c1.868,3.005,5.518,4.447,8.926,3.466c3.421-0.957,5.784-4.059,5.784-7.623v-34.35c0-4.386-3.56-7.942-7.928-7.942
			c-4.401,0-7.939,3.556-7.939,7.942v14.101c-3.083-2.389-6.581-4.598-10.481-6.205c-4.99-2.088-20.226-8.416-32.661-0.754
			c-9.743,5.991-15.163,18.531-16.584,38.319c-0.011,0.156-0.011,0.305-0.011,0.432l-0.289,21.705v0.279l0.289,14.016
			c0,0.127,0,0.242,0.011,0.342c0.83,12.438,10.218,35.639,39.902,34.75l4.455-0.09c5.357-0.051,9.976-0.074,15.244-2.557
			c3.773-1.762,8.031-3.951,11.215-7.518c2.282-2.588,4.502-5.221,6.534-8.791c3.056-5.348,4.44-14.576,4.694-16.355
			c0.044-0.301,0.307-9.289,0.307-9.395l-0.237-4.529C218.933,161.358,215.321,157.842,210.958,157.924z"/>
	</g>
</g>
</svg>
