<?xml version="1.0" encoding="UTF-8" standalone="no"?>
<!-- Created with Inkscape (http://www.inkscape.org/) -->

<svg
   xmlns:dc="http://purl.org/dc/elements/1.1/"
   xmlns:cc="http://creativecommons.org/ns#"
   xmlns:rdf="http://www.w3.org/1999/02/22-rdf-syntax-ns#"
   xmlns:svg="http://www.w3.org/2000/svg"
   xmlns="http://www.w3.org/2000/svg"
   xmlns:sodipodi="http://sodipodi.sourceforge.net/DTD/sodipodi-0.dtd"
   xmlns:inkscape="http://www.inkscape.org/namespaces/inkscape"
   width="744.09448819"
   height="1052.3622047"
   id="svg2"
   version="1.1"
   inkscape:version="0.48.4 r9939"
   sodipodi:docname="panda_b.svg">
  <defs
     id="defs4">
 <clipPath
   id="id1">
    <path
   id="path2993"
   d="M156 30c83,0 151,57 151,126 0,70 -68,126 -151,126 -84,0 -152,-56 -152,-126 0,-69 68,-126 152,-126z" />

   </clipPath>

   <clipPath
   id="id0">
    <path
   id="path2990"
   d="M152 270c40,-1 78,7 81,73 2,67 -47,59 -80,59 -33,0 -51,0 -58,-38 -8,-38 17,-94 57,-94z" />

   </clipPath>

   
  
  
  
  
  
  
  
  
  
  
  
  
  
  
  
  
  
  
  
  
  
  
  
 
   
   
   
   
   
  
   
  
   
  
    
    
   
    
   
 <clipPath
   id="id1-7">
    <path
   id="path3188"
   d="M247 53c133,0 240,98 240,219 0,122 -107,220 -240,220 -132,0 -240,-98 -240,-220 0,-121 108,-219 240,-219z" />

   </clipPath>

   <clipPath
   id="id0-1">
    <path
   id="path3185"
   d="M233 471c70,-1 136,12 140,128 4,116 -82,102 -139,102 -57,0 -88,0 -101,-66 -14,-66 30,-163 100,-164z" />

   </clipPath>

   
 <clipPath
   id="id1-0">
    <path
   id="path3383"
   d="M156 30c83,0 151,57 151,126 0,70 -68,126 -151,126 -84,0 -152,-56 -152,-126 0,-69 68,-126 152,-126z" />

   </clipPath>

   <clipPath
   id="id0-4">
    <path
   id="path3380"
   d="M152 270c40,-1 78,7 81,73 2,67 -47,59 -80,59 -33,0 -51,0 -58,-38 -8,-38 17,-94 57,-94z" />

   </clipPath>

   
  
  
  
  
  
  
  
  
  
  
  
  
  
  
  
  
  
  
  
  
  
  
  
 
   
   
   
   
   
  
   
  
   
  
    
    
   
    
   <clipPath
   id="id0-1-8">
  <path
     inkscape:connector-curvature="0"
     id="path3185-2"
     d="m 233,471 c 70,-1 136,12 140,128 4,116 -82,102 -139,102 -57,0 -88,0 -101,-66 -14,-66 30,-163 100,-164 z" />
</clipPath>
<clipPath
   id="id1-7-4">
  <path
     inkscape:connector-curvature="0"
     id="path3188-5"
     d="M 247,53 C 380,53 487,151 487,272 487,394 380,492 247,492 115,492 7,394 7,272 7,151 115,53 247,53 z" />
</clipPath>
<clipPath
   id="id0-4-2">
  <path
     d="M152 270c40,-1 78,7 81,73 2,67 -47,59 -80,59 -33,0 -51,0 -58,-38 -8,-38 17,-94 57,-94z"
     id="path3380-2" />
</clipPath>
<clipPath
   id="id1-0-2">
  <path
     d="M156 30c83,0 151,57 151,126 0,70 -68,126 -151,126 -84,0 -152,-56 -152,-126 0,-69 68,-126 152,-126z"
     id="path3383-3" />
</clipPath>
<clipPath
   id="id0-1-1">
  <path
     d="M233 471c70,-1 136,12 140,128 4,116 -82,102 -139,102 -57,0 -88,0 -101,-66 -14,-66 30,-163 100,-164z"
     id="path3185-4" />
</clipPath>
<clipPath
   id="id1-7-7">
  <path
     d="M247 53c133,0 240,98 240,219 0,122 -107,220 -240,220 -132,0 -240,-98 -240,-220 0,-121 108,-219 240,-219z"
     id="path3188-6" />
</clipPath>
<clipPath
   id="id0-5">
  <path
     d="M152 270c40,-1 78,7 81,73 2,67 -47,59 -80,59 -33,0 -51,0 -58,-38 -8,-38 17,-94 57,-94z"
     id="path2990-2" />
</clipPath>
<clipPath
   id="id1-71">
  <path
     d="M156 30c83,0 151,57 151,126 0,70 -68,126 -151,126 -84,0 -152,-56 -152,-126 0,-69 68,-126 152,-126z"
     id="path2993-1" />
</clipPath>
</defs>
  <sodipodi:namedview
     id="base"
     pagecolor="#ffffff"
     bordercolor="#666666"
     borderopacity="1.0"
     inkscape:pageopacity="0.0"
     inkscape:pageshadow="2"
     inkscape:zoom="1.6455388"
     inkscape:cx="192.85892"
     inkscape:cy="886.4527"
     inkscape:document-units="px"
     inkscape:current-layer="layer1"
     showgrid="false"
     inkscape:snap-center="true"
     inkscape:window-width="1920"
     inkscape:window-height="1028"
     inkscape:window-x="-8"
     inkscape:window-y="-8"
     inkscape:window-maximized="1"
     showguides="true"
     inkscape:guide-bbox="true">
    <sodipodi:guide
       orientation="1,0"
       position="302.51683,1512.5842"
       id="guide3491" />
    <sodipodi:guide
       orientation="0,1"
       position="-343.76913,635.97289"
       id="guide3493" />
  </sodipodi:namedview>
  <metadata
     id="metadata7">
    <rdf:RDF>
      <cc:Work
         rdf:about="">
        <dc:format>image/svg+xml</dc:format>
        <dc:type
           rdf:resource="http://purl.org/dc/dcmitype/StillImage" />
        <dc:title></dc:title>
      </cc:Work>
    </rdf:RDF>
  </metadata>
  <g
     inkscape:label="Layer 1"
     inkscape:groupmode="layer"
     id="layer1">
    <g
       id="layer1-7"
       inkscape:label="Layer 1"
       transform="matrix(0.33048787,0,0,0.33048787,-48.165955,-95.639385)">
      <path
         style="fill:#332c2b;fill-rule:evenodd;stroke:#332c2b;stroke-width:0.79177576"
         inkscape:connector-curvature="0"
         d="m 142.05835,382.51705 c -11.62109,-4.84212 -24.2106,0.96842 -26.14745,7.74739 -1.93685,6.77897 -2.90527,10.65266 8.71582,15.49478 11.62109,4.84212 33.89484,8.71582 36.80011,-4.84212 2.90527,-13.55793 -8.71582,-13.55793 -19.36848,-18.40005 z"
         id="path3387" />
      <path
         style="fill:#fefefe;fill-rule:evenodd"
         inkscape:connector-curvature="0"
         d="m 147.86889,265.33774 c 38.73696,-0.96842 75.53708,6.77897 78.44235,70.69496 1.93685,64.8844 -45.51593,57.13701 -77.47392,57.13701 -31.95799,0 -49.389625,0 -56.168593,-36.80011 -7.747392,-36.80011 16.463203,-91.03186 55.200163,-91.03186 z"
         id="path3389" />
      <path
         style="fill:none;stroke:#332c2b;stroke-width:5.93831778"
         inkscape:connector-curvature="0"
         d="m 147.86889,265.33774 c 38.73696,-0.96842 75.53708,6.77897 78.44235,70.69496 1.93685,64.8844 -45.51593,57.13701 -77.47392,57.13701 -31.95799,0 -49.389625,0 -56.168593,-36.80011 -7.747392,-36.80011 16.463203,-91.03186 55.200163,-91.03186 z"
         id="path3398" />
      <path
         style="fill:#332c2b;fill-rule:evenodd;stroke:#332c2b;stroke-width:0.79177576"
         inkscape:connector-curvature="0"
         d="m 221.46912,12.579081 c -27.11587,0 -50.35805,14.52636 -57.13702,35.831688 36.80011,9.68424 66.82126,30.021144 84.25289,56.168591 18.40006,-8.715815 30.98957,-24.210599 30.98957,-43.579079 0,-27.115872 -26.14745,-48.4212 -58.10544,-48.4212 z"
         id="path3400" />
      <path
         style="fill:#474443;fill-rule:evenodd;stroke:#332c2b;stroke-width:0.79177576"
         inkscape:connector-curvature="0"
         d="m 220.50069,28.073865 c -17.43163,0 -31.95799,9.68424 -36.80011,23.242176 24.2106,6.778968 43.57908,20.336904 55.20017,37.768536 12.58951,-5.810544 20.3369,-16.463208 20.3369,-29.05272 0,-17.431632 -17.43163,-31.957992 -38.73696,-31.957992 z"
         id="path3402" />
      <path
         style="fill:#fefefe;fill-rule:evenodd"
         inkscape:connector-curvature="0"
         d="m 151.74259,32.915985 c 80.37919,0 146.23202,55.200168 146.23202,122.021425 0,67.78968 -65.85283,122.02142 -146.23202,122.02142 -81.347615,0 -147.2004474,-54.23174 -147.2004474,-122.02142 0,-66.821257 65.8528324,-122.021425 147.2004474,-122.021425 z"
         id="path3404" />
      <path
         style="fill:none;stroke:#332c2b;stroke-width:7.91775656"
         inkscape:connector-curvature="0"
         d="m 151.74259,32.915985 c 80.37919,0 146.23202,55.200168 146.23202,122.021425 0,67.78968 -65.85283,122.02142 -146.23202,122.02142 -81.347615,0 -147.2004474,-54.23174 -147.2004474,-122.02142 0,-66.821257 65.8528324,-122.021425 147.2004474,-122.021425 z"
         id="path3410" />
      <path
         style="fill:#332c2b;fill-rule:evenodd"
         inkscape:connector-curvature="0"
         d="m 191.44797,144.28474 c 10.65267,0 19.36848,0.96843 19.36848,8.71582 0,7.74739 -8.71581,19.36848 -19.36848,19.36848 -11.62108,0 -20.3369,-11.62109 -20.3369,-19.36848 0,-7.74739 8.71582,-8.71582 20.3369,-8.71582 z"
         id="path3412" />
      <path
         style="fill:none;stroke:#332c2b;stroke-width:3.95887828;stroke-linecap:round;stroke-linejoin:round"
         inkscape:connector-curvature="0"
         d="m 171.11107,222.72709 c 11.62109,2.90527 23.24218,0.96842 30.02114,-6.77897 8.71582,0 21.30533,-6.77897 23.24218,-17.43163"
         id="path3414" />
      <path
         style="fill:#332c2b;fill-rule:evenodd;stroke:#332c2b;stroke-width:0.79177576"
         inkscape:connector-curvature="0"
         d="m 102.35297,99.737241 c 24.2106,-11.621088 49.38962,-10.652664 59.07386,9.684239 9.68424,19.36848 -3.8737,42.61066 -28.0843,54.23174 -24.2106,11.62109 -50.358043,8.71582 -60.042283,-11.62108 -9.68424,-19.36848 4.84212,-40.67381 29.052723,-52.294899 z"
         id="path3416" />
      <circle
         transform="matrix(0.968424,0,0,0.968424,0.66844658,3.8632648)"
         d="m 161,124 c 0,13.80712 -11.19288,25 -25,25 -13.80712,0 -25,-11.19288 -25,-25 0,-13.80712 11.19288,-25 25,-25 13.80712,0 25,11.19288 25,25 z"
         style="fill:#fefefe;fill-rule:evenodd;stroke:#332c2b;stroke-width:0.81759202"
         sodipodi:ry="25"
         sodipodi:rx="25"
         sodipodi:cy="124"
         sodipodi:cx="136"
         cx="136"
         cy="124"
         r="25"
         id="circle3418" />
      <circle
         transform="matrix(0.968424,0,0,0.968424,0.66844658,3.8632648)"
         d="m 154,124 c 0,9.94113 -8.05887,18 -18,18 -9.94113,0 -18,-8.05887 -18,-18 0,-9.94113 8.05887,-18 18,-18 9.94113,0 18,8.05887 18,18 z"
         style="fill:#332c2b;fill-rule:evenodd;stroke:#332c2b;stroke-width:0.81759202"
         sodipodi:ry="18"
         sodipodi:rx="18"
         sodipodi:cy="124"
         sodipodi:cx="136"
         cx="136"
         cy="124"
         r="18"
         id="circle3420" />
      <circle
         d="M 23,0 C 23,12.702549 12.702549,23 0,23 -12.702549,23 -23,12.702549 -23,0 c 0,-12.702549 10.297451,-23 23,-23 12.702549,0 23,10.297451 23,23 z"
         style="fill:#fefefe;fill-rule:evenodd;stroke:#332c2b;stroke-width:0.81759202"
         sodipodi:ry="23"
         sodipodi:rx="23"
         sodipodi:cy="0"
         sodipodi:cx="0"
         cy="0"
         cx="0"
         transform="matrix(0.2793206,-0.10713868,0.07660127,0.19970743,128.00652,118.36197)"
         r="23"
         id="circle3422" />
      <circle
         d="M 23,0 C 23,12.702549 12.702549,23 0,23 -12.702549,23 -23,12.702549 -23,0 c 0,-12.702549 10.297451,-23 23,-23 12.702549,0 23,10.297451 23,23 z"
         style="fill:#fefefe;fill-rule:evenodd;stroke:#332c2b;stroke-width:0.81759202"
         sodipodi:ry="23"
         sodipodi:rx="23"
         sodipodi:cy="0"
         sodipodi:cx="0"
         cy="0"
         cx="0"
         transform="matrix(0.14631725,0.03107944,-0.02222097,0.10461303,127.39641,134.01558)"
         r="23"
         id="circle3424" />
      <path
         id="path3427"
         d="m 260.20608,99.737241 c -19.36848,-11.621088 -39.70539,-10.652664 -46.48435,9.684239 -7.7474,19.36848 2.90527,42.61066 22.27375,54.23174 19.36848,11.62109 39.70538,8.71582 47.45277,-11.62108 7.7474,-19.36848 -3.87369,-40.67381 -23.24217,-52.294899 z"
         inkscape:connector-curvature="0"
         style="fill:#332c2b;fill-rule:evenodd;stroke:#332c2b;stroke-width:0.79177576" />
      <ellipse
         transform="matrix(0.968424,0,0,0.968424,0.66844658,3.8632648)"
         id="ellipse3429"
         ry="25"
         rx="20"
         cy="124"
         cx="247"
         sodipodi:cx="247"
         sodipodi:cy="124"
         sodipodi:rx="20"
         sodipodi:ry="25"
         style="fill:#fefefe;fill-rule:evenodd;stroke:#332c2b;stroke-width:0.81759202"
         d="m 267,124 c 0,13.80712 -8.95431,25 -20,25 -11.04569,0 -20,-11.19288 -20,-25 0,-13.80712 8.95431,-25 20,-25 11.04569,0 20,11.19288 20,25 z" />
      <ellipse
         transform="matrix(0.968424,0,0,0.968424,0.66844658,3.8632648)"
         id="ellipse3431"
         ry="18"
         rx="14"
         cy="124"
         cx="247"
         sodipodi:cx="247"
         sodipodi:cy="124"
         sodipodi:rx="14"
         sodipodi:ry="18"
         style="fill:#332c2b;fill-rule:evenodd;stroke:#332c2b;stroke-width:0.81759202"
         d="m 261,124 c 0,9.94113 -6.26801,18 -14,18 -7.73199,0 -14,-8.05887 -14,-18 0,-9.94113 6.26801,-18 14,-18 7.73199,0 14,8.05887 14,18 z" />
      <circle
         id="circle3433"
         r="23"
         transform="matrix(-0.22034939,-0.10713868,-0.06042888,0.19970743,243.34872,118.36197)"
         cx="0"
         cy="0"
         sodipodi:cx="0"
         sodipodi:cy="0"
         sodipodi:rx="23"
         sodipodi:ry="23"
         style="fill:#fefefe;fill-rule:evenodd;stroke:#332c2b;stroke-width:0.81759202"
         d="M 23,0 C 23,12.702549 12.702549,23 0,23 -12.702549,23 -23,12.702549 -23,0 c 0,-12.702549 10.297451,-23 23,-23 12.702549,0 23,10.297451 23,23 z" />
      <circle
         id="circle3435"
         r="23"
         transform="matrix(-0.11542646,0.03107944,0.01752964,0.10461303,243.82906,134.01558)"
         cx="0"
         cy="0"
         sodipodi:cx="0"
         sodipodi:cy="0"
         sodipodi:rx="23"
         sodipodi:ry="23"
         style="fill:#fefefe;fill-rule:evenodd;stroke:#332c2b;stroke-width:0.81759202"
         d="M 23,0 C 23,12.702549 12.702549,23 0,23 -12.702549,23 -23,12.702549 -23,0 c 0,-12.702549 10.297451,-23 23,-23 12.702549,0 23,10.297451 23,23 z" />
      <path
         style="fill:#332c2b;fill-rule:evenodd;stroke:#332c2b;stroke-width:0.79177576"
         inkscape:connector-curvature="0"
         d="m 187.57428,386.39074 c -11.62109,-4.84212 -24.2106,0.96843 -26.14745,7.7474 -1.93685,6.77896 -2.90527,10.65266 8.71582,15.49478 11.62108,4.84212 33.89484,8.71582 36.80011,-4.84212 2.90527,-13.55794 -8.71582,-13.55794 -19.36848,-18.40006 z"
         id="path3437" />
      <path
         style="fill:#332c2b;fill-rule:evenodd;stroke:#332c2b;stroke-width:0.79177576"
         inkscape:connector-curvature="0"
         d="m 152.71101,327.31688 c -11.62108,-5.81054 -25.17902,-19.36848 -13.55793,-27.11587 10.65266,-8.71582 13.55793,-10.65267 25.17902,-3.8737 11.62109,5.81055 21.30533,29.05272 16.46321,37.76854 -4.84212,8.71581 -16.46321,-0.96843 -28.0843,-6.77897 z"
         id="path3439" />
      <path
         style="fill:#332c2b;fill-rule:evenodd"
         inkscape:connector-curvature="0"
         d="m 95.573999,361.21172 c -4.84212,0 -7.747392,8.71582 -10.652664,9.68424 0,5.81054 5.810544,10.65266 10.652664,10.65266 5.810541,0 9.684241,-4.84212 9.684241,-10.65266 0,-4.84212 -3.8737,-9.68424 -9.684241,-9.68424 z"
         id="path3441" />
      <path
         style="fill:#332c2b;fill-rule:evenodd;stroke:#332c2b;stroke-width:0.79177576"
         inkscape:connector-curvature="0"
         d="m 69.426551,3.8632648 c 26.147448,0 49.389619,15.4947842 56.168589,36.8001122 C 88.795031,49.379193 58.773887,69.716097 41.342255,96.831969 22.942199,88.116153 10.352687,71.652945 10.352687,53.252889 c 0,-27.115872 26.147448,-49.3896242 59.073864,-49.3896242 z"
         id="path3443" />
      <path
         style="fill:#474443;fill-rule:evenodd;stroke:#332c2b;stroke-width:0.79177576"
         inkscape:connector-curvature="0"
         d="m 68.458127,20.326473 c 18.400056,0 32.926413,9.68424 37.768533,23.242176 -24.210597,6.778968 -43.579077,20.336904 -56.168589,36.800112 -11.621088,-4.84212 -19.36848,-15.494784 -19.36848,-28.084296 0,-17.431632 17.431632,-31.957992 37.768536,-31.957992 z"
         id="path3445" />
    </g>
  </g>
</svg>
