<?xml version="1.0" encoding="UTF-8" standalone="no"?>
<!-- Created with Inkscape (http://www.inkscape.org/) -->

<svg
   xmlns:dc="http://purl.org/dc/elements/1.1/"
   xmlns:cc="http://creativecommons.org/ns#"
   xmlns:rdf="http://www.w3.org/1999/02/22-rdf-syntax-ns#"
   xmlns:svg="http://www.w3.org/2000/svg"
   xmlns="http://www.w3.org/2000/svg"
   xmlns:sodipodi="http://sodipodi.sourceforge.net/DTD/sodipodi-0.dtd"
   xmlns:inkscape="http://www.inkscape.org/namespaces/inkscape"
   width="744.09448819"
   height="1052.3622047"
   id="svg2"
   version="1.1"
   inkscape:version="0.48.4 r9939"
   sodipodi:docname="panda_a.svg">
  <defs
     id="defs4">
 <clipPath
   id="id1">
    <path
   id="path2993"
   d="M156 30c83,0 151,57 151,126 0,70 -68,126 -151,126 -84,0 -152,-56 -152,-126 0,-69 68,-126 152,-126z" />

   </clipPath>

   <clipPath
   id="id0">
    <path
   id="path2990"
   d="M152 270c40,-1 78,7 81,73 2,67 -47,59 -80,59 -33,0 -51,0 -58,-38 -8,-38 17,-94 57,-94z" />

   </clipPath>

   
  
  
  
  
  
  
  
  
  
  
  
  
  
  
  
  
  
  
  
  
  
  
  
 
   
   
   
   
   
  
   
  
   
  
    
    
   
    
   
 <clipPath
   id="id1-7">
    <path
   id="path3188"
   d="M247 53c133,0 240,98 240,219 0,122 -107,220 -240,220 -132,0 -240,-98 -240,-220 0,-121 108,-219 240,-219z" />

   </clipPath>

   <clipPath
   id="id0-1">
    <path
   id="path3185"
   d="M233 471c70,-1 136,12 140,128 4,116 -82,102 -139,102 -57,0 -88,0 -101,-66 -14,-66 30,-163 100,-164z" />

   </clipPath>

   
 <clipPath
   id="id1-0">
    <path
   id="path3383"
   d="M156 30c83,0 151,57 151,126 0,70 -68,126 -151,126 -84,0 -152,-56 -152,-126 0,-69 68,-126 152,-126z" />

   </clipPath>

   <clipPath
   id="id0-4">
    <path
   id="path3380"
   d="M152 270c40,-1 78,7 81,73 2,67 -47,59 -80,59 -33,0 -51,0 -58,-38 -8,-38 17,-94 57,-94z" />

   </clipPath>

   
  
  
  
  
  
  
  
  
  
  
  
  
  
  
  
  
  
  
  
  
  
  
  
 
   
   
   
   
   
  
   
  
   
  
    
    
   
    
   <clipPath
   id="id0-1-8">
  <path
     inkscape:connector-curvature="0"
     id="path3185-2"
     d="m 233,471 c 70,-1 136,12 140,128 4,116 -82,102 -139,102 -57,0 -88,0 -101,-66 -14,-66 30,-163 100,-164 z" />
</clipPath>
<clipPath
   id="id1-7-4">
  <path
     inkscape:connector-curvature="0"
     id="path3188-5"
     d="M 247,53 C 380,53 487,151 487,272 487,394 380,492 247,492 115,492 7,394 7,272 7,151 115,53 247,53 z" />
</clipPath>
<clipPath
   id="id0-4-2">
  <path
     d="M152 270c40,-1 78,7 81,73 2,67 -47,59 -80,59 -33,0 -51,0 -58,-38 -8,-38 17,-94 57,-94z"
     id="path3380-2" />
</clipPath>
<clipPath
   id="id1-0-2">
  <path
     d="M156 30c83,0 151,57 151,126 0,70 -68,126 -151,126 -84,0 -152,-56 -152,-126 0,-69 68,-126 152,-126z"
     id="path3383-3" />
</clipPath>
<clipPath
   id="id0-1-1">
  <path
     d="M233 471c70,-1 136,12 140,128 4,116 -82,102 -139,102 -57,0 -88,0 -101,-66 -14,-66 30,-163 100,-164z"
     id="path3185-4" />
</clipPath>
<clipPath
   id="id1-7-7">
  <path
     d="M247 53c133,0 240,98 240,219 0,122 -107,220 -240,220 -132,0 -240,-98 -240,-220 0,-121 108,-219 240,-219z"
     id="path3188-6" />
</clipPath>
<clipPath
   id="id0-5">
  <path
     d="M152 270c40,-1 78,7 81,73 2,67 -47,59 -80,59 -33,0 -51,0 -58,-38 -8,-38 17,-94 57,-94z"
     id="path2990-2" />
</clipPath>
<clipPath
   id="id1-71">
  <path
     d="M156 30c83,0 151,57 151,126 0,70 -68,126 -151,126 -84,0 -152,-56 -152,-126 0,-69 68,-126 152,-126z"
     id="path2993-1" />
</clipPath>
</defs>
  <sodipodi:namedview
     id="base"
     pagecolor="#ffffff"
     bordercolor="#666666"
     borderopacity="1.0"
     inkscape:pageopacity="0.0"
     inkscape:pageshadow="2"
     inkscape:zoom="1.6455388"
     inkscape:cx="192.85892"
     inkscape:cy="886.4527"
     inkscape:document-units="px"
     inkscape:current-layer="layer1"
     showgrid="false"
     inkscape:snap-center="true"
     inkscape:window-width="1920"
     inkscape:window-height="1028"
     inkscape:window-x="-8"
     inkscape:window-y="-8"
     inkscape:window-maximized="1"
     showguides="true"
     inkscape:guide-bbox="true">
    <sodipodi:guide
       orientation="1,0"
       position="302.51683,1512.5842"
       id="guide3491" />
    <sodipodi:guide
       orientation="0,1"
       position="-343.76913,635.97289"
       id="guide3493" />
  </sodipodi:namedview>
  <metadata
     id="metadata7">
    <rdf:RDF>
      <cc:Work
         rdf:about="">
        <dc:format>image/svg+xml</dc:format>
        <dc:type
           rdf:resource="http://purl.org/dc/dcmitype/StillImage" />
        <dc:title></dc:title>
      </cc:Work>
    </rdf:RDF>
  </metadata>
  <g
     inkscape:label="Layer 1"
     inkscape:groupmode="layer"
     id="layer1">
    <g
       id="g3844"
       transform="matrix(0.31697325,0,0,0.31697325,-47.339987,-91.373902)">
      <path
         style="fill:#332c2b;fill-rule:evenodd"
         inkscape:connector-curvature="0"
         d="m 85.17048,364.49287 c -5.171601,0 -7.470091,8.61934 -10.917826,9.76859 0,5.74622 5.746225,10.3432 10.917826,10.3432 5.746225,0 9.768582,-4.59698 9.768582,-10.3432 0,-5.17161 -4.022357,-9.76859 -9.768582,-9.76859 z"
         id="path3192" />
      <path
         style="fill:#332c2b;fill-rule:evenodd;stroke:#332c2b;stroke-width:0.81935412"
         inkscape:connector-curvature="0"
         d="m 150.10282,385.7539 c -12.6417,-2.87311 -24.13415,4.59698 -25.28339,12.6417 -0.57462,7.47009 -0.57462,11.49245 11.49245,14.36556 12.06707,2.29849 36.77583,3.44773 36.77583,-10.91783 0.57462,-14.36556 -10.91782,-13.21631 -22.98489,-16.08943 z"
         id="path3194" />
      <path
         style="fill:#fefefe;fill-rule:evenodd"
         inkscape:connector-curvature="0"
         d="m 142.0581,265.08319 c 40.22357,-0.57462 78.14865,6.89547 80.44714,73.55167 2.29849,66.65621 -47.11904,58.61149 -79.87252,58.61149 -32.75348,0 -50.56677,0 -58.036862,-37.92508 -8.044714,-37.92508 17.238672,-93.66345 57.462242,-94.23808 z"
         id="path3196" />
      <path
         style="fill:none;stroke:#332c2b;stroke-width:6.14512682"
         inkscape:connector-curvature="0"
         d="m 142.0581,265.08319 c 40.22357,-0.57462 78.14865,6.89547 80.44714,73.55167 2.29849,66.65621 -47.11904,58.61149 -79.87252,58.61149 -32.75348,0 -50.56677,0 -58.036862,-37.92508 -8.044714,-37.92508 17.238672,-93.66345 57.462242,-94.23808 z"
         id="path3205" />
      <path
         style="fill:#332c2b;fill-rule:evenodd;stroke:#332c2b;stroke-width:0.81935412"
         inkscape:connector-curvature="0"
         d="m 204.69195,3.0553658 c -27.58188,0 -51.1414,15.5148052 -58.03687,37.3504582 37.35046,9.768581 68.38007,31.029611 87.34261,58.036865 18.38792,-8.619336 31.60423,-25.283387 31.60423,-44.245927 0,-28.156499 -27.00725,-51.1413962 -60.90997,-51.1413962 z"
         id="path3207" />
      <path
         style="fill:#474443;fill-rule:evenodd;stroke:#332c2b;stroke-width:0.81935412"
         inkscape:connector-curvature="0"
         d="m 204.69195,19.144794 c -18.38792,0 -33.90273,10.343204 -38.49971,24.708764 24.70877,6.320847 45.39518,20.686408 57.46225,38.499703 12.64169,-5.746224 20.6864,-16.66405 20.6864,-29.305744 0,-18.387918 -17.81329,-33.902723 -39.64894,-33.902723 z"
         id="path3209" />
      <path
         style="fill:#fefefe;fill-rule:evenodd"
         inkscape:connector-curvature="0"
         d="m 150.10282,24.891018 c 76.42478,0 137.90938,56.312998 137.90938,125.842312 0,70.10394 -61.4846,126.41693 -137.90938,126.41693 -75.850166,0 -137.909388,-56.31299 -137.909388,-126.41693 0,-69.529314 62.059222,-125.842312 137.909388,-125.842312 z"
         id="path3211" />
      <path
         style="fill:none;stroke:#332c2b;stroke-width:8.19354153"
         inkscape:connector-curvature="0"
         d="m 150.10282,24.891018 c 76.42478,0 137.90938,56.312998 137.90938,125.842312 0,70.10394 -61.4846,126.41693 -137.90938,126.41693 -75.850166,0 -137.909388,-56.31299 -137.909388,-126.41693 0,-69.529314 62.059222,-125.842312 137.909388,-125.842312 z"
         id="path3217" />
      <path
         style="fill:#332c2b;fill-rule:evenodd"
         inkscape:connector-curvature="0"
         d="m 205.26657,139.8155 c 11.49245,0 20.68641,1.14925 20.68641,9.19396 0,8.04472 -9.19396,19.53717 -20.68641,19.53717 -11.49245,0 -21.26103,-11.49245 -21.26103,-19.53717 0,-8.04471 9.76858,-9.19396 21.26103,-9.19396 z"
         id="path3219" />
      <path
         style="fill:none;stroke:#332c2b;stroke-width:4.09676504;stroke-linecap:round;stroke-linejoin:round"
         inkscape:connector-curvature="0"
         d="m 182.85629,220.83727 c 11.49245,2.87311 23.55952,1.14924 30.45499,-7.47009 9.76858,0 22.41028,-6.32085 24.70877,-17.8133"
         id="path3221" />
      <path
         style="fill:#332c2b;fill-rule:evenodd;stroke:#332c2b;stroke-width:0.81935412"
         inkscape:connector-curvature="0"
         d="m 113.32698,93.84571 c 25.85801,-12.641694 51.71602,-10.917826 61.4846,9.76858 9.76858,20.11179 -4.02236,44.24593 -29.30574,56.313 -25.28339,12.06707 -52.290646,8.61934 -62.633849,-12.06707 -9.768582,-20.68641 5.171602,-41.94744 30.454989,-54.01451 z"
         id="path3223" />
      <circle
         transform="matrix(0.57462243,0,0,0.57462243,8.1710748,-5.5639707)"
         d="m 281,217 c 0,24.30053 -19.69947,44 -44,44 -24.30053,0 -44,-19.69947 -44,-44 0,-24.30053 19.69947,-44 44,-44 24.30053,0 44,19.69947 44,44 z"
         style="fill:#fefefe;fill-rule:evenodd;stroke:#332c2b;stroke-width:1.42589998"
         sodipodi:ry="44"
         sodipodi:rx="44"
         sodipodi:cy="217"
         sodipodi:cx="237"
         cx="237"
         cy="217"
         r="44"
         id="circle3225" />
      <circle
         transform="matrix(0.57462243,0,0,0.57462243,8.1710748,-5.5639707)"
         d="m 269,217 c 0,17.67311 -14.32689,32 -32,32 -17.67311,0 -32,-14.32689 -32,-32 0,-17.67311 14.32689,-32 32,-32 17.67311,0 32,14.32689 32,32 z"
         style="fill:#332c2b;fill-rule:evenodd;stroke:#332c2b;stroke-width:1.42589998"
         sodipodi:ry="32"
         sodipodi:rx="32"
         sodipodi:cy="217"
         sodipodi:cx="237"
         cx="237"
         cy="217"
         r="32"
         id="circle3227" />
      <circle
         d="M 40,0 C 40,22.09139 22.09139,40 0,40 -22.09139,40 -40,22.09139 -40,0 c 0,-22.09139 17.90861,-40 40,-40 22.09139,0 40,17.90861 40,40 z"
         style="fill:#fefefe;fill-rule:evenodd;stroke:#332c2b;stroke-width:1.42589998"
         sodipodi:ry="40"
         sodipodi:rx="40"
         sodipodi:cy="0"
         sodipodi:cx="0"
         cy="0"
         cx="0"
         transform="matrix(0.1657372,-0.06357163,0.045452,0.11849806,139.95556,112.9226)"
         r="40"
         id="circle3229" />
      <circle
         d="M 40,0 C 40,22.09139 22.09139,40 0,40 -22.09139,40 -40,22.09139 -40,0 c 0,-22.09139 17.90861,-40 40,-40 22.09139,0 40,17.90861 40,40 z"
         style="fill:#fefefe;fill-rule:evenodd;stroke:#332c2b;stroke-width:1.42589998"
         sodipodi:ry="40"
         sodipodi:rx="40"
         sodipodi:cy="0"
         sodipodi:cx="0"
         cy="0"
         cx="0"
         transform="matrix(0.08681855,0.01844124,-0.013185,0.06207301,139.32405,129.12121)"
         r="40"
         id="circle3231" />
      <path
         id="path3234"
         d="m 261.00494,93.84571 c -15.5148,-12.641694 -31.02961,-10.917826 -36.77583,9.76858 -5.74623,20.11179 2.29849,44.24593 17.23867,56.313 15.51481,12.06707 31.60424,8.61934 37.35046,-12.06707 6.32085,-20.68641 -2.87311,-41.94744 -17.8133,-54.01451 z"
         inkscape:connector-curvature="0"
         style="fill:#332c2b;fill-rule:evenodd;stroke:#332c2b;stroke-width:0.81935412" />
      <ellipse
         transform="matrix(0.57462243,0,0,0.57462243,8.1710748,-5.5639707)"
         id="ellipse3236"
         ry="44"
         rx="26"
         cy="217"
         cx="412"
         sodipodi:cx="412"
         sodipodi:cy="217"
         sodipodi:rx="26"
         sodipodi:ry="44"
         style="fill:#fefefe;fill-rule:evenodd;stroke:#332c2b;stroke-width:1.42589998"
         d="m 438,217 c 0,24.30053 -11.6406,44 -26,44 -14.3594,0 -26,-19.69947 -26,-44 0,-24.30053 11.6406,-44 26,-44 14.3594,0 26,19.69947 26,44 z" />
      <ellipse
         transform="matrix(0.57462243,0,0,0.57462243,8.1710748,-5.5639707)"
         id="ellipse3238"
         ry="32"
         rx="19"
         cy="217"
         cx="412"
         sodipodi:cx="412"
         sodipodi:cy="217"
         sodipodi:rx="19"
         sodipodi:ry="32"
         style="fill:#332c2b;fill-rule:evenodd;stroke:#332c2b;stroke-width:1.42589998"
         d="m 431,217 c 0,17.67311 -8.50659,32 -19,32 -10.49341,0 -19,-14.32689 -19,-32 0,-17.67311 8.50659,-32 19,-32 10.49341,0 19,14.32689 19,32 z" />
      <circle
         id="circle3240"
         r="40"
         transform="matrix(-0.09909191,-0.06357163,-0.0271751,0.11849806,247.74668,112.9226)"
         cx="0"
         cy="0"
         sodipodi:cx="0"
         sodipodi:cy="0"
         sodipodi:rx="40"
         sodipodi:ry="40"
         style="fill:#fefefe;fill-rule:evenodd;stroke:#332c2b;stroke-width:1.42589998"
         d="M 40,0 C 40,22.09139 22.09139,40 0,40 -22.09139,40 -40,22.09139 -40,0 c 0,-22.09139 17.90861,-40 40,-40 22.09139,0 40,17.90861 40,40 z" />
      <circle
         id="circle3242"
         r="40"
         transform="matrix(-0.05190754,0.01844124,0.00788313,0.06207301,248.12421,129.12121)"
         cx="0"
         cy="0"
         sodipodi:cx="0"
         sodipodi:cy="0"
         sodipodi:rx="40"
         sodipodi:ry="40"
         style="fill:#fefefe;fill-rule:evenodd;stroke:#332c2b;stroke-width:1.42589998"
         d="M 40,0 C 40,22.09139 22.09139,40 0,40 -22.09139,40 -40,22.09139 -40,0 c 0,-22.09139 17.90861,-40 40,-40 22.09139,0 40,17.90861 40,40 z" />
      <path
         style="fill:#332c2b;fill-rule:evenodd;stroke:#332c2b;stroke-width:0.81935412"
         inkscape:connector-curvature="0"
         d="m 157.57291,390.35088 c -12.06707,-4.59698 -24.70877,0.57463 -26.43264,8.04472 -2.29848,7.47009 -2.87311,10.91782 8.61934,16.08943 11.49245,4.59698 35.62659,9.19395 37.92508,-4.59698 2.87311,-14.36556 -8.61933,-14.94019 -20.11178,-19.53717 z"
         id="path3244" />
      <path
         style="fill:#332c2b;fill-rule:evenodd;stroke:#332c2b;stroke-width:0.81935412"
         inkscape:connector-curvature="0"
         d="m 119.0732,333.46326 c -1.72386,-13.79094 1.72387,-32.75348 14.94019,-28.1565 13.79094,4.02236 16.66405,5.74623 18.38791,18.96254 1.72387,13.79094 -12.64169,35.62659 -22.41027,36.77584 -9.76858,1.14924 -9.19396,-13.79094 -10.91783,-27.58188 z"
         id="path3246" />
      <path
         style="fill:#332c2b;fill-rule:evenodd;stroke:#332c2b;stroke-width:0.81935412"
         inkscape:connector-curvature="0"
         d="m 72.528787,-4.9893483 c 28.156503,0 51.141393,15.5148053 58.611483,37.3504583 C 93.215194,42.129691 62.185583,62.816098 43.797665,90.397975 24.835125,81.778639 12.193432,65.114588 12.193432,45.577426 c 0,-28.1565 27.007254,-50.5667743 60.335355,-50.5667743 z"
         id="path3248" />
      <path
         style="fill:#474443;fill-rule:evenodd;stroke:#332c2b;stroke-width:0.81935412"
         inkscape:connector-curvature="0"
         d="m 72.528787,11.10008 c 18.387918,0 33.902723,10.343204 38.499703,24.708764 C 86.319725,42.129691 65.633318,55.920629 53.566247,74.308547 40.924553,68.562323 32.879839,57.069874 32.879839,44.428181 c 0,-18.387918 17.813296,-33.328101 39.648948,-33.328101 z"
         id="path3250" />
    </g>
  </g>
</svg>
